<svg id="Layer_2" data-name="Layer 2" xmlns="http://www.w3.org/2000/svg" xmlns:xlink="http://www.w3.org/1999/xlink" viewBox="0 0 267.94 202.65"><defs><style>.cls-1{fill:none;}.cls-2{fill:#2b2f5c;}.cls-3{fill:#fdd08f;}.cls-4{clip-path:url(#clip-path);}</style><clipPath id="clip-path" transform="translate(21.98 -4.06)"><path class="cls-1" d="M217.93,99.27H3a107.45,107.45,0,0,0,214.72,6.36,22.3,22.3,0,0,1-.43,44.6,3.18,3.18,0,1,0,0,6.35,28.65,28.65,0,0,0,.62-57.29Z"/></clipPath></defs><title>main_logo</title><circle class="cls-2" cx="134.1" cy="75.07" r="73.85"/><path class="cls-3" d="M111.33,4.06a95.2,95.2,0,1,0,95.19,95.19A95.19,95.19,0,0,0,111.33,4.06ZM92.45,23.54A82.89,82.89,0,0,0,67.34,34a.53.53,0,0,1-.27.08.5.5,0,0,1-.42-.24.49.49,0,0,1,.16-.69A83.73,83.73,0,0,1,92.22,22.57a.5.5,0,0,1,.6.37A.49.49,0,0,1,92.45,23.54Zm18.88,6.24c0-7.5-1.39-8.89-8.89-8.89,7.5,0,8.89-1.38,8.89-8.88,0,7.5,1.39,8.88,8.89,8.88C112.72,20.89,111.33,22.28,111.33,29.78Zm44.68,4a.5.5,0,0,1-.42.24.53.53,0,0,1-.27-.08,82.89,82.89,0,0,0-25.11-10.41.5.5,0,1,1,.23-1A83.73,83.73,0,0,1,155.85,33.1.49.49,0,0,1,156,33.79Z" transform="translate(21.98 -4.06)"/><path class="cls-2" d="M46.63,71.11A14.33,14.33,0,0,1,43,70.74a4.32,4.32,0,0,1-2.15-1.23,4.75,4.75,0,0,1-1-2.31,19.91,19.91,0,0,1-.27-3.61V54a20.21,20.21,0,0,1,.27-3.59,4.7,4.7,0,0,1,1-2.32A4.26,4.26,0,0,1,43,46.8a14.33,14.33,0,0,1,3.62-.37H60a14.24,14.24,0,0,1,3.61.37A4.26,4.26,0,0,1,65.74,48a4.7,4.7,0,0,1,1,2.32A20.21,20.21,0,0,1,67.05,54V71.11ZM49,91.29a12.73,12.73,0,0,1-3.44-.39,4.72,4.72,0,0,1-2.15-1.24,4.66,4.66,0,0,1-1.11-2.22A14.88,14.88,0,0,1,42,84.07V78.78a4.44,4.44,0,0,1,1.5-3.71,5.66,5.66,0,0,1,3.59-1.19,5.31,5.31,0,0,1,3.51,1.19A4.53,4.53,0,0,1,52,78.78v3.61c0,.56.08.91.24,1a2,2,0,0,0,1.09.2H79.27a3.94,3.94,0,0,1,3.22,1.16,4.21,4.21,0,0,1,0,5.34,3.9,3.9,0,0,1-3.19,1.16Zm0-28.73a1.63,1.63,0,0,0,.22,1,1.31,1.31,0,0,0,1,.25h7.52v-8.9a1.49,1.49,0,0,0-.25-1,1.36,1.36,0,0,0-1-.27H50.14a1.26,1.26,0,0,0-1,.27,1.57,1.57,0,0,0-.22,1Zm23.1-12.82a4.6,4.6,0,0,1,1.43-3.66,5.28,5.28,0,0,1,6.81,0,4.54,4.54,0,0,1,1.45,3.63v7.47h1.54a4,4,0,0,1,1.88.4,3.46,3.46,0,0,1,1.19,1A4.3,4.3,0,0,1,87,60a5.76,5.76,0,0,1,0,3,4.11,4.11,0,0,1-.64,1.39,3.4,3.4,0,0,1-1.22,1,3.92,3.92,0,0,1-1.85.4H81.74v14H72.05Z" transform="translate(21.98 -4.06)"/><path class="cls-2" d="M97.23,73.29V66.46H90.9a3.42,3.42,0,0,1-2.53-.81,3,3,0,0,1-.79-2.11,3,3,0,0,1,.77-2,3.28,3.28,0,0,1,2.55-.86h26.85a3.3,3.3,0,0,1,2.58.86,3.07,3.07,0,0,1,.74,2,3,3,0,0,1-.77,2.11,3.39,3.39,0,0,1-2.55.81H106.63v6.83ZM96.73,59q-4,0-5.88-1.8A6.43,6.43,0,0,1,89,52.46a6.48,6.48,0,0,1,1.83-4.79q1.83-1.83,5.88-1.83h13.75q4,0,5.84,1.83a6.48,6.48,0,0,1,1.83,4.79,6.43,6.43,0,0,1-1.83,4.78q-1.83,1.8-5.84,1.8Zm-.64,32.25a5.51,5.51,0,0,1-4.25-1.55A5.45,5.45,0,0,1,90.4,85.9v-.29a4.72,4.72,0,0,1,1.41-3.67,6.22,6.22,0,0,1,4.28-1.28h26.26v-.84q0-.69-.84-.69H93.27a2.21,2.21,0,0,1-1.81-.77,2.53,2.53,0,0,1-.61-1.61,2.82,2.82,0,0,1,.56-1.63,2.13,2.13,0,0,1,1.86-.79H127.6c1.91,0,3.21.33,3.91,1a4.06,4.06,0,0,1,1,3.06v6.43H101.83a.76.76,0,0,0-.65.28.88.88,0,0,0-.19.52c0,.49.28.74.84.74h29.68a2,2,0,0,1,1.8.79,3.06,3.06,0,0,1,.52,1.73,3,3,0,0,1-.52,1.61,2,2,0,0,1-1.8.81Zm4.06-40.06a2.47,2.47,0,0,0-1.37.27,1.13,1.13,0,0,0-.37,1,1.11,1.11,0,0,0,.37.9,2.36,2.36,0,0,0,1.37.29h6.92a2.34,2.34,0,0,0,1.36-.29,1.08,1.08,0,0,0,.37-.9,1.1,1.1,0,0,0-.37-1,2.45,2.45,0,0,0-1.36-.27ZM122.7,72.74H112.36a3.29,3.29,0,0,1-2.42-.71,2.58,2.58,0,0,1-.69-1.86,2.5,2.5,0,0,1,.69-1.8,3.29,3.29,0,0,1,2.42-.72H122.7v-18a4.36,4.36,0,0,1,1.49-3.59,5.2,5.2,0,0,1,3.41-1.21,5.27,5.27,0,0,1,1.83.32,5.06,5.06,0,0,1,1.58.91,4.41,4.41,0,0,1,1.11,1.49,4.8,4.8,0,0,1,.42,2.08V73.44H122.7Z" transform="translate(21.98 -4.06)"/><path class="cls-2" d="M162.17,46.28a3.45,3.45,0,0,1,1.61.35,3,3,0,0,1,1.09.91,3.47,3.47,0,0,1,.59,1.26,5.38,5.38,0,0,1,.18,1.34,4.63,4.63,0,0,1-.2,1.31,3.71,3.71,0,0,1-.6,1.21,2.82,2.82,0,0,1-1.06.89,3.45,3.45,0,0,1-1.61.35H149.61c-.92,0-1.39.39-1.39,1.19v5.49a1.16,1.16,0,0,0,.35,1,1.68,1.68,0,0,0,1,.27h14.44a3.67,3.67,0,0,1,1.64.35,2.91,2.91,0,0,1,1.08.89,4,4,0,0,1,.6,1.19,4.41,4.41,0,0,1,.19,1.28,4.75,4.75,0,0,1-.19,1.36,4.08,4.08,0,0,1-.6,1.22,2.91,2.91,0,0,1-1.08.89,3.67,3.67,0,0,1-1.64.34H145.5a14,14,0,0,1-3.41-.34,4.53,4.53,0,0,1-2.15-1.17,4.48,4.48,0,0,1-1.14-2.12,14.17,14.17,0,0,1-.32-3.24v-9.3a14,14,0,0,1,.32-3.24,4.47,4.47,0,0,1,1.14-2.13,4.6,4.6,0,0,1,2.15-1.16,14,14,0,0,1,3.41-.35ZM140.06,81.75a11,11,0,0,1,.65-3.76,8.45,8.45,0,0,1,1.9-3.09,8.79,8.79,0,0,1,3.19-2.08,12.19,12.19,0,0,1,4.5-.77h20.93a12.46,12.46,0,0,1,4.45.74,9,9,0,0,1,3.21,2.06,8.38,8.38,0,0,1,1.93,3.09,11.66,11.66,0,0,1,0,7.62,8.55,8.55,0,0,1-1.93,3.09,9,9,0,0,1-3.21,2,12.46,12.46,0,0,1-4.45.74H150.3a12.19,12.19,0,0,1-4.5-.76,9.06,9.06,0,0,1-3.19-2.08,8.62,8.62,0,0,1-1.9-3.07A10.87,10.87,0,0,1,140.06,81.75Zm10,0a3.35,3.35,0,0,0,.6,1.85,2.45,2.45,0,0,0,2.22.92H168.6a2.47,2.47,0,0,0,2.23-.92,3.21,3.21,0,0,0,0-3.71A2.46,2.46,0,0,0,168.6,79H152.92a2.44,2.44,0,0,0-2.22.91A3.36,3.36,0,0,0,150.1,81.75Zm20.78-32a4.52,4.52,0,0,1,1.46-3.66,5.33,5.33,0,0,1,6.85,0,4.49,4.49,0,0,1,1.48,3.63V53.8h1.54a3.93,3.93,0,0,1,1.88.4,3.39,3.39,0,0,1,1.18,1,3.81,3.81,0,0,1,.65,1.36,6.06,6.06,0,0,1,0,3,4.23,4.23,0,0,1-.65,1.39,3.14,3.14,0,0,1-1.21,1,4.33,4.33,0,0,1-1.85.37h-1.54v8.56h-9.79Z" transform="translate(21.98 -4.06)"/><g class="cls-4"><path class="cls-2" d="M217.93,99.27H3a107.45,107.45,0,0,0,214.72,6.36,22.3,22.3,0,0,1-.43,44.6,3.18,3.18,0,1,0,0,6.35,28.65,28.65,0,0,0,.62-57.29Z" transform="translate(21.98 -4.06)"/><path class="cls-2" d="M217.93,99.27H3a107.45,107.45,0,0,0,214.72,6.36,22.3,22.3,0,0,1-.43,44.6,3.18,3.18,0,1,0,0,6.35,28.65,28.65,0,0,0,.62-57.29Z" transform="translate(21.98 -4.06)"/><path class="cls-3" d="M61.28,169.32c-8-8.38-14.89-15.62-27.66-15.62a158.6,158.6,0,0,0-16.53.77l.35.48a156.16,156.16,0,0,1,16.18-.75c12.55,0,19.39,7.16,27.3,15.46C70.81,180,82,191.79,107.58,191.79c30.82,0,67.15-10,82.64-14.77l1-.82c-14.77,4.58-52.08,15.09-83.61,15.09C82.23,191.29,71.1,179.62,61.28,169.32Z" transform="translate(21.98 -4.06)"/><path class="cls-3" d="M61.28,176.86c-8-8.38-14.89-15.62-27.66-15.62-4.13,0-7.79.12-11,.32L23,162c3.15-.19,6.68-.3,10.64-.3,12.55,0,19.39,7.16,27.3,15.46,9.89,10.38,21.09,22.13,46.66,22.13,21.57,0,45.84-4.91,63.78-9.48.58-.32,1.16-.64,1.73-1-18.06,4.7-43.23,10-65.51,10C82.23,198.83,71.1,187.16,61.28,176.86Z" transform="translate(21.98 -4.06)"/><circle class="cls-3" cx="230.93" cy="120.42" r="1.08"/><circle class="cls-3" cx="113.46" cy="157.67" r="1.53"/><circle class="cls-3" cx="167.07" cy="129.71" r="1.08"/><path class="cls-3" d="M221.25,176.64H135.5a4.16,4.16,0,1,1,0-8.32h19.65c2.39,0,4.41-1.11,4.41-2.43s-2-2.42-4.41-2.42H143.74a4.17,4.17,0,1,1,0-8.33H213a4.17,4.17,0,0,1,0,8.33H201.59c-2.39,0-4.41,1.11-4.41,2.42s2,2.43,4.41,2.43h19.66a4.16,4.16,0,0,1,0,8.32Zm-85.75-7.32a3.16,3.16,0,1,0,0,6.32h85.75a3.16,3.16,0,0,0,0-6.32H201.59c-3,0-5.41-1.51-5.41-3.43s2.38-3.42,5.41-3.42H213a3.17,3.17,0,0,0,0-6.33H143.74a3.17,3.17,0,1,0,0,6.33h11.41c3,0,5.41,1.5,5.41,3.42s-2.37,3.43-5.41,3.43Z" transform="translate(21.98 -4.06)"/><path class="cls-3" d="M67.93,128.41H-17.82A4.17,4.17,0,0,1-22,124.24a4.16,4.16,0,0,1,4.16-4.16H1.83c2.4,0,4.42-1.11,4.42-2.42s-2-2.42-4.42-2.42H-9.58a4.17,4.17,0,0,1-4.16-4.17,4.17,4.17,0,0,1,4.16-4.16H59.69a4.17,4.17,0,0,1,0,8.33H48.28c-2.39,0-4.42,1.1-4.42,2.42s2,2.42,4.42,2.42H67.93a4.17,4.17,0,0,1,0,8.33Zm-85.75-7.33A3.17,3.17,0,0,0-21,124.24a3.17,3.17,0,0,0,3.16,3.17H67.93a3.17,3.17,0,0,0,0-6.33H48.28c-3,0-5.42-1.5-5.42-3.42s2.38-3.42,5.42-3.42H59.69a3.17,3.17,0,0,0,0-6.33H-9.58a3.17,3.17,0,0,0-3.16,3.16,3.17,3.17,0,0,0,3.16,3.17H1.83c3,0,5.42,1.5,5.42,3.42s-2.38,3.42-5.42,3.42Z" transform="translate(21.98 -4.06)"/><circle class="cls-3" cx="48.57" cy="136.04" r="1.53"/></g><path class="cls-3" d="M166.91,98.7v19.81c0,1.45,1.14,3.32,4.17,3.32,3.26,0,4.17-1.87,4.17-3.32V98.7Z" transform="translate(21.98 -4.06)"/><path class="cls-3" d="M179.7,98.7v36.08c0,2.66,1.49,6.06,5.44,6.06,4.26,0,5.44-3.4,5.44-6.06V98.7Z" transform="translate(21.98 -4.06)"/></svg>