<svg id="달" xmlns="http://www.w3.org/2000/svg" width="389.109" height="389.109" viewBox="0 0 389.109 389.109">
  <circle id="타원_9" data-name="타원 9" cx="194.554" cy="194.554" r="194.554" transform="translate(0)" fill="#f3f4dc"/>
  <circle id="타원_20" data-name="타원 20" cx="164.537" cy="164.537" r="164.537" transform="translate(30.017 30.017)" fill="#fefff1"/>
  <path id="패스_40" data-name="패스 40" d="M170.637,449.787a25.864,25.864,0,1,1-25.864-25.864A25.864,25.864,0,0,1,170.637,449.787Z" transform="translate(8.209 -103.801)" fill="#e2e2c7"/>
  <path id="패스_41" data-name="패스 41" d="M127.26,420.256a14.368,14.368,0,1,1-14.368-14.368A14.37,14.37,0,0,1,127.26,420.256Z" transform="translate(-38.466 -149.683)" fill="#e2e2c7"/>
  <path id="패스_42" data-name="패스 42" d="M124.554,439.976a11.937,11.937,0,1,1-11.937-11.937A11.937,11.937,0,0,1,124.554,439.976Z" transform="translate(-11.885 -117.407)" fill="#e2e2c7"/>
  <path id="패스_43" data-name="패스 43" d="M175.749,376.966a21.46,21.46,0,1,1-21.458-21.458A21.461,21.461,0,0,1,175.749,376.966Z" transform="translate(112.156 -320.491)" fill="#e2e2c7"/>
  <path id="패스_45" data-name="패스 45" d="M149.4,355.954a12.6,12.6,0,1,1-12.6-12.6A12.6,12.6,0,0,1,149.4,355.954Z" transform="translate(87.534 -320.936)" fill="#e2e2c7"/>
</svg>
