<svg id="Layer_1" data-name="Layer 1" xmlns="http://www.w3.org/2000/svg" xmlns:xlink="http://www.w3.org/1999/xlink" viewBox="0 0 533.68 202.31"><defs><style>.cls-1,.cls-3{fill:none;}.cls-2{fill:#fdd08f;}.cls-3{stroke:#fdd08f;stroke-miterlimit:10;}.cls-4{clip-path:url(#clip-path);}.cls-5{clip-path:url(#clip-path-2);}.cls-6{fill:#2b2f5c;}</style><clipPath id="clip-path" transform="translate(158.38 -1.44)"><path class="cls-1" d="M125.89,166.23A81.56,81.56,0,0,1,75,21.2h0A84.79,84.79,0,1,0,179.56,146,80.87,80.87,0,0,1,125.89,166.23Z"/></clipPath><clipPath id="clip-path-2" transform="translate(158.38 -1.44)"><path class="cls-1" d="M203.3,99.36H11.86A95.72,95.72,0,0,0,203.13,105a19.86,19.86,0,0,1-.39,39.72,2.83,2.83,0,0,0,0,5.66,25.52,25.52,0,0,0,.56-51Z"/></clipPath></defs><title>sub_logo</title><path class="cls-2" d="M58.21,76.16a12.82,12.82,0,0,1-3.15-.32,3.79,3.79,0,0,1-1.87-1.08,4.16,4.16,0,0,1-.9-2,17.06,17.06,0,0,1-.24-3.14V61.23a17.2,17.2,0,0,1,.24-3.12,4.15,4.15,0,0,1,.9-2A3.79,3.79,0,0,1,55.06,55a12.82,12.82,0,0,1,3.15-.32H69.82A12.88,12.88,0,0,1,73,55a3.79,3.79,0,0,1,1.87,1.08,4.15,4.15,0,0,1,.9,2A17.2,17.2,0,0,1,76,61.23V76.16Zm2.06,17.56a10.9,10.9,0,0,1-3-.35,4,4,0,0,1-1.87-1.07,4.18,4.18,0,0,1-1-1.94,12.9,12.9,0,0,1-.28-2.92V82.83a3.88,3.88,0,0,1,1.31-3.23,4.9,4.9,0,0,1,3.12-1,4.62,4.62,0,0,1,3.06,1,4,4,0,0,1,1.25,3.23V86c0,.49.07.79.21.91a1.75,1.75,0,0,0,1,.17H86.61a3.4,3.4,0,0,1,2.79,1,3.52,3.52,0,0,1,.82,2.3,3.58,3.58,0,0,1-.84,2.35,3.42,3.42,0,0,1-2.77,1Zm0-25a1.42,1.42,0,0,0,.19.9,1.17,1.17,0,0,0,.84.22H67.8V62.09a1.29,1.29,0,0,0-.21-.84,1.16,1.16,0,0,0-.86-.24H61.26a1.08,1.08,0,0,0-.84.24,1.37,1.37,0,0,0-.19.84ZM80.32,57.57a4,4,0,0,1,1.25-3.18,4.56,4.56,0,0,1,5.92,0,3.93,3.93,0,0,1,1.27,3.16v6.5h1.33a3.47,3.47,0,0,1,1.64.34,3,3,0,0,1,1,.89,3.57,3.57,0,0,1,.56,1.2,5.48,5.48,0,0,1,.17,1.31,5.56,5.56,0,0,1-.17,1.32,3.67,3.67,0,0,1-.56,1.2,2.94,2.94,0,0,1-1.05.88,3.52,3.52,0,0,1-1.62.35H88.76V83.73H80.32Z" transform="translate(158.38 -1.44)"/><path class="cls-2" d="M102.23,78.05V72.12H96.72a3,3,0,0,1-2.2-.71,2.57,2.57,0,0,1-.68-1.83,2.62,2.62,0,0,1,.66-1.79A2.86,2.86,0,0,1,96.72,67h23.37a2.81,2.81,0,0,1,2.23.75,2.66,2.66,0,0,1,.65,1.79,2.57,2.57,0,0,1-.67,1.83,2.93,2.93,0,0,1-2.21.71H110.4v5.93Zm-.43-12.39c-2.36,0-4.06-.52-5.12-1.57a5.54,5.54,0,0,1-1.6-4.15,5.65,5.65,0,0,1,1.6-4.18c1.06-1.06,2.76-1.59,5.12-1.59h12c2.32,0,4,.53,5.08,1.59a5.68,5.68,0,0,1,1.59,4.18,5.58,5.58,0,0,1-1.59,4.15c-1.06,1-2.76,1.57-5.08,1.57Zm-.56,28.06a4.75,4.75,0,0,1-3.7-1.36A4.69,4.69,0,0,1,96.29,89v-.26a4.1,4.1,0,0,1,1.23-3.19,5.37,5.37,0,0,1,3.72-1.11h22.85v-.74c0-.4-.25-.6-.73-.6H98.78a1.92,1.92,0,0,1-1.57-.66,2.19,2.19,0,0,1-.53-1.4,2.39,2.39,0,0,1,.49-1.42A1.85,1.85,0,0,1,98.78,79h29.87a5,5,0,0,1,3.4.86,3.53,3.53,0,0,1,.9,2.67v5.59H106.23a.63.63,0,0,0-.56.24.82.82,0,0,0-.17.45c0,.43.24.64.73.64h25.82a1.76,1.76,0,0,1,1.57.69,2.7,2.7,0,0,1,.45,1.51,2.6,2.6,0,0,1-.45,1.4,1.73,1.73,0,0,1-1.57.71Zm3.53-34.86a2.12,2.12,0,0,0-1.19.24,1,1,0,0,0-.32.84.94.94,0,0,0,.32.77,2,2,0,0,0,1.19.26h6a2,2,0,0,0,1.18-.26.92.92,0,0,0,.33-.77,1,1,0,0,0-.33-.84,2.08,2.08,0,0,0-1.18-.24Zm19.62,18.72h-9a2.89,2.89,0,0,1-2.11-.62,2.22,2.22,0,0,1-.61-1.62,2.15,2.15,0,0,1,.61-1.57,2.89,2.89,0,0,1,2.11-.62h9V57.48a3.78,3.78,0,0,1,1.29-3.11,4.68,4.68,0,0,1,4.56-.78,4.31,4.31,0,0,1,1.38.8,3.85,3.85,0,0,1,1,1.29,4.22,4.22,0,0,1,.36,1.8v20.7h-8.56Z" transform="translate(158.38 -1.44)"/><path class="cls-2" d="M158.73,54.56a3,3,0,0,1,1.4.3,2.71,2.71,0,0,1,.94.8,3,3,0,0,1,.52,1.09,4.88,4.88,0,0,1,.15,1.17,4.2,4.2,0,0,1-.17,1.14,3.68,3.68,0,0,1-.52,1,2.58,2.58,0,0,1-.92.77,2.92,2.92,0,0,1-1.4.31H147.8c-.81,0-1.21.34-1.21,1V67a1,1,0,0,0,.31.83,1.4,1.4,0,0,0,.9.24h12.56a3.13,3.13,0,0,1,1.42.3,2.47,2.47,0,0,1,.95.78,3.57,3.57,0,0,1,.52,1,4,4,0,0,1,.17,1.12,4.32,4.32,0,0,1-.17,1.18,3.61,3.61,0,0,1-.52,1.06,2.54,2.54,0,0,1-.95.77,3.13,3.13,0,0,1-1.42.3H144.23a12.13,12.13,0,0,1-3-.3,4,4,0,0,1-1.87-1,3.73,3.73,0,0,1-1-1.85,11.86,11.86,0,0,1-.28-2.82V60.54a11.86,11.86,0,0,1,.28-2.82,3.73,3.73,0,0,1,1-1.85,4,4,0,0,1,1.87-1,12.13,12.13,0,0,1,3-.3ZM139.49,85.41a9.69,9.69,0,0,1,.56-3.27,7.52,7.52,0,0,1,1.66-2.69,7.73,7.73,0,0,1,2.77-1.8A10.48,10.48,0,0,1,148.4,77h18.2a10.77,10.77,0,0,1,3.88.64,7.67,7.67,0,0,1,2.79,1.79A7.29,7.29,0,0,1,175,82.1a10.09,10.09,0,0,1,0,6.63,7.29,7.29,0,0,1-1.68,2.69,7.65,7.65,0,0,1-2.79,1.78,10.77,10.77,0,0,1-3.88.65H148.4a10.69,10.69,0,0,1-3.92-.67,7.89,7.89,0,0,1-2.77-1.81,7.57,7.57,0,0,1-1.66-2.66A9.61,9.61,0,0,1,139.49,85.41Zm8.74,0a2.9,2.9,0,0,0,.52,1.62,2.13,2.13,0,0,0,1.93.79h13.64a2.14,2.14,0,0,0,1.94-.79,2.77,2.77,0,0,0,0-3.23,2.15,2.15,0,0,0-1.94-.8H150.68a2.13,2.13,0,0,0-1.93.8A2.9,2.9,0,0,0,148.23,85.41ZM166.3,57.57a4,4,0,0,1,1.27-3.18,4.62,4.62,0,0,1,6,0,3.91,3.91,0,0,1,1.29,3.16V61.1h1.34a3.43,3.43,0,0,1,1.63.34,3.18,3.18,0,0,1,1,.86,3.42,3.42,0,0,1,.55,1.19,4.86,4.86,0,0,1,0,2.62,3.61,3.61,0,0,1-.55,1.21,2.76,2.76,0,0,1-1.06.86,3.73,3.73,0,0,1-1.61.32h-1.34V76H166.3Z" transform="translate(158.38 -1.44)"/><circle class="cls-3" cx="267.42" cy="97.41" r="84.8"/><g class="cls-4"><rect class="cls-1" x="266.84" width="266.84" height="33.72"/><path class="cls-2" d="M342,35.16A41.43,41.43,0,0,1,325.18,32,45.94,45.94,0,0,0,292,32a41.43,41.43,0,0,1-16.77,3.13A41.42,41.42,0,0,1,258.47,32a45.94,45.94,0,0,0-33.18,0,41.42,41.42,0,0,1-16.76,3.13A41.43,41.43,0,0,1,191.76,32a41.09,41.09,0,0,0-16.59-3.1A41.09,41.09,0,0,0,158.58,32a41.42,41.42,0,0,1-16.76,3.13A41.43,41.43,0,0,1,125.05,32a41.09,41.09,0,0,0-16.59-3.1v-.52a41.43,41.43,0,0,1,16.77,3.13,40.88,40.88,0,0,0,16.59,3.1,40.83,40.83,0,0,0,16.58-3.1,41.47,41.47,0,0,1,16.77-3.13,41.43,41.43,0,0,1,16.77,3.13,40.88,40.88,0,0,0,16.59,3.1,40.83,40.83,0,0,0,16.58-3.1,46.49,46.49,0,0,1,33.54,0,40.86,40.86,0,0,0,16.58,3.1,40.88,40.88,0,0,0,16.59-3.1,46.49,46.49,0,0,1,33.54,0A40.92,40.92,0,0,0,342,34.64a40.92,40.92,0,0,0,16.59-3.1,41.43,41.43,0,0,1,16.77-3.13v.52A41.05,41.05,0,0,0,358.72,32,41.47,41.47,0,0,1,342,35.16Z" transform="translate(158.38 -1.44)"/><path class="cls-2" d="M342,28.41a41.43,41.43,0,0,1-16.77-3.13,46.08,46.08,0,0,0-33.18,0,41.43,41.43,0,0,1-16.77,3.13,41.42,41.42,0,0,1-16.76-3.13,46.08,46.08,0,0,0-33.18,0,41.42,41.42,0,0,1-16.76,3.13,41.43,41.43,0,0,1-16.77-3.13,41.12,41.12,0,0,0-16.59-3.09,41.12,41.12,0,0,0-16.59,3.09,41.42,41.42,0,0,1-16.76,3.13,41.43,41.43,0,0,1-16.77-3.13,41.12,41.12,0,0,0-16.59-3.09v-.52a41.43,41.43,0,0,1,16.77,3.13,41.05,41.05,0,0,0,16.59,3.1,41,41,0,0,0,16.58-3.1,41.47,41.47,0,0,1,16.77-3.13,41.43,41.43,0,0,1,16.77,3.13,41.05,41.05,0,0,0,16.59,3.1,41,41,0,0,0,16.58-3.1,46.49,46.49,0,0,1,33.54,0,41,41,0,0,0,16.58,3.1,41.05,41.05,0,0,0,16.59-3.1,46.49,46.49,0,0,1,33.54,0A41.09,41.09,0,0,0,342,27.9a41.09,41.09,0,0,0,16.59-3.1,41.43,41.43,0,0,1,16.77-3.13v.52a41.08,41.08,0,0,0-16.59,3.09A41.47,41.47,0,0,1,342,28.41Z" transform="translate(158.38 -1.44)"/><path class="cls-2" d="M342,21.67a41.43,41.43,0,0,1-16.77-3.13,45.94,45.94,0,0,0-33.18,0,41.43,41.43,0,0,1-16.77,3.13,41.42,41.42,0,0,1-16.76-3.13,45.94,45.94,0,0,0-33.18,0,41.42,41.42,0,0,1-16.76,3.13,41.43,41.43,0,0,1-16.77-3.13,41.09,41.09,0,0,0-16.59-3.1,41.09,41.09,0,0,0-16.59,3.1,41.42,41.42,0,0,1-16.76,3.13,41.43,41.43,0,0,1-16.77-3.13,41.09,41.09,0,0,0-16.59-3.1v-.51a41.43,41.43,0,0,1,16.77,3.13,41.08,41.08,0,0,0,16.59,3.09,41,41,0,0,0,16.58-3.09,41.47,41.47,0,0,1,16.77-3.13,41.43,41.43,0,0,1,16.77,3.13,41.08,41.08,0,0,0,16.59,3.09,41,41,0,0,0,16.58-3.09,46.49,46.49,0,0,1,33.54,0,41.07,41.07,0,0,0,16.58,3.09,41.08,41.08,0,0,0,16.59-3.09,46.49,46.49,0,0,1,33.54,0A41.12,41.12,0,0,0,342,21.15a41.12,41.12,0,0,0,16.59-3.09,41.43,41.43,0,0,1,16.77-3.13v.51a41.05,41.05,0,0,0-16.59,3.1A41.47,41.47,0,0,1,342,21.67Z" transform="translate(158.38 -1.44)"/><path class="cls-2" d="M342,14.93a41.43,41.43,0,0,1-16.77-3.13,45.94,45.94,0,0,0-33.18,0,41.43,41.43,0,0,1-16.77,3.13,41.42,41.42,0,0,1-16.76-3.13,45.94,45.94,0,0,0-33.18,0,41.42,41.42,0,0,1-16.76,3.13,41.43,41.43,0,0,1-16.77-3.13,40.92,40.92,0,0,0-16.59-3.1,40.92,40.92,0,0,0-16.59,3.1,41.42,41.42,0,0,1-16.76,3.13,41.43,41.43,0,0,1-16.77-3.13,40.92,40.92,0,0,0-16.59-3.1V8.18a41.43,41.43,0,0,1,16.77,3.13,41.05,41.05,0,0,0,16.59,3.1,41,41,0,0,0,16.58-3.1,41.47,41.47,0,0,1,16.77-3.13,41.43,41.43,0,0,1,16.77,3.13,41.05,41.05,0,0,0,16.59,3.1,41,41,0,0,0,16.58-3.1,46.49,46.49,0,0,1,33.54,0,41,41,0,0,0,16.58,3.1,41.05,41.05,0,0,0,16.59-3.1,46.49,46.49,0,0,1,33.54,0A41.09,41.09,0,0,0,342,14.41a41.09,41.09,0,0,0,16.59-3.1,41.43,41.43,0,0,1,16.77-3.13V8.7a40.88,40.88,0,0,0-16.59,3.1A41.47,41.47,0,0,1,342,14.93Z" transform="translate(158.38 -1.44)"/><path class="cls-2" d="M342,8.18a41.43,41.43,0,0,1-16.77-3.13,46.08,46.08,0,0,0-33.18,0,41.43,41.43,0,0,1-16.77,3.13,41.42,41.42,0,0,1-16.76-3.13,46.08,46.08,0,0,0-33.18,0,41.42,41.42,0,0,1-16.76,3.13,41.43,41.43,0,0,1-16.77-3.13A41.12,41.12,0,0,0,175.17,2a41.12,41.12,0,0,0-16.59,3.09,41.42,41.42,0,0,1-16.76,3.13,41.43,41.43,0,0,1-16.77-3.13A41.12,41.12,0,0,0,108.46,2V1.44a41.43,41.43,0,0,1,16.77,3.13,41.08,41.08,0,0,0,16.59,3.09A41,41,0,0,0,158.4,4.57a41.47,41.47,0,0,1,16.77-3.13,41.43,41.43,0,0,1,16.77,3.13,41.08,41.08,0,0,0,16.59,3.09,41,41,0,0,0,16.58-3.09,46.49,46.49,0,0,1,33.54,0,41.07,41.07,0,0,0,16.58,3.09,41.08,41.08,0,0,0,16.59-3.09,46.49,46.49,0,0,1,33.54,0A41.12,41.12,0,0,0,342,7.66a41.12,41.12,0,0,0,16.59-3.09,41.43,41.43,0,0,1,16.77-3.13V2a41.08,41.08,0,0,0-16.59,3.09A41.47,41.47,0,0,1,342,8.18Z" transform="translate(158.38 -1.44)"/><rect class="cls-1" x="266.84" y="33.72" width="266.84" height="33.72"/><path class="cls-2" d="M342,68.88a41.43,41.43,0,0,1-16.77-3.13,45.94,45.94,0,0,0-33.18,0,46.46,46.46,0,0,1-33.53,0,45.94,45.94,0,0,0-33.18,0,46.46,46.46,0,0,1-33.53,0,40.92,40.92,0,0,0-16.59-3.1,40.92,40.92,0,0,0-16.59,3.1,41.42,41.42,0,0,1-16.76,3.13,41.43,41.43,0,0,1-16.77-3.13,40.92,40.92,0,0,0-16.59-3.1v-.52a41.43,41.43,0,0,1,16.77,3.13,41.05,41.05,0,0,0,16.59,3.1,41,41,0,0,0,16.58-3.1,41.47,41.47,0,0,1,16.77-3.13,41.43,41.43,0,0,1,16.77,3.13,45.91,45.91,0,0,0,33.17,0,46.49,46.49,0,0,1,33.54,0,45.91,45.91,0,0,0,33.17,0,46.49,46.49,0,0,1,33.54,0,45.94,45.94,0,0,0,33.18,0,41.43,41.43,0,0,1,16.77-3.13v.52a40.88,40.88,0,0,0-16.59,3.1A41.47,41.47,0,0,1,342,68.88Z" transform="translate(158.38 -1.44)"/><path class="cls-2" d="M342,62.13A41.43,41.43,0,0,1,325.18,59,46.08,46.08,0,0,0,292,59a46.46,46.46,0,0,1-33.53,0,46.08,46.08,0,0,0-33.18,0,46.46,46.46,0,0,1-33.53,0,41.12,41.12,0,0,0-16.59-3.09A41.12,41.12,0,0,0,158.58,59a41.42,41.42,0,0,1-16.76,3.13A41.43,41.43,0,0,1,125.05,59a41.12,41.12,0,0,0-16.59-3.09v-.52a41.43,41.43,0,0,1,16.77,3.13,41.08,41.08,0,0,0,16.59,3.09,41,41,0,0,0,16.58-3.09,41.47,41.47,0,0,1,16.77-3.13,41.43,41.43,0,0,1,16.77,3.13,46.05,46.05,0,0,0,33.17,0,46.49,46.49,0,0,1,33.54,0,46.05,46.05,0,0,0,33.17,0,46.49,46.49,0,0,1,33.54,0,46.08,46.08,0,0,0,33.18,0,41.43,41.43,0,0,1,16.77-3.13v.52A41.08,41.08,0,0,0,358.72,59,41.47,41.47,0,0,1,342,62.13Z" transform="translate(158.38 -1.44)"/><path class="cls-2" d="M342,55.39a41.43,41.43,0,0,1-16.77-3.13,45.94,45.94,0,0,0-33.18,0,46.46,46.46,0,0,1-33.53,0,45.94,45.94,0,0,0-33.18,0,46.46,46.46,0,0,1-33.53,0,41.09,41.09,0,0,0-16.59-3.1,41.09,41.09,0,0,0-16.59,3.1,41.42,41.42,0,0,1-16.76,3.13,41.43,41.43,0,0,1-16.77-3.13,41.09,41.09,0,0,0-16.59-3.1v-.52a41.61,41.61,0,0,1,16.77,3.13,40.88,40.88,0,0,0,16.59,3.1,40.83,40.83,0,0,0,16.58-3.1,41.65,41.65,0,0,1,16.77-3.13,41.61,41.61,0,0,1,16.77,3.13,45.91,45.91,0,0,0,33.17,0,46.49,46.49,0,0,1,33.54,0,45.91,45.91,0,0,0,33.17,0,46.49,46.49,0,0,1,33.54,0,45.94,45.94,0,0,0,33.18,0,41.61,41.61,0,0,1,16.77-3.13v.52a41.05,41.05,0,0,0-16.59,3.1A41.47,41.47,0,0,1,342,55.39Z" transform="translate(158.38 -1.44)"/><path class="cls-2" d="M342,48.64a41.64,41.64,0,0,1-16.77-3.12,45.94,45.94,0,0,0-33.18,0,46.6,46.6,0,0,1-33.53,0,45.94,45.94,0,0,0-33.18,0,46.6,46.6,0,0,1-33.53,0,40.92,40.92,0,0,0-16.59-3.1,40.92,40.92,0,0,0-16.59,3.1,41.62,41.62,0,0,1-16.76,3.12,41.64,41.64,0,0,1-16.77-3.12,40.92,40.92,0,0,0-16.59-3.1V41.9A41.43,41.43,0,0,1,125.23,45a41.05,41.05,0,0,0,16.59,3.1A41,41,0,0,0,158.4,45a41.47,41.47,0,0,1,16.77-3.13A41.43,41.43,0,0,1,191.94,45a45.91,45.91,0,0,0,33.17,0,46.49,46.49,0,0,1,33.54,0,45.91,45.91,0,0,0,33.17,0,46.49,46.49,0,0,1,33.54,0,45.94,45.94,0,0,0,33.18,0,41.43,41.43,0,0,1,16.77-3.13v.52a40.88,40.88,0,0,0-16.59,3.1A41.68,41.68,0,0,1,342,48.64Z" transform="translate(158.38 -1.44)"/><path class="cls-2" d="M342,41.9a41.43,41.43,0,0,1-16.77-3.13,46.08,46.08,0,0,0-33.18,0,41.43,41.43,0,0,1-16.77,3.13,41.42,41.42,0,0,1-16.76-3.13,46.08,46.08,0,0,0-33.18,0,41.42,41.42,0,0,1-16.76,3.13,41.43,41.43,0,0,1-16.77-3.13,41.12,41.12,0,0,0-16.59-3.09,41.12,41.12,0,0,0-16.59,3.09,41.42,41.42,0,0,1-16.76,3.13,41.43,41.43,0,0,1-16.77-3.13,41.12,41.12,0,0,0-16.59-3.09v-.52a41.43,41.43,0,0,1,16.77,3.13,41.08,41.08,0,0,0,16.59,3.09,41,41,0,0,0,16.58-3.09,41.47,41.47,0,0,1,16.77-3.13,41.43,41.43,0,0,1,16.77,3.13,41.08,41.08,0,0,0,16.59,3.09,41,41,0,0,0,16.58-3.09,46.49,46.49,0,0,1,33.54,0,41.07,41.07,0,0,0,16.58,3.09,41.08,41.08,0,0,0,16.59-3.09,46.49,46.49,0,0,1,33.54,0,46.08,46.08,0,0,0,33.18,0,41.43,41.43,0,0,1,16.77-3.13v.52a41.08,41.08,0,0,0-16.59,3.09A41.47,41.47,0,0,1,342,41.9Z" transform="translate(158.38 -1.44)"/><rect class="cls-1" x="266.84" y="67.44" width="266.84" height="33.72"/><path class="cls-2" d="M342,102.6a41.61,41.61,0,0,1-16.77-3.13,45.94,45.94,0,0,0-33.18,0,46.46,46.46,0,0,1-33.53,0,45.94,45.94,0,0,0-33.18,0,46.46,46.46,0,0,1-33.53,0,40.92,40.92,0,0,0-16.59-3.1,40.92,40.92,0,0,0-16.59,3.1,41.59,41.59,0,0,1-16.76,3.13,41.61,41.61,0,0,1-16.77-3.13,40.92,40.92,0,0,0-16.59-3.1v-.52A41.43,41.43,0,0,1,125.23,99a41.05,41.05,0,0,0,16.59,3.1A41,41,0,0,0,158.4,99a41.47,41.47,0,0,1,16.77-3.13A41.43,41.43,0,0,1,191.94,99a45.91,45.91,0,0,0,33.17,0,46.49,46.49,0,0,1,33.54,0,45.91,45.91,0,0,0,33.17,0,46.49,46.49,0,0,1,33.54,0,45.94,45.94,0,0,0,33.18,0,41.43,41.43,0,0,1,16.77-3.13v.52a40.88,40.88,0,0,0-16.59,3.1A41.65,41.65,0,0,1,342,102.6Z" transform="translate(158.38 -1.44)"/><path class="cls-2" d="M342,95.85a41.43,41.43,0,0,1-16.77-3.13,46.08,46.08,0,0,0-33.18,0,46.46,46.46,0,0,1-33.53,0,46.08,46.08,0,0,0-33.18,0,46.46,46.46,0,0,1-33.53,0,41.12,41.12,0,0,0-16.59-3.09,41.12,41.12,0,0,0-16.59,3.09,41.42,41.42,0,0,1-16.76,3.13,41.43,41.43,0,0,1-16.77-3.13,41.12,41.12,0,0,0-16.59-3.09v-.52a41.43,41.43,0,0,1,16.77,3.13,41.08,41.08,0,0,0,16.59,3.09,41,41,0,0,0,16.58-3.09,41.47,41.47,0,0,1,16.77-3.13,41.43,41.43,0,0,1,16.77,3.13,46.05,46.05,0,0,0,33.17,0,46.49,46.49,0,0,1,33.54,0,46.05,46.05,0,0,0,33.17,0,46.49,46.49,0,0,1,33.54,0,46.08,46.08,0,0,0,33.18,0,41.43,41.43,0,0,1,16.77-3.13v.52a41.08,41.08,0,0,0-16.59,3.09A41.47,41.47,0,0,1,342,95.85Z" transform="translate(158.38 -1.44)"/><path class="cls-2" d="M342,89.11A41.43,41.43,0,0,1,325.18,86,45.94,45.94,0,0,0,292,86a46.46,46.46,0,0,1-33.53,0,45.94,45.94,0,0,0-33.18,0,46.46,46.46,0,0,1-33.53,0,41.09,41.09,0,0,0-16.59-3.1A41.09,41.09,0,0,0,158.58,86a41.42,41.42,0,0,1-16.76,3.13A41.43,41.43,0,0,1,125.05,86a41.09,41.09,0,0,0-16.59-3.1v-.52a41.43,41.43,0,0,1,16.77,3.13,40.88,40.88,0,0,0,16.59,3.1,40.83,40.83,0,0,0,16.58-3.1,41.47,41.47,0,0,1,16.77-3.13,41.43,41.43,0,0,1,16.77,3.13,45.91,45.91,0,0,0,33.17,0,46.49,46.49,0,0,1,33.54,0,45.91,45.91,0,0,0,33.17,0,46.49,46.49,0,0,1,33.54,0,45.94,45.94,0,0,0,33.18,0,41.43,41.43,0,0,1,16.77-3.13v.52A41.05,41.05,0,0,0,358.72,86,41.47,41.47,0,0,1,342,89.11Z" transform="translate(158.38 -1.44)"/><path class="cls-2" d="M342,82.36a41.43,41.43,0,0,1-16.77-3.13,46.08,46.08,0,0,0-33.18,0,46.46,46.46,0,0,1-33.53,0,46.08,46.08,0,0,0-33.18,0,46.46,46.46,0,0,1-33.53,0,41.12,41.12,0,0,0-16.59-3.09,41.12,41.12,0,0,0-16.59,3.09,41.42,41.42,0,0,1-16.76,3.13,41.43,41.43,0,0,1-16.77-3.13,41.12,41.12,0,0,0-16.59-3.09v-.52a41.43,41.43,0,0,1,16.77,3.13,41.05,41.05,0,0,0,16.59,3.1,41,41,0,0,0,16.58-3.1,41.47,41.47,0,0,1,16.77-3.13,41.43,41.43,0,0,1,16.77,3.13,45.91,45.91,0,0,0,33.17,0,46.49,46.49,0,0,1,33.54,0,45.91,45.91,0,0,0,33.17,0,46.49,46.49,0,0,1,33.54,0,45.94,45.94,0,0,0,33.18,0,41.43,41.43,0,0,1,16.77-3.13v.52a41.08,41.08,0,0,0-16.59,3.09A41.47,41.47,0,0,1,342,82.36Z" transform="translate(158.38 -1.44)"/><path class="cls-2" d="M342,75.62a41.43,41.43,0,0,1-16.77-3.13,45.94,45.94,0,0,0-33.18,0,46.46,46.46,0,0,1-33.53,0,45.94,45.94,0,0,0-33.18,0,46.46,46.46,0,0,1-33.53,0,41.09,41.09,0,0,0-16.59-3.1,41.09,41.09,0,0,0-16.59,3.1,41.42,41.42,0,0,1-16.76,3.13,41.43,41.43,0,0,1-16.77-3.13,41.09,41.09,0,0,0-16.59-3.1v-.51A41.43,41.43,0,0,1,125.23,72a41.08,41.08,0,0,0,16.59,3.09A41,41,0,0,0,158.4,72a41.47,41.47,0,0,1,16.77-3.13A41.43,41.43,0,0,1,191.94,72a46.05,46.05,0,0,0,33.17,0,46.49,46.49,0,0,1,33.54,0,46.05,46.05,0,0,0,33.17,0,46.49,46.49,0,0,1,33.54,0,46.08,46.08,0,0,0,33.18,0,41.43,41.43,0,0,1,16.77-3.13v.51a41.05,41.05,0,0,0-16.59,3.1A41.47,41.47,0,0,1,342,75.62Z" transform="translate(158.38 -1.44)"/><rect class="cls-1" x="266.84" y="101.16" width="266.84" height="33.72"/><path class="cls-2" d="M342,136.31a41.43,41.43,0,0,1-16.77-3.13,46.08,46.08,0,0,0-33.18,0,46.46,46.46,0,0,1-33.53,0,46.08,46.08,0,0,0-33.18,0,46.46,46.46,0,0,1-33.53,0,41.12,41.12,0,0,0-16.59-3.09,41.12,41.12,0,0,0-16.59,3.09,41.42,41.42,0,0,1-16.76,3.13,41.43,41.43,0,0,1-16.77-3.13,41.12,41.12,0,0,0-16.59-3.09v-.52a41.43,41.43,0,0,1,16.77,3.13,41.05,41.05,0,0,0,16.59,3.1,41,41,0,0,0,16.58-3.1,41.47,41.47,0,0,1,16.77-3.13,41.43,41.43,0,0,1,16.77,3.13,45.91,45.91,0,0,0,33.17,0,46.49,46.49,0,0,1,33.54,0,45.91,45.91,0,0,0,33.17,0,46.49,46.49,0,0,1,33.54,0,45.94,45.94,0,0,0,33.18,0,41.43,41.43,0,0,1,16.77-3.13v.52a41.08,41.08,0,0,0-16.59,3.09A41.47,41.47,0,0,1,342,136.31Z" transform="translate(158.38 -1.44)"/><path class="cls-2" d="M342,129.57a41.43,41.43,0,0,1-16.77-3.13,45.94,45.94,0,0,0-33.18,0,46.46,46.46,0,0,1-33.53,0,45.94,45.94,0,0,0-33.18,0,46.46,46.46,0,0,1-33.53,0,41.09,41.09,0,0,0-16.59-3.1,41.09,41.09,0,0,0-16.59,3.1,41.42,41.42,0,0,1-16.76,3.13,41.43,41.43,0,0,1-16.77-3.13,41.09,41.09,0,0,0-16.59-3.1v-.51A41.43,41.43,0,0,1,125.23,126a41.08,41.08,0,0,0,16.59,3.09A41,41,0,0,0,158.4,126a41.47,41.47,0,0,1,16.77-3.13A41.43,41.43,0,0,1,191.94,126a46.05,46.05,0,0,0,33.17,0,46.49,46.49,0,0,1,33.54,0,46.05,46.05,0,0,0,33.17,0,46.49,46.49,0,0,1,33.54,0,46.08,46.08,0,0,0,33.18,0,41.43,41.43,0,0,1,16.77-3.13v.51a41.05,41.05,0,0,0-16.59,3.1A41.47,41.47,0,0,1,342,129.57Z" transform="translate(158.38 -1.44)"/><path class="cls-2" d="M342,122.83a41.43,41.43,0,0,1-16.77-3.13,45.94,45.94,0,0,0-33.18,0,46.46,46.46,0,0,1-33.53,0,45.94,45.94,0,0,0-33.18,0,46.46,46.46,0,0,1-33.53,0,40.92,40.92,0,0,0-16.59-3.1,40.92,40.92,0,0,0-16.59,3.1,41.42,41.42,0,0,1-16.76,3.13,41.43,41.43,0,0,1-16.77-3.13,40.92,40.92,0,0,0-16.59-3.1v-.52a41.43,41.43,0,0,1,16.77,3.13,41.05,41.05,0,0,0,16.59,3.1,41,41,0,0,0,16.58-3.1,41.47,41.47,0,0,1,16.77-3.13,41.43,41.43,0,0,1,16.77,3.13,45.91,45.91,0,0,0,33.17,0,46.49,46.49,0,0,1,33.54,0,45.91,45.91,0,0,0,33.17,0,46.49,46.49,0,0,1,33.54,0,45.94,45.94,0,0,0,33.18,0,41.43,41.43,0,0,1,16.77-3.13v.52a40.88,40.88,0,0,0-16.59,3.1A41.47,41.47,0,0,1,342,122.83Z" transform="translate(158.38 -1.44)"/><path class="cls-2" d="M342,116.08A41.43,41.43,0,0,1,325.18,113,46.08,46.08,0,0,0,292,113a46.46,46.46,0,0,1-33.53,0,46.08,46.08,0,0,0-33.18,0,46.46,46.46,0,0,1-33.53,0,41.12,41.12,0,0,0-16.59-3.09A41.12,41.12,0,0,0,158.58,113a41.42,41.42,0,0,1-16.76,3.13A41.43,41.43,0,0,1,125.05,113a41.12,41.12,0,0,0-16.59-3.09v-.52a41.43,41.43,0,0,1,16.77,3.13,41.08,41.08,0,0,0,16.59,3.09,41,41,0,0,0,16.58-3.09,41.47,41.47,0,0,1,16.77-3.13,41.43,41.43,0,0,1,16.77,3.13,46.05,46.05,0,0,0,33.17,0,46.49,46.49,0,0,1,33.54,0,46.05,46.05,0,0,0,33.17,0,46.49,46.49,0,0,1,33.54,0,46.08,46.08,0,0,0,33.18,0,41.43,41.43,0,0,1,16.77-3.13v.52A41.08,41.08,0,0,0,358.72,113,41.47,41.47,0,0,1,342,116.08Z" transform="translate(158.38 -1.44)"/><path class="cls-2" d="M342,109.34a41.43,41.43,0,0,1-16.77-3.13,45.94,45.94,0,0,0-33.18,0,46.46,46.46,0,0,1-33.53,0,45.94,45.94,0,0,0-33.18,0,46.46,46.46,0,0,1-33.53,0,41.09,41.09,0,0,0-16.59-3.1,41.09,41.09,0,0,0-16.59,3.1,41.42,41.42,0,0,1-16.76,3.13,41.43,41.43,0,0,1-16.77-3.13,41.09,41.09,0,0,0-16.59-3.1v-.51a41.64,41.64,0,0,1,16.77,3.12,40.88,40.88,0,0,0,16.59,3.1,40.83,40.83,0,0,0,16.58-3.1,41.68,41.68,0,0,1,16.77-3.12,41.64,41.64,0,0,1,16.77,3.12,45.91,45.91,0,0,0,33.17,0,46.63,46.63,0,0,1,33.54,0,45.91,45.91,0,0,0,33.17,0,46.63,46.63,0,0,1,33.54,0,45.94,45.94,0,0,0,33.18,0,41.64,41.64,0,0,1,16.77-3.12v.51a41.05,41.05,0,0,0-16.59,3.1A41.47,41.47,0,0,1,342,109.34Z" transform="translate(158.38 -1.44)"/><rect class="cls-1" x="266.84" y="134.88" width="266.84" height="33.72"/><path class="cls-2" d="M342,170a41.43,41.43,0,0,1-16.77-3.13,46.08,46.08,0,0,0-33.18,0,46.46,46.46,0,0,1-33.53,0,46.08,46.08,0,0,0-33.18,0,46.46,46.46,0,0,1-33.53,0,41.12,41.12,0,0,0-16.59-3.09,41.12,41.12,0,0,0-16.59,3.09A41.42,41.42,0,0,1,141.82,170a41.43,41.43,0,0,1-16.77-3.13,41.12,41.12,0,0,0-16.59-3.09v-.52a41.43,41.43,0,0,1,16.77,3.13,41.08,41.08,0,0,0,16.59,3.09,41,41,0,0,0,16.58-3.09,41.47,41.47,0,0,1,16.77-3.13,41.43,41.43,0,0,1,16.77,3.13,46.05,46.05,0,0,0,33.17,0,46.49,46.49,0,0,1,33.54,0,46.05,46.05,0,0,0,33.17,0,46.49,46.49,0,0,1,33.54,0,46.08,46.08,0,0,0,33.18,0,41.43,41.43,0,0,1,16.77-3.13v.52a41.08,41.08,0,0,0-16.59,3.09A41.47,41.47,0,0,1,342,170Z" transform="translate(158.38 -1.44)"/><path class="cls-2" d="M342,163.29a41.43,41.43,0,0,1-16.77-3.13,45.94,45.94,0,0,0-33.18,0,46.46,46.46,0,0,1-33.53,0,45.94,45.94,0,0,0-33.18,0,46.46,46.46,0,0,1-33.53,0,41.09,41.09,0,0,0-16.59-3.1,41.09,41.09,0,0,0-16.59,3.1,41.42,41.42,0,0,1-16.76,3.13,41.43,41.43,0,0,1-16.77-3.13,41.09,41.09,0,0,0-16.59-3.1v-.51a41.64,41.64,0,0,1,16.77,3.12,40.88,40.88,0,0,0,16.59,3.1,40.83,40.83,0,0,0,16.58-3.1,41.68,41.68,0,0,1,16.77-3.12,41.64,41.64,0,0,1,16.77,3.12,45.91,45.91,0,0,0,33.17,0,46.63,46.63,0,0,1,33.54,0,45.91,45.91,0,0,0,33.17,0,46.63,46.63,0,0,1,33.54,0,45.94,45.94,0,0,0,33.18,0,41.64,41.64,0,0,1,16.77-3.12v.51a41.05,41.05,0,0,0-16.59,3.1A41.47,41.47,0,0,1,342,163.29Z" transform="translate(158.38 -1.44)"/><path class="cls-2" d="M342,156.55a41.61,41.61,0,0,1-16.77-3.13,45.94,45.94,0,0,0-33.18,0,46.46,46.46,0,0,1-33.53,0,45.94,45.94,0,0,0-33.18,0,46.46,46.46,0,0,1-33.53,0,40.92,40.92,0,0,0-16.59-3.1,40.92,40.92,0,0,0-16.59,3.1,41.59,41.59,0,0,1-16.76,3.13,41.61,41.61,0,0,1-16.77-3.13,40.92,40.92,0,0,0-16.59-3.1v-.52a41.43,41.43,0,0,1,16.77,3.13,41.05,41.05,0,0,0,16.59,3.1,41,41,0,0,0,16.58-3.1,41.47,41.47,0,0,1,16.77-3.13,41.43,41.43,0,0,1,16.77,3.13,45.91,45.91,0,0,0,33.17,0,46.49,46.49,0,0,1,33.54,0,45.91,45.91,0,0,0,33.17,0,46.49,46.49,0,0,1,33.54,0,45.94,45.94,0,0,0,33.18,0,41.43,41.43,0,0,1,16.77-3.13v.52a40.88,40.88,0,0,0-16.59,3.1A41.65,41.65,0,0,1,342,156.55Z" transform="translate(158.38 -1.44)"/><path class="cls-2" d="M342,149.8a41.43,41.43,0,0,1-16.77-3.13,46.08,46.08,0,0,0-33.18,0,46.46,46.46,0,0,1-33.53,0,46.08,46.08,0,0,0-33.18,0,46.46,46.46,0,0,1-33.53,0,41.12,41.12,0,0,0-16.59-3.09,41.12,41.12,0,0,0-16.59,3.09,41.42,41.42,0,0,1-16.76,3.13,41.43,41.43,0,0,1-16.77-3.13,41.12,41.12,0,0,0-16.59-3.09v-.52a41.43,41.43,0,0,1,16.77,3.13,41.08,41.08,0,0,0,16.59,3.09,41,41,0,0,0,16.58-3.09,41.47,41.47,0,0,1,16.77-3.13,41.43,41.43,0,0,1,16.77,3.13,46.05,46.05,0,0,0,33.17,0,46.49,46.49,0,0,1,33.54,0,46.05,46.05,0,0,0,33.17,0,46.49,46.49,0,0,1,33.54,0,46.08,46.08,0,0,0,33.18,0,41.43,41.43,0,0,1,16.77-3.13v.52a41.08,41.08,0,0,0-16.59,3.09A41.47,41.47,0,0,1,342,149.8Z" transform="translate(158.38 -1.44)"/><path class="cls-2" d="M342,143.06a41.43,41.43,0,0,1-16.77-3.13,45.94,45.94,0,0,0-33.18,0,46.46,46.46,0,0,1-33.53,0,45.94,45.94,0,0,0-33.18,0,46.46,46.46,0,0,1-33.53,0,41.09,41.09,0,0,0-16.59-3.1,41.09,41.09,0,0,0-16.59,3.1,41.42,41.42,0,0,1-16.76,3.13,41.43,41.43,0,0,1-16.77-3.13,41.09,41.09,0,0,0-16.59-3.1v-.52a41.43,41.43,0,0,1,16.77,3.13,40.88,40.88,0,0,0,16.59,3.1,40.83,40.83,0,0,0,16.58-3.1,41.47,41.47,0,0,1,16.77-3.13,41.43,41.43,0,0,1,16.77,3.13,45.91,45.91,0,0,0,33.17,0,46.49,46.49,0,0,1,33.54,0,45.91,45.91,0,0,0,33.17,0,46.49,46.49,0,0,1,33.54,0,45.94,45.94,0,0,0,33.18,0,41.43,41.43,0,0,1,16.77-3.13v.52a41.05,41.05,0,0,0-16.59,3.1A41.47,41.47,0,0,1,342,143.06Z" transform="translate(158.38 -1.44)"/><rect class="cls-1" x="266.84" y="168.59" width="266.84" height="33.72"/><path class="cls-2" d="M342,203.75a41.43,41.43,0,0,1-16.77-3.13,46.08,46.08,0,0,0-33.18,0,46.46,46.46,0,0,1-33.53,0,46.08,46.08,0,0,0-33.18,0,46.46,46.46,0,0,1-33.53,0,41.12,41.12,0,0,0-16.59-3.09,41.12,41.12,0,0,0-16.59,3.09,41.42,41.42,0,0,1-16.76,3.13,41.43,41.43,0,0,1-16.77-3.13,41.12,41.12,0,0,0-16.59-3.09V197a41.43,41.43,0,0,1,16.77,3.13,41.08,41.08,0,0,0,16.59,3.09,41,41,0,0,0,16.58-3.09A41.47,41.47,0,0,1,175.17,197a41.43,41.43,0,0,1,16.77,3.13,46.05,46.05,0,0,0,33.17,0,46.49,46.49,0,0,1,33.54,0,46.05,46.05,0,0,0,33.17,0,46.49,46.49,0,0,1,33.54,0,46.08,46.08,0,0,0,33.18,0A41.43,41.43,0,0,1,375.31,197v.52a41.08,41.08,0,0,0-16.59,3.09A41.47,41.47,0,0,1,342,203.75Z" transform="translate(158.38 -1.44)"/><path class="cls-2" d="M342,197a41.43,41.43,0,0,1-16.77-3.13,45.94,45.94,0,0,0-33.18,0,46.46,46.46,0,0,1-33.53,0,45.94,45.94,0,0,0-33.18,0,46.46,46.46,0,0,1-33.53,0,41.09,41.09,0,0,0-16.59-3.1,41.09,41.09,0,0,0-16.59,3.1A41.42,41.42,0,0,1,141.82,197a41.43,41.43,0,0,1-16.77-3.13,41.09,41.09,0,0,0-16.59-3.1v-.52a41.43,41.43,0,0,1,16.77,3.13,40.88,40.88,0,0,0,16.59,3.1,40.83,40.83,0,0,0,16.58-3.1,41.47,41.47,0,0,1,16.77-3.13,41.43,41.43,0,0,1,16.77,3.13,45.91,45.91,0,0,0,33.17,0,46.49,46.49,0,0,1,33.54,0,45.91,45.91,0,0,0,33.17,0,46.49,46.49,0,0,1,33.54,0,45.94,45.94,0,0,0,33.18,0,41.43,41.43,0,0,1,16.77-3.13v.52a41.05,41.05,0,0,0-16.59,3.1A41.47,41.47,0,0,1,342,197Z" transform="translate(158.38 -1.44)"/><path class="cls-2" d="M342,190.26a41.43,41.43,0,0,1-16.77-3.13,46.08,46.08,0,0,0-33.18,0,46.46,46.46,0,0,1-33.53,0,46.08,46.08,0,0,0-33.18,0,46.46,46.46,0,0,1-33.53,0A41.12,41.12,0,0,0,175.17,184a41.12,41.12,0,0,0-16.59,3.09,41.42,41.42,0,0,1-16.76,3.13,41.43,41.43,0,0,1-16.77-3.13A41.12,41.12,0,0,0,108.46,184v-.52a41.43,41.43,0,0,1,16.77,3.13,41.05,41.05,0,0,0,16.59,3.1,41,41,0,0,0,16.58-3.1,41.47,41.47,0,0,1,16.77-3.13,41.43,41.43,0,0,1,16.77,3.13,45.91,45.91,0,0,0,33.17,0,46.49,46.49,0,0,1,33.54,0,45.91,45.91,0,0,0,33.17,0,46.49,46.49,0,0,1,33.54,0,45.94,45.94,0,0,0,33.18,0,41.43,41.43,0,0,1,16.77-3.13V184a41.08,41.08,0,0,0-16.59,3.09A41.47,41.47,0,0,1,342,190.26Z" transform="translate(158.38 -1.44)"/><path class="cls-2" d="M342,183.52a41.43,41.43,0,0,1-16.77-3.13,45.94,45.94,0,0,0-33.18,0,46.46,46.46,0,0,1-33.53,0,45.94,45.94,0,0,0-33.18,0,46.46,46.46,0,0,1-33.53,0,41.09,41.09,0,0,0-16.59-3.1,41.09,41.09,0,0,0-16.59,3.1,41.42,41.42,0,0,1-16.76,3.13,41.43,41.43,0,0,1-16.77-3.13,41.09,41.09,0,0,0-16.59-3.1v-.51a41.43,41.43,0,0,1,16.77,3.13A41.08,41.08,0,0,0,141.82,183a41,41,0,0,0,16.58-3.09,41.47,41.47,0,0,1,16.77-3.13,41.43,41.43,0,0,1,16.77,3.13,46.05,46.05,0,0,0,33.17,0,46.49,46.49,0,0,1,33.54,0,46.05,46.05,0,0,0,33.17,0,46.49,46.49,0,0,1,33.54,0,46.08,46.08,0,0,0,33.18,0,41.43,41.43,0,0,1,16.77-3.13v.51a41.05,41.05,0,0,0-16.59,3.1A41.47,41.47,0,0,1,342,183.52Z" transform="translate(158.38 -1.44)"/><path class="cls-2" d="M342,176.78a41.43,41.43,0,0,1-16.77-3.13,45.94,45.94,0,0,0-33.18,0,46.46,46.46,0,0,1-33.53,0,45.94,45.94,0,0,0-33.18,0,46.46,46.46,0,0,1-33.53,0,40.92,40.92,0,0,0-16.59-3.1,40.92,40.92,0,0,0-16.59,3.1,41.42,41.42,0,0,1-16.76,3.13,41.43,41.43,0,0,1-16.77-3.13,40.92,40.92,0,0,0-16.59-3.1V170a41.43,41.43,0,0,1,16.77,3.13,41.05,41.05,0,0,0,16.59,3.1,41,41,0,0,0,16.58-3.1A41.47,41.47,0,0,1,175.17,170a41.43,41.43,0,0,1,16.77,3.13,45.91,45.91,0,0,0,33.17,0,46.49,46.49,0,0,1,33.54,0,45.91,45.91,0,0,0,33.17,0,46.49,46.49,0,0,1,33.54,0,45.94,45.94,0,0,0,33.18,0A41.43,41.43,0,0,1,375.31,170v.52a40.88,40.88,0,0,0-16.59,3.1A41.47,41.47,0,0,1,342,176.78Z" transform="translate(158.38 -1.44)"/><rect class="cls-1" width="266.84" height="33.72"/><path class="cls-2" d="M75.11,35.16A41.43,41.43,0,0,1,58.34,32a41.09,41.09,0,0,0-16.59-3.1A41.09,41.09,0,0,0,25.16,32,41.43,41.43,0,0,1,8.39,35.16,41.51,41.51,0,0,1-8.38,32,41,41,0,0,0-25,28.93,41.09,41.09,0,0,0-41.55,32a41.43,41.43,0,0,1-16.77,3.13A41.42,41.42,0,0,1-75.08,32a41.09,41.09,0,0,0-16.59-3.1A41.09,41.09,0,0,0-108.26,32,41.43,41.43,0,0,1-125,35.16,41.42,41.42,0,0,1-141.79,32a41.09,41.09,0,0,0-16.59-3.1v-.52a41.43,41.43,0,0,1,16.77,3.13A40.86,40.86,0,0,0-125,34.64a40.88,40.88,0,0,0,16.59-3.1,41.43,41.43,0,0,1,16.77-3.13A41.43,41.43,0,0,1-74.9,31.54a40.86,40.86,0,0,0,16.58,3.1,40.88,40.88,0,0,0,16.59-3.1A41.43,41.43,0,0,1-25,28.41,41.51,41.51,0,0,1-8.19,31.54a40.83,40.83,0,0,0,16.58,3.1A40.88,40.88,0,0,0,25,31.54a41.43,41.43,0,0,1,16.77-3.13,41.43,41.43,0,0,1,16.77,3.13,40.88,40.88,0,0,0,16.59,3.1,40.83,40.83,0,0,0,16.58-3.1,41.51,41.51,0,0,1,16.77-3.13v.52A41,41,0,0,0,91.88,32,41.51,41.51,0,0,1,75.11,35.16Z" transform="translate(158.38 -1.44)"/><path class="cls-2" d="M75.11,28.41a41.43,41.43,0,0,1-16.77-3.13,41.12,41.12,0,0,0-16.59-3.09,41.12,41.12,0,0,0-16.59,3.09A41.43,41.43,0,0,1,8.39,28.41,41.51,41.51,0,0,1-8.38,25.28,41,41,0,0,0-25,22.19a41.12,41.12,0,0,0-16.59,3.09,41.43,41.43,0,0,1-16.77,3.13,41.42,41.42,0,0,1-16.76-3.13,41.12,41.12,0,0,0-16.59-3.09,41.12,41.12,0,0,0-16.59,3.09A41.43,41.43,0,0,1-125,28.41a41.42,41.42,0,0,1-16.76-3.13,41.12,41.12,0,0,0-16.59-3.09v-.52a41.43,41.43,0,0,1,16.77,3.13A41,41,0,0,0-125,27.9a41.05,41.05,0,0,0,16.59-3.1,41.43,41.43,0,0,1,16.77-3.13A41.43,41.43,0,0,1-74.9,24.8a41,41,0,0,0,16.58,3.1,41.05,41.05,0,0,0,16.59-3.1A41.43,41.43,0,0,1-25,21.67,41.51,41.51,0,0,1-8.19,24.8,41,41,0,0,0,8.39,27.9,41.05,41.05,0,0,0,25,24.8a41.43,41.43,0,0,1,16.77-3.13A41.43,41.43,0,0,1,58.52,24.8a41.05,41.05,0,0,0,16.59,3.1,41,41,0,0,0,16.58-3.1,41.51,41.51,0,0,1,16.77-3.13v.52a41,41,0,0,0-16.58,3.09A41.51,41.51,0,0,1,75.11,28.41Z" transform="translate(158.38 -1.44)"/><path class="cls-2" d="M75.11,21.67a41.43,41.43,0,0,1-16.77-3.13,41.09,41.09,0,0,0-16.59-3.1,41.09,41.09,0,0,0-16.59,3.1A41.43,41.43,0,0,1,8.39,21.67,41.51,41.51,0,0,1-8.38,18.54,41,41,0,0,0-25,15.44a41.09,41.09,0,0,0-16.59,3.1,41.43,41.43,0,0,1-16.77,3.13,41.42,41.42,0,0,1-16.76-3.13,41.09,41.09,0,0,0-16.59-3.1,41.09,41.09,0,0,0-16.59,3.1A41.43,41.43,0,0,1-125,21.67a41.42,41.42,0,0,1-16.76-3.13,41.09,41.09,0,0,0-16.59-3.1v-.51a41.43,41.43,0,0,1,16.77,3.13A41.07,41.07,0,0,0-125,21.15a41.08,41.08,0,0,0,16.59-3.09,41.43,41.43,0,0,1,16.77-3.13A41.43,41.43,0,0,1-74.9,18.06a41.07,41.07,0,0,0,16.58,3.09,41.08,41.08,0,0,0,16.59-3.09A41.43,41.43,0,0,1-25,14.93,41.51,41.51,0,0,1-8.19,18.06,41,41,0,0,0,8.39,21.15,41.08,41.08,0,0,0,25,18.06a41.43,41.43,0,0,1,16.77-3.13,41.43,41.43,0,0,1,16.77,3.13,41.08,41.08,0,0,0,16.59,3.09,41,41,0,0,0,16.58-3.09,41.51,41.51,0,0,1,16.77-3.13v.51a41,41,0,0,0-16.58,3.1A41.51,41.51,0,0,1,75.11,21.67Z" transform="translate(158.38 -1.44)"/><path class="cls-2" d="M75.11,14.93A41.43,41.43,0,0,1,58.34,11.8,40.92,40.92,0,0,0,41.75,8.7a40.92,40.92,0,0,0-16.59,3.1A41.43,41.43,0,0,1,8.39,14.93,41.51,41.51,0,0,1-8.38,11.8,40.83,40.83,0,0,0-25,8.7a40.92,40.92,0,0,0-16.59,3.1,41.43,41.43,0,0,1-16.77,3.13A41.42,41.42,0,0,1-75.08,11.8,40.92,40.92,0,0,0-91.67,8.7a40.92,40.92,0,0,0-16.59,3.1A41.43,41.43,0,0,1-125,14.93a41.42,41.42,0,0,1-16.76-3.13,40.92,40.92,0,0,0-16.59-3.1V8.18a41.43,41.43,0,0,1,16.77,3.13A41,41,0,0,0-125,14.41a41.05,41.05,0,0,0,16.59-3.1A41.43,41.43,0,0,1-91.67,8.18,41.43,41.43,0,0,1-74.9,11.31a41,41,0,0,0,16.58,3.1,41.05,41.05,0,0,0,16.59-3.1A41.43,41.43,0,0,1-25,8.18,41.51,41.51,0,0,1-8.19,11.31a41,41,0,0,0,16.58,3.1A41.05,41.05,0,0,0,25,11.31,41.43,41.43,0,0,1,41.75,8.18a41.43,41.43,0,0,1,16.77,3.13,41.05,41.05,0,0,0,16.59,3.1,41,41,0,0,0,16.58-3.1,41.51,41.51,0,0,1,16.77-3.13V8.7a40.83,40.83,0,0,0-16.58,3.1A41.51,41.51,0,0,1,75.11,14.93Z" transform="translate(158.38 -1.44)"/><path class="cls-2" d="M75.11,8.18A41.43,41.43,0,0,1,58.34,5.05,41.12,41.12,0,0,0,41.75,2,41.12,41.12,0,0,0,25.16,5.05,41.43,41.43,0,0,1,8.39,8.18,41.51,41.51,0,0,1-8.38,5.05,41,41,0,0,0-25,2,41.12,41.12,0,0,0-41.55,5.05,41.43,41.43,0,0,1-58.32,8.18,41.42,41.42,0,0,1-75.08,5.05,41.12,41.12,0,0,0-91.67,2a41.12,41.12,0,0,0-16.59,3.09A41.43,41.43,0,0,1-125,8.18a41.42,41.42,0,0,1-16.76-3.13A41.12,41.12,0,0,0-158.38,2V1.44a41.43,41.43,0,0,1,16.77,3.13A41.07,41.07,0,0,0-125,7.66a41.08,41.08,0,0,0,16.59-3.09A41.43,41.43,0,0,1-91.67,1.44,41.43,41.43,0,0,1-74.9,4.57,41.07,41.07,0,0,0-58.32,7.66,41.08,41.08,0,0,0-41.73,4.57,41.43,41.43,0,0,1-25,1.44,41.51,41.51,0,0,1-8.19,4.57,41,41,0,0,0,8.39,7.66,41.08,41.08,0,0,0,25,4.57,41.43,41.43,0,0,1,41.75,1.44,41.43,41.43,0,0,1,58.52,4.57,41.08,41.08,0,0,0,75.11,7.66,41,41,0,0,0,91.69,4.57a41.51,41.51,0,0,1,16.77-3.13V2A41,41,0,0,0,91.88,5.05,41.51,41.51,0,0,1,75.11,8.18Z" transform="translate(158.38 -1.44)"/><rect class="cls-1" y="33.72" width="266.84" height="33.72"/><path class="cls-2" d="M75.11,68.88a41.43,41.43,0,0,1-16.77-3.13,40.92,40.92,0,0,0-16.59-3.1,40.92,40.92,0,0,0-16.59,3.1A41.43,41.43,0,0,1,8.39,68.88,41.51,41.51,0,0,1-8.38,65.75,40.83,40.83,0,0,0-25,62.65a40.92,40.92,0,0,0-16.59,3.1,41.43,41.43,0,0,1-16.77,3.13,41.42,41.42,0,0,1-16.76-3.13,40.92,40.92,0,0,0-16.59-3.1,40.92,40.92,0,0,0-16.59,3.1A41.43,41.43,0,0,1-125,68.88a41.42,41.42,0,0,1-16.76-3.13,40.92,40.92,0,0,0-16.59-3.1v-.52a41.43,41.43,0,0,1,16.77,3.13A41,41,0,0,0-125,68.36a41.05,41.05,0,0,0,16.59-3.1,41.43,41.43,0,0,1,16.77-3.13A41.43,41.43,0,0,1-74.9,65.26a41,41,0,0,0,16.58,3.1,41.05,41.05,0,0,0,16.59-3.1A41.43,41.43,0,0,1-25,62.13,41.51,41.51,0,0,1-8.19,65.26a41,41,0,0,0,16.58,3.1A41.05,41.05,0,0,0,25,65.26a41.43,41.43,0,0,1,16.77-3.13,41.43,41.43,0,0,1,16.77,3.13,41.05,41.05,0,0,0,16.59,3.1,41,41,0,0,0,16.58-3.1,41.51,41.51,0,0,1,16.77-3.13v.52a40.83,40.83,0,0,0-16.58,3.1A41.51,41.51,0,0,1,75.11,68.88Z" transform="translate(158.38 -1.44)"/><path class="cls-2" d="M75.11,62.13A41.43,41.43,0,0,1,58.34,59a41.12,41.12,0,0,0-16.59-3.09A41.12,41.12,0,0,0,25.16,59,41.43,41.43,0,0,1,8.39,62.13,41.51,41.51,0,0,1-8.38,59,41,41,0,0,0-25,55.91,41.12,41.12,0,0,0-41.55,59a41.43,41.43,0,0,1-16.77,3.13A41.42,41.42,0,0,1-75.08,59a41.12,41.12,0,0,0-16.59-3.09A41.12,41.12,0,0,0-108.26,59,41.43,41.43,0,0,1-125,62.13,41.42,41.42,0,0,1-141.79,59a41.12,41.12,0,0,0-16.59-3.09v-.52a41.43,41.43,0,0,1,16.77,3.13A41.07,41.07,0,0,0-125,61.61a41.08,41.08,0,0,0,16.59-3.09,41.43,41.43,0,0,1,16.77-3.13A41.43,41.43,0,0,1-74.9,58.52a41.07,41.07,0,0,0,16.58,3.09,41.08,41.08,0,0,0,16.59-3.09A41.43,41.43,0,0,1-25,55.39,41.51,41.51,0,0,1-8.19,58.52,41,41,0,0,0,8.39,61.61,41.08,41.08,0,0,0,25,58.52a41.43,41.43,0,0,1,16.77-3.13,41.43,41.43,0,0,1,16.77,3.13,41.08,41.08,0,0,0,16.59,3.09,41,41,0,0,0,16.58-3.09,41.51,41.51,0,0,1,16.77-3.13v.52A41,41,0,0,0,91.88,59,41.51,41.51,0,0,1,75.11,62.13Z" transform="translate(158.38 -1.44)"/><path class="cls-2" d="M75.11,55.39a41.43,41.43,0,0,1-16.77-3.13,41.09,41.09,0,0,0-16.59-3.1,41.09,41.09,0,0,0-16.59,3.1A41.43,41.43,0,0,1,8.39,55.39,41.51,41.51,0,0,1-8.38,52.26,41,41,0,0,0-25,49.16a41.09,41.09,0,0,0-16.59,3.1,41.43,41.43,0,0,1-16.77,3.13,41.42,41.42,0,0,1-16.76-3.13,41.09,41.09,0,0,0-16.59-3.1,41.09,41.09,0,0,0-16.59,3.1A41.43,41.43,0,0,1-125,55.39a41.42,41.42,0,0,1-16.76-3.13,41.09,41.09,0,0,0-16.59-3.1v-.52a41.61,41.61,0,0,1,16.77,3.13A40.86,40.86,0,0,0-125,54.87a40.88,40.88,0,0,0,16.59-3.1,41.61,41.61,0,0,1,16.77-3.13A41.61,41.61,0,0,1-74.9,51.77a40.86,40.86,0,0,0,16.58,3.1,40.88,40.88,0,0,0,16.59-3.1A41.61,41.61,0,0,1-25,48.64,41.68,41.68,0,0,1-8.19,51.77a40.83,40.83,0,0,0,16.58,3.1A40.88,40.88,0,0,0,25,51.77a41.61,41.61,0,0,1,16.77-3.13,41.61,41.61,0,0,1,16.77,3.13,40.88,40.88,0,0,0,16.59,3.1,40.83,40.83,0,0,0,16.58-3.1,41.68,41.68,0,0,1,16.77-3.13v.52a41,41,0,0,0-16.58,3.1A41.51,41.51,0,0,1,75.11,55.39Z" transform="translate(158.38 -1.44)"/><path class="cls-2" d="M75.11,48.64a41.64,41.64,0,0,1-16.77-3.12,40.92,40.92,0,0,0-16.59-3.1,40.92,40.92,0,0,0-16.59,3.1A41.64,41.64,0,0,1,8.39,48.64,41.71,41.71,0,0,1-8.38,45.52,40.83,40.83,0,0,0-25,42.42a40.92,40.92,0,0,0-16.59,3.1,41.64,41.64,0,0,1-16.77,3.12,41.62,41.62,0,0,1-16.76-3.12,40.92,40.92,0,0,0-16.59-3.1,40.92,40.92,0,0,0-16.59,3.1A41.64,41.64,0,0,1-125,48.64a41.62,41.62,0,0,1-16.76-3.12,40.92,40.92,0,0,0-16.59-3.1V41.9A41.43,41.43,0,0,1-141.61,45,41,41,0,0,0-125,48.13,41.05,41.05,0,0,0-108.44,45,41.43,41.43,0,0,1-91.67,41.9,41.43,41.43,0,0,1-74.9,45a41,41,0,0,0,16.58,3.1A41.05,41.05,0,0,0-41.73,45,41.43,41.43,0,0,1-25,41.9,41.51,41.51,0,0,1-8.19,45a41,41,0,0,0,16.58,3.1A41.05,41.05,0,0,0,25,45,41.43,41.43,0,0,1,41.75,41.9,41.43,41.43,0,0,1,58.52,45a41.05,41.05,0,0,0,16.59,3.1A41,41,0,0,0,91.69,45a41.51,41.51,0,0,1,16.77-3.13v.52a40.83,40.83,0,0,0-16.58,3.1A41.71,41.71,0,0,1,75.11,48.64Z" transform="translate(158.38 -1.44)"/><path class="cls-2" d="M75.11,41.9a41.43,41.43,0,0,1-16.77-3.13,41.12,41.12,0,0,0-16.59-3.09,41.12,41.12,0,0,0-16.59,3.09A41.43,41.43,0,0,1,8.39,41.9,41.51,41.51,0,0,1-8.38,38.77,41,41,0,0,0-25,35.68a41.12,41.12,0,0,0-16.59,3.09A41.43,41.43,0,0,1-58.32,41.9a41.42,41.42,0,0,1-16.76-3.13,41.12,41.12,0,0,0-16.59-3.09,41.12,41.12,0,0,0-16.59,3.09A41.43,41.43,0,0,1-125,41.9a41.42,41.42,0,0,1-16.76-3.13,41.12,41.12,0,0,0-16.59-3.09v-.52a41.43,41.43,0,0,1,16.77,3.13A41.07,41.07,0,0,0-125,41.38a41.08,41.08,0,0,0,16.59-3.09,41.43,41.43,0,0,1,16.77-3.13A41.43,41.43,0,0,1-74.9,38.29a41.07,41.07,0,0,0,16.58,3.09,41.08,41.08,0,0,0,16.59-3.09A41.43,41.43,0,0,1-25,35.16,41.51,41.51,0,0,1-8.19,38.29,41,41,0,0,0,8.39,41.38,41.08,41.08,0,0,0,25,38.29a41.43,41.43,0,0,1,16.77-3.13,41.43,41.43,0,0,1,16.77,3.13,41.08,41.08,0,0,0,16.59,3.09,41,41,0,0,0,16.58-3.09,41.51,41.51,0,0,1,16.77-3.13v.52a41,41,0,0,0-16.58,3.09A41.51,41.51,0,0,1,75.11,41.9Z" transform="translate(158.38 -1.44)"/><rect class="cls-1" y="67.44" width="266.84" height="33.72"/><path class="cls-2" d="M75.11,102.6a41.61,41.61,0,0,1-16.77-3.13,40.92,40.92,0,0,0-16.59-3.1,40.92,40.92,0,0,0-16.59,3.1A41.61,41.61,0,0,1,8.39,102.6,41.68,41.68,0,0,1-8.38,99.47,40.83,40.83,0,0,0-25,96.37a40.92,40.92,0,0,0-16.59,3.1,41.61,41.61,0,0,1-16.77,3.13,41.59,41.59,0,0,1-16.76-3.13,40.92,40.92,0,0,0-16.59-3.1,40.92,40.92,0,0,0-16.59,3.1A41.61,41.61,0,0,1-125,102.6a41.59,41.59,0,0,1-16.76-3.13,40.92,40.92,0,0,0-16.59-3.1v-.52A41.43,41.43,0,0,1-141.61,99a41,41,0,0,0,16.58,3.1A41.05,41.05,0,0,0-108.44,99a41.43,41.43,0,0,1,16.77-3.13A41.43,41.43,0,0,1-74.9,99a41,41,0,0,0,16.58,3.1A41.05,41.05,0,0,0-41.73,99,41.43,41.43,0,0,1-25,95.85,41.51,41.51,0,0,1-8.19,99a41,41,0,0,0,16.58,3.1A41.05,41.05,0,0,0,25,99a41.43,41.43,0,0,1,16.77-3.13A41.43,41.43,0,0,1,58.52,99a41.05,41.05,0,0,0,16.59,3.1A41,41,0,0,0,91.69,99a41.51,41.51,0,0,1,16.77-3.13v.52a40.83,40.83,0,0,0-16.58,3.1A41.68,41.68,0,0,1,75.11,102.6Z" transform="translate(158.38 -1.44)"/><path class="cls-2" d="M75.11,95.85a41.43,41.43,0,0,1-16.77-3.13,41.12,41.12,0,0,0-16.59-3.09,41.12,41.12,0,0,0-16.59,3.09A41.43,41.43,0,0,1,8.39,95.85,41.51,41.51,0,0,1-8.38,92.72,41,41,0,0,0-25,89.63a41.12,41.12,0,0,0-16.59,3.09,41.43,41.43,0,0,1-16.77,3.13,41.42,41.42,0,0,1-16.76-3.13,41.12,41.12,0,0,0-16.59-3.09,41.12,41.12,0,0,0-16.59,3.09A41.43,41.43,0,0,1-125,95.85a41.42,41.42,0,0,1-16.76-3.13,41.12,41.12,0,0,0-16.59-3.09v-.52a41.43,41.43,0,0,1,16.77,3.13A41.07,41.07,0,0,0-125,95.33a41.08,41.08,0,0,0,16.59-3.09,41.43,41.43,0,0,1,16.77-3.13A41.43,41.43,0,0,1-74.9,92.24a41.07,41.07,0,0,0,16.58,3.09,41.08,41.08,0,0,0,16.59-3.09A41.43,41.43,0,0,1-25,89.11,41.51,41.51,0,0,1-8.19,92.24,41,41,0,0,0,8.39,95.33,41.08,41.08,0,0,0,25,92.24a41.43,41.43,0,0,1,16.77-3.13,41.43,41.43,0,0,1,16.77,3.13,41.08,41.08,0,0,0,16.59,3.09,41,41,0,0,0,16.58-3.09,41.51,41.51,0,0,1,16.77-3.13v.52a41,41,0,0,0-16.58,3.09A41.51,41.51,0,0,1,75.11,95.85Z" transform="translate(158.38 -1.44)"/><path class="cls-2" d="M75.11,89.11A41.43,41.43,0,0,1,58.34,86a41.09,41.09,0,0,0-16.59-3.1A41.09,41.09,0,0,0,25.16,86,41.43,41.43,0,0,1,8.39,89.11,41.51,41.51,0,0,1-8.38,86,41,41,0,0,0-25,82.88,41.09,41.09,0,0,0-41.55,86a41.43,41.43,0,0,1-16.77,3.13A41.42,41.42,0,0,1-75.08,86a41.09,41.09,0,0,0-16.59-3.1A41.09,41.09,0,0,0-108.26,86,41.43,41.43,0,0,1-125,89.11,41.42,41.42,0,0,1-141.79,86a41.09,41.09,0,0,0-16.59-3.1v-.52a41.43,41.43,0,0,1,16.77,3.13A40.86,40.86,0,0,0-125,88.59a40.88,40.88,0,0,0,16.59-3.1,41.43,41.43,0,0,1,16.77-3.13A41.43,41.43,0,0,1-74.9,85.49a40.86,40.86,0,0,0,16.58,3.1,40.88,40.88,0,0,0,16.59-3.1A41.43,41.43,0,0,1-25,82.36,41.51,41.51,0,0,1-8.19,85.49a40.83,40.83,0,0,0,16.58,3.1A40.88,40.88,0,0,0,25,85.49a41.43,41.43,0,0,1,16.77-3.13,41.43,41.43,0,0,1,16.77,3.13,40.88,40.88,0,0,0,16.59,3.1,40.83,40.83,0,0,0,16.58-3.1,41.51,41.51,0,0,1,16.77-3.13v.52A41,41,0,0,0,91.88,86,41.51,41.51,0,0,1,75.11,89.11Z" transform="translate(158.38 -1.44)"/><path class="cls-2" d="M75.11,82.36a41.43,41.43,0,0,1-16.77-3.13,41.12,41.12,0,0,0-16.59-3.09,41.12,41.12,0,0,0-16.59,3.09A41.43,41.43,0,0,1,8.39,82.36,41.51,41.51,0,0,1-8.38,79.23,41,41,0,0,0-25,76.14a41.12,41.12,0,0,0-16.59,3.09,41.43,41.43,0,0,1-16.77,3.13,41.42,41.42,0,0,1-16.76-3.13,41.12,41.12,0,0,0-16.59-3.09,41.12,41.12,0,0,0-16.59,3.09A41.43,41.43,0,0,1-125,82.36a41.42,41.42,0,0,1-16.76-3.13,41.12,41.12,0,0,0-16.59-3.09v-.52a41.43,41.43,0,0,1,16.77,3.13A41,41,0,0,0-125,81.85a41.05,41.05,0,0,0,16.59-3.1,41.43,41.43,0,0,1,16.77-3.13A41.43,41.43,0,0,1-74.9,78.75a41,41,0,0,0,16.58,3.1,41.05,41.05,0,0,0,16.59-3.1A41.43,41.43,0,0,1-25,75.62,41.51,41.51,0,0,1-8.19,78.75a41,41,0,0,0,16.58,3.1A41.05,41.05,0,0,0,25,78.75a41.43,41.43,0,0,1,16.77-3.13,41.43,41.43,0,0,1,16.77,3.13,41.05,41.05,0,0,0,16.59,3.1,41,41,0,0,0,16.58-3.1,41.51,41.51,0,0,1,16.77-3.13v.52a41,41,0,0,0-16.58,3.09A41.51,41.51,0,0,1,75.11,82.36Z" transform="translate(158.38 -1.44)"/><path class="cls-2" d="M75.11,75.62a41.43,41.43,0,0,1-16.77-3.13,41.09,41.09,0,0,0-16.59-3.1,41.09,41.09,0,0,0-16.59,3.1A41.43,41.43,0,0,1,8.39,75.62,41.51,41.51,0,0,1-8.38,72.49,41,41,0,0,0-25,69.39a41.09,41.09,0,0,0-16.59,3.1,41.43,41.43,0,0,1-16.77,3.13,41.42,41.42,0,0,1-16.76-3.13,41.09,41.09,0,0,0-16.59-3.1,41.09,41.09,0,0,0-16.59,3.1A41.43,41.43,0,0,1-125,75.62a41.42,41.42,0,0,1-16.76-3.13,41.09,41.09,0,0,0-16.59-3.1v-.51A41.43,41.43,0,0,1-141.61,72,41.07,41.07,0,0,0-125,75.1,41.08,41.08,0,0,0-108.44,72a41.43,41.43,0,0,1,16.77-3.13A41.43,41.43,0,0,1-74.9,72,41.07,41.07,0,0,0-58.32,75.1,41.08,41.08,0,0,0-41.73,72,41.43,41.43,0,0,1-25,68.88,41.51,41.51,0,0,1-8.19,72,41,41,0,0,0,8.39,75.1,41.08,41.08,0,0,0,25,72a41.43,41.43,0,0,1,16.77-3.13A41.43,41.43,0,0,1,58.52,72,41.08,41.08,0,0,0,75.11,75.1,41,41,0,0,0,91.69,72a41.51,41.51,0,0,1,16.77-3.13v.51a41,41,0,0,0-16.58,3.1A41.51,41.51,0,0,1,75.11,75.62Z" transform="translate(158.38 -1.44)"/><rect class="cls-1" y="101.16" width="266.84" height="33.72"/><path class="cls-2" d="M75.11,136.31a41.43,41.43,0,0,1-16.77-3.13,41.12,41.12,0,0,0-16.59-3.09,41.12,41.12,0,0,0-16.59,3.09,41.43,41.43,0,0,1-16.77,3.13,41.51,41.51,0,0,1-16.77-3.13A41,41,0,0,0-25,130.09a41.12,41.12,0,0,0-16.59,3.09,41.43,41.43,0,0,1-16.77,3.13,41.42,41.42,0,0,1-16.76-3.13,41.12,41.12,0,0,0-16.59-3.09,41.12,41.12,0,0,0-16.59,3.09A41.43,41.43,0,0,1-125,136.31a41.42,41.42,0,0,1-16.76-3.13,41.12,41.12,0,0,0-16.59-3.09v-.52a41.43,41.43,0,0,1,16.77,3.13A41,41,0,0,0-125,135.8a41.05,41.05,0,0,0,16.59-3.1,41.43,41.43,0,0,1,16.77-3.13A41.43,41.43,0,0,1-74.9,132.7a41,41,0,0,0,16.58,3.1,41.05,41.05,0,0,0,16.59-3.1A41.43,41.43,0,0,1-25,129.57,41.51,41.51,0,0,1-8.19,132.7a41,41,0,0,0,16.58,3.1A41.05,41.05,0,0,0,25,132.7a41.43,41.43,0,0,1,16.77-3.13,41.43,41.43,0,0,1,16.77,3.13,41.05,41.05,0,0,0,16.59,3.1,41,41,0,0,0,16.58-3.1,41.51,41.51,0,0,1,16.77-3.13v.52a41,41,0,0,0-16.58,3.09A41.51,41.51,0,0,1,75.11,136.31Z" transform="translate(158.38 -1.44)"/><path class="cls-2" d="M75.11,129.57a41.43,41.43,0,0,1-16.77-3.13,41.09,41.09,0,0,0-16.59-3.1,41.09,41.09,0,0,0-16.59,3.1,41.43,41.43,0,0,1-16.77,3.13,41.51,41.51,0,0,1-16.77-3.13A41,41,0,0,0-25,123.34a41.09,41.09,0,0,0-16.59,3.1,41.43,41.43,0,0,1-16.77,3.13,41.42,41.42,0,0,1-16.76-3.13,41.09,41.09,0,0,0-16.59-3.1,41.09,41.09,0,0,0-16.59,3.1A41.43,41.43,0,0,1-125,129.57a41.42,41.42,0,0,1-16.76-3.13,41.09,41.09,0,0,0-16.59-3.1v-.51A41.43,41.43,0,0,1-141.61,126,41.07,41.07,0,0,0-125,129.05,41.08,41.08,0,0,0-108.44,126a41.43,41.43,0,0,1,16.77-3.13A41.43,41.43,0,0,1-74.9,126a41.07,41.07,0,0,0,16.58,3.09A41.08,41.08,0,0,0-41.73,126,41.43,41.43,0,0,1-25,122.83,41.51,41.51,0,0,1-8.19,126a41,41,0,0,0,16.58,3.09A41.08,41.08,0,0,0,25,126a41.43,41.43,0,0,1,16.77-3.13A41.43,41.43,0,0,1,58.52,126a41.08,41.08,0,0,0,16.59,3.09A41,41,0,0,0,91.69,126a41.51,41.51,0,0,1,16.77-3.13v.51a41,41,0,0,0-16.58,3.1A41.51,41.51,0,0,1,75.11,129.57Z" transform="translate(158.38 -1.44)"/><path class="cls-2" d="M75.11,122.83a41.43,41.43,0,0,1-16.77-3.13,40.92,40.92,0,0,0-16.59-3.1,40.92,40.92,0,0,0-16.59,3.1,41.43,41.43,0,0,1-16.77,3.13A41.51,41.51,0,0,1-8.38,119.7,40.83,40.83,0,0,0-25,116.6a40.92,40.92,0,0,0-16.59,3.1,41.43,41.43,0,0,1-16.77,3.13,41.42,41.42,0,0,1-16.76-3.13,40.92,40.92,0,0,0-16.59-3.1,40.92,40.92,0,0,0-16.59,3.1A41.43,41.43,0,0,1-125,122.83a41.42,41.42,0,0,1-16.76-3.13,40.92,40.92,0,0,0-16.59-3.1v-.52a41.43,41.43,0,0,1,16.77,3.13,41,41,0,0,0,16.58,3.1,41.05,41.05,0,0,0,16.59-3.1,41.43,41.43,0,0,1,16.77-3.13,41.43,41.43,0,0,1,16.77,3.13,41,41,0,0,0,16.58,3.1,41.05,41.05,0,0,0,16.59-3.1A41.43,41.43,0,0,1-25,116.08a41.51,41.51,0,0,1,16.77,3.13,41,41,0,0,0,16.58,3.1A41.05,41.05,0,0,0,25,119.21a41.43,41.43,0,0,1,16.77-3.13,41.43,41.43,0,0,1,16.77,3.13,41.05,41.05,0,0,0,16.59,3.1,41,41,0,0,0,16.58-3.1,41.51,41.51,0,0,1,16.77-3.13v.52a40.83,40.83,0,0,0-16.58,3.1A41.51,41.51,0,0,1,75.11,122.83Z" transform="translate(158.38 -1.44)"/><path class="cls-2" d="M75.11,116.08A41.43,41.43,0,0,1,58.34,113a41.12,41.12,0,0,0-16.59-3.09A41.12,41.12,0,0,0,25.16,113a41.43,41.43,0,0,1-16.77,3.13A41.51,41.51,0,0,1-8.38,113,41,41,0,0,0-25,109.86,41.12,41.12,0,0,0-41.55,113a41.43,41.43,0,0,1-16.77,3.13A41.42,41.42,0,0,1-75.08,113a41.12,41.12,0,0,0-16.59-3.09A41.12,41.12,0,0,0-108.26,113,41.43,41.43,0,0,1-125,116.08,41.42,41.42,0,0,1-141.79,113a41.12,41.12,0,0,0-16.59-3.09v-.52a41.43,41.43,0,0,1,16.77,3.13A41.07,41.07,0,0,0-125,115.56a41.08,41.08,0,0,0,16.59-3.09,41.43,41.43,0,0,1,16.77-3.13,41.43,41.43,0,0,1,16.77,3.13,41.07,41.07,0,0,0,16.58,3.09,41.08,41.08,0,0,0,16.59-3.09A41.43,41.43,0,0,1-25,109.34a41.51,41.51,0,0,1,16.77,3.13,41,41,0,0,0,16.58,3.09A41.08,41.08,0,0,0,25,112.47a41.43,41.43,0,0,1,16.77-3.13,41.43,41.43,0,0,1,16.77,3.13,41.08,41.08,0,0,0,16.59,3.09,41,41,0,0,0,16.58-3.09,41.51,41.51,0,0,1,16.77-3.13v.52A41,41,0,0,0,91.88,113,41.51,41.51,0,0,1,75.11,116.08Z" transform="translate(158.38 -1.44)"/><path class="cls-2" d="M75.11,109.34a41.43,41.43,0,0,1-16.77-3.13,41.09,41.09,0,0,0-16.59-3.1,41.09,41.09,0,0,0-16.59,3.1,41.43,41.43,0,0,1-16.77,3.13,41.51,41.51,0,0,1-16.77-3.13A41,41,0,0,0-25,103.11a41.09,41.09,0,0,0-16.59,3.1,41.43,41.43,0,0,1-16.77,3.13,41.42,41.42,0,0,1-16.76-3.13,41.09,41.09,0,0,0-16.59-3.1,41.09,41.09,0,0,0-16.59,3.1A41.43,41.43,0,0,1-125,109.34a41.42,41.42,0,0,1-16.76-3.13,41.09,41.09,0,0,0-16.59-3.1v-.51a41.64,41.64,0,0,1,16.77,3.12,40.86,40.86,0,0,0,16.58,3.1,40.88,40.88,0,0,0,16.59-3.1,41.64,41.64,0,0,1,16.77-3.12,41.64,41.64,0,0,1,16.77,3.12,40.86,40.86,0,0,0,16.58,3.1,40.88,40.88,0,0,0,16.59-3.1A41.64,41.64,0,0,1-25,102.6a41.71,41.71,0,0,1,16.77,3.12,40.83,40.83,0,0,0,16.58,3.1A40.88,40.88,0,0,0,25,105.72a41.64,41.64,0,0,1,16.77-3.12,41.64,41.64,0,0,1,16.77,3.12,40.88,40.88,0,0,0,16.59,3.1,40.83,40.83,0,0,0,16.58-3.1,41.71,41.71,0,0,1,16.77-3.12v.51a41,41,0,0,0-16.58,3.1A41.51,41.51,0,0,1,75.11,109.34Z" transform="translate(158.38 -1.44)"/><rect class="cls-1" y="134.88" width="266.84" height="33.72"/><path class="cls-2" d="M75.11,170a41.43,41.43,0,0,1-16.77-3.13,41.12,41.12,0,0,0-16.59-3.09,41.12,41.12,0,0,0-16.59,3.09A41.43,41.43,0,0,1,8.39,170,41.51,41.51,0,0,1-8.38,166.9,41,41,0,0,0-25,163.81a41.12,41.12,0,0,0-16.59,3.09A41.43,41.43,0,0,1-58.32,170a41.42,41.42,0,0,1-16.76-3.13,41.12,41.12,0,0,0-16.59-3.09,41.12,41.12,0,0,0-16.59,3.09A41.43,41.43,0,0,1-125,170a41.42,41.42,0,0,1-16.76-3.13,41.12,41.12,0,0,0-16.59-3.09v-.52a41.43,41.43,0,0,1,16.77,3.13A41.07,41.07,0,0,0-125,169.51a41.08,41.08,0,0,0,16.59-3.09,41.43,41.43,0,0,1,16.77-3.13,41.43,41.43,0,0,1,16.77,3.13,41.07,41.07,0,0,0,16.58,3.09,41.08,41.08,0,0,0,16.59-3.09A41.43,41.43,0,0,1-25,163.29a41.51,41.51,0,0,1,16.77,3.13,41,41,0,0,0,16.58,3.09A41.08,41.08,0,0,0,25,166.42a41.43,41.43,0,0,1,16.77-3.13,41.43,41.43,0,0,1,16.77,3.13,41.08,41.08,0,0,0,16.59,3.09,41,41,0,0,0,16.58-3.09,41.51,41.51,0,0,1,16.77-3.13v.52a41,41,0,0,0-16.58,3.09A41.51,41.51,0,0,1,75.11,170Z" transform="translate(158.38 -1.44)"/><path class="cls-2" d="M75.11,163.29a41.43,41.43,0,0,1-16.77-3.13,41.09,41.09,0,0,0-16.59-3.1,41.09,41.09,0,0,0-16.59,3.1,41.43,41.43,0,0,1-16.77,3.13,41.51,41.51,0,0,1-16.77-3.13A41,41,0,0,0-25,157.06a41.09,41.09,0,0,0-16.59,3.1,41.43,41.43,0,0,1-16.77,3.13,41.42,41.42,0,0,1-16.76-3.13,41.09,41.09,0,0,0-16.59-3.1,41.09,41.09,0,0,0-16.59,3.1A41.43,41.43,0,0,1-125,163.29a41.42,41.42,0,0,1-16.76-3.13,41.09,41.09,0,0,0-16.59-3.1v-.51a41.64,41.64,0,0,1,16.77,3.12,40.86,40.86,0,0,0,16.58,3.1,40.88,40.88,0,0,0,16.59-3.1,41.64,41.64,0,0,1,16.77-3.12,41.64,41.64,0,0,1,16.77,3.12,40.86,40.86,0,0,0,16.58,3.1,40.88,40.88,0,0,0,16.59-3.1A41.64,41.64,0,0,1-25,156.55a41.71,41.71,0,0,1,16.77,3.12,40.83,40.83,0,0,0,16.58,3.1A40.88,40.88,0,0,0,25,159.67a41.64,41.64,0,0,1,16.77-3.12,41.64,41.64,0,0,1,16.77,3.12,40.88,40.88,0,0,0,16.59,3.1,40.83,40.83,0,0,0,16.58-3.1,41.71,41.71,0,0,1,16.77-3.12v.51a41,41,0,0,0-16.58,3.1A41.51,41.51,0,0,1,75.11,163.29Z" transform="translate(158.38 -1.44)"/><path class="cls-2" d="M75.11,156.55a41.61,41.61,0,0,1-16.77-3.13,40.92,40.92,0,0,0-16.59-3.1,40.92,40.92,0,0,0-16.59,3.1,41.61,41.61,0,0,1-16.77,3.13,41.68,41.68,0,0,1-16.77-3.13A40.83,40.83,0,0,0-25,150.32a40.92,40.92,0,0,0-16.59,3.1,41.61,41.61,0,0,1-16.77,3.13,41.59,41.59,0,0,1-16.76-3.13,40.92,40.92,0,0,0-16.59-3.1,40.92,40.92,0,0,0-16.59,3.1A41.61,41.61,0,0,1-125,156.55a41.59,41.59,0,0,1-16.76-3.13,40.92,40.92,0,0,0-16.59-3.1v-.52a41.43,41.43,0,0,1,16.77,3.13A41,41,0,0,0-125,156a41.05,41.05,0,0,0,16.59-3.1,41.43,41.43,0,0,1,16.77-3.13,41.43,41.43,0,0,1,16.77,3.13A41,41,0,0,0-58.32,156a41.05,41.05,0,0,0,16.59-3.1A41.43,41.43,0,0,1-25,149.8a41.51,41.51,0,0,1,16.77,3.13A41,41,0,0,0,8.39,156,41.05,41.05,0,0,0,25,152.93a41.43,41.43,0,0,1,16.77-3.13,41.43,41.43,0,0,1,16.77,3.13A41.05,41.05,0,0,0,75.11,156a41,41,0,0,0,16.58-3.1,41.51,41.51,0,0,1,16.77-3.13v.52a40.83,40.83,0,0,0-16.58,3.1A41.68,41.68,0,0,1,75.11,156.55Z" transform="translate(158.38 -1.44)"/><path class="cls-2" d="M75.11,149.8a41.43,41.43,0,0,1-16.77-3.13,41.12,41.12,0,0,0-16.59-3.09,41.12,41.12,0,0,0-16.59,3.09A41.43,41.43,0,0,1,8.39,149.8a41.51,41.51,0,0,1-16.77-3.13A41,41,0,0,0-25,143.58a41.12,41.12,0,0,0-16.59,3.09,41.43,41.43,0,0,1-16.77,3.13,41.42,41.42,0,0,1-16.76-3.13,41.12,41.12,0,0,0-16.59-3.09,41.12,41.12,0,0,0-16.59,3.09A41.43,41.43,0,0,1-125,149.8a41.42,41.42,0,0,1-16.76-3.13,41.12,41.12,0,0,0-16.59-3.09v-.52a41.43,41.43,0,0,1,16.77,3.13A41.07,41.07,0,0,0-125,149.28a41.08,41.08,0,0,0,16.59-3.09,41.43,41.43,0,0,1,16.77-3.13,41.43,41.43,0,0,1,16.77,3.13,41.07,41.07,0,0,0,16.58,3.09,41.08,41.08,0,0,0,16.59-3.09A41.43,41.43,0,0,1-25,143.06a41.51,41.51,0,0,1,16.77,3.13,41,41,0,0,0,16.58,3.09A41.08,41.08,0,0,0,25,146.19a41.43,41.43,0,0,1,16.77-3.13,41.43,41.43,0,0,1,16.77,3.13,41.08,41.08,0,0,0,16.59,3.09,41,41,0,0,0,16.58-3.09,41.51,41.51,0,0,1,16.77-3.13v.52a41,41,0,0,0-16.58,3.09A41.51,41.51,0,0,1,75.11,149.8Z" transform="translate(158.38 -1.44)"/><path class="cls-2" d="M75.11,143.06a41.43,41.43,0,0,1-16.77-3.13,41.09,41.09,0,0,0-16.59-3.1,41.09,41.09,0,0,0-16.59,3.1,41.43,41.43,0,0,1-16.77,3.13,41.51,41.51,0,0,1-16.77-3.13A41,41,0,0,0-25,136.83a41.09,41.09,0,0,0-16.59,3.1,41.43,41.43,0,0,1-16.77,3.13,41.42,41.42,0,0,1-16.76-3.13,41.09,41.09,0,0,0-16.59-3.1,41.09,41.09,0,0,0-16.59,3.1A41.43,41.43,0,0,1-125,143.06a41.42,41.42,0,0,1-16.76-3.13,41.09,41.09,0,0,0-16.59-3.1v-.52a41.43,41.43,0,0,1,16.77,3.13,40.86,40.86,0,0,0,16.58,3.1,40.88,40.88,0,0,0,16.59-3.1,41.43,41.43,0,0,1,16.77-3.13,41.43,41.43,0,0,1,16.77,3.13,40.86,40.86,0,0,0,16.58,3.1,40.88,40.88,0,0,0,16.59-3.1A41.43,41.43,0,0,1-25,136.31a41.51,41.51,0,0,1,16.77,3.13,40.83,40.83,0,0,0,16.58,3.1A40.88,40.88,0,0,0,25,139.44a41.43,41.43,0,0,1,16.77-3.13,41.43,41.43,0,0,1,16.77,3.13,40.88,40.88,0,0,0,16.59,3.1,40.83,40.83,0,0,0,16.58-3.1,41.51,41.51,0,0,1,16.77-3.13v.52a41,41,0,0,0-16.58,3.1A41.51,41.51,0,0,1,75.11,143.06Z" transform="translate(158.38 -1.44)"/><rect class="cls-1" y="168.59" width="266.84" height="33.72"/><path class="cls-2" d="M75.11,203.75a41.43,41.43,0,0,1-16.77-3.13,41.12,41.12,0,0,0-16.59-3.09,41.12,41.12,0,0,0-16.59,3.09,41.43,41.43,0,0,1-16.77,3.13,41.51,41.51,0,0,1-16.77-3.13A41,41,0,0,0-25,197.53a41.12,41.12,0,0,0-16.59,3.09,41.43,41.43,0,0,1-16.77,3.13,41.42,41.42,0,0,1-16.76-3.13,41.12,41.12,0,0,0-16.59-3.09,41.12,41.12,0,0,0-16.59,3.09A41.43,41.43,0,0,1-125,203.75a41.42,41.42,0,0,1-16.76-3.13,41.12,41.12,0,0,0-16.59-3.09V197a41.43,41.43,0,0,1,16.77,3.13A41.07,41.07,0,0,0-125,203.23a41.08,41.08,0,0,0,16.59-3.09A41.43,41.43,0,0,1-91.67,197a41.43,41.43,0,0,1,16.77,3.13,41.07,41.07,0,0,0,16.58,3.09,41.08,41.08,0,0,0,16.59-3.09A41.43,41.43,0,0,1-25,197a41.51,41.51,0,0,1,16.77,3.13,41,41,0,0,0,16.58,3.09A41.08,41.08,0,0,0,25,200.14,41.43,41.43,0,0,1,41.75,197a41.43,41.43,0,0,1,16.77,3.13,41.08,41.08,0,0,0,16.59,3.09,41,41,0,0,0,16.58-3.09A41.51,41.51,0,0,1,108.46,197v.52a41,41,0,0,0-16.58,3.09A41.51,41.51,0,0,1,75.11,203.75Z" transform="translate(158.38 -1.44)"/><path class="cls-2" d="M75.11,197a41.43,41.43,0,0,1-16.77-3.13,41.09,41.09,0,0,0-16.59-3.1,41.09,41.09,0,0,0-16.59,3.1A41.43,41.43,0,0,1,8.39,197a41.51,41.51,0,0,1-16.77-3.13A41,41,0,0,0-25,190.78a41.09,41.09,0,0,0-16.59,3.1A41.43,41.43,0,0,1-58.32,197a41.42,41.42,0,0,1-16.76-3.13,41.09,41.09,0,0,0-16.59-3.1,41.09,41.09,0,0,0-16.59,3.1A41.43,41.43,0,0,1-125,197a41.42,41.42,0,0,1-16.76-3.13,41.09,41.09,0,0,0-16.59-3.1v-.52a41.43,41.43,0,0,1,16.77,3.13,40.86,40.86,0,0,0,16.58,3.1,40.88,40.88,0,0,0,16.59-3.1,41.43,41.43,0,0,1,16.77-3.13,41.43,41.43,0,0,1,16.77,3.13,40.86,40.86,0,0,0,16.58,3.1,40.88,40.88,0,0,0,16.59-3.1A41.43,41.43,0,0,1-25,190.26a41.51,41.51,0,0,1,16.77,3.13,40.83,40.83,0,0,0,16.58,3.1A40.88,40.88,0,0,0,25,193.39a41.43,41.43,0,0,1,16.77-3.13,41.43,41.43,0,0,1,16.77,3.13,40.88,40.88,0,0,0,16.59,3.1,40.83,40.83,0,0,0,16.58-3.1,41.51,41.51,0,0,1,16.77-3.13v.52a41,41,0,0,0-16.58,3.1A41.51,41.51,0,0,1,75.11,197Z" transform="translate(158.38 -1.44)"/><path class="cls-2" d="M75.11,190.26a41.43,41.43,0,0,1-16.77-3.13A41.12,41.12,0,0,0,41.75,184a41.12,41.12,0,0,0-16.59,3.09,41.43,41.43,0,0,1-16.77,3.13,41.51,41.51,0,0,1-16.77-3.13A41,41,0,0,0-25,184a41.12,41.12,0,0,0-16.59,3.09,41.43,41.43,0,0,1-16.77,3.13,41.42,41.42,0,0,1-16.76-3.13A41.12,41.12,0,0,0-91.67,184a41.12,41.12,0,0,0-16.59,3.09A41.43,41.43,0,0,1-125,190.26a41.42,41.42,0,0,1-16.76-3.13A41.12,41.12,0,0,0-158.38,184v-.52a41.43,41.43,0,0,1,16.77,3.13,41,41,0,0,0,16.58,3.1,41.05,41.05,0,0,0,16.59-3.1,41.43,41.43,0,0,1,16.77-3.13,41.43,41.43,0,0,1,16.77,3.13,41,41,0,0,0,16.58,3.1,41.05,41.05,0,0,0,16.59-3.1A41.43,41.43,0,0,1-25,183.52a41.51,41.51,0,0,1,16.77,3.13,41,41,0,0,0,16.58,3.1A41.05,41.05,0,0,0,25,186.65a41.43,41.43,0,0,1,16.77-3.13,41.43,41.43,0,0,1,16.77,3.13,41.05,41.05,0,0,0,16.59,3.1,41,41,0,0,0,16.58-3.1,41.51,41.51,0,0,1,16.77-3.13V184a41,41,0,0,0-16.58,3.09A41.51,41.51,0,0,1,75.11,190.26Z" transform="translate(158.38 -1.44)"/><path class="cls-2" d="M75.11,183.52a41.43,41.43,0,0,1-16.77-3.13,41.09,41.09,0,0,0-16.59-3.1,41.09,41.09,0,0,0-16.59,3.1,41.43,41.43,0,0,1-16.77,3.13,41.51,41.51,0,0,1-16.77-3.13A41,41,0,0,0-25,177.29a41.09,41.09,0,0,0-16.59,3.1,41.43,41.43,0,0,1-16.77,3.13,41.42,41.42,0,0,1-16.76-3.13,41.09,41.09,0,0,0-16.59-3.1,41.09,41.09,0,0,0-16.59,3.1A41.43,41.43,0,0,1-125,183.52a41.42,41.42,0,0,1-16.76-3.13,41.09,41.09,0,0,0-16.59-3.1v-.51a41.43,41.43,0,0,1,16.77,3.13A41.07,41.07,0,0,0-125,183a41.08,41.08,0,0,0,16.59-3.09,41.43,41.43,0,0,1,16.77-3.13,41.43,41.43,0,0,1,16.77,3.13A41.07,41.07,0,0,0-58.32,183a41.08,41.08,0,0,0,16.59-3.09A41.43,41.43,0,0,1-25,176.78a41.51,41.51,0,0,1,16.77,3.13A41,41,0,0,0,8.39,183,41.08,41.08,0,0,0,25,179.91a41.43,41.43,0,0,1,16.77-3.13,41.43,41.43,0,0,1,16.77,3.13A41.08,41.08,0,0,0,75.11,183a41,41,0,0,0,16.58-3.09,41.51,41.51,0,0,1,16.77-3.13v.51a41,41,0,0,0-16.58,3.1A41.51,41.51,0,0,1,75.11,183.52Z" transform="translate(158.38 -1.44)"/><path class="cls-2" d="M75.11,176.78a41.43,41.43,0,0,1-16.77-3.13,40.92,40.92,0,0,0-16.59-3.1,40.92,40.92,0,0,0-16.59,3.1,41.43,41.43,0,0,1-16.77,3.13,41.51,41.51,0,0,1-16.77-3.13A40.83,40.83,0,0,0-25,170.55a40.92,40.92,0,0,0-16.59,3.1,41.43,41.43,0,0,1-16.77,3.13,41.42,41.42,0,0,1-16.76-3.13,40.92,40.92,0,0,0-16.59-3.1,40.92,40.92,0,0,0-16.59,3.1A41.43,41.43,0,0,1-125,176.78a41.42,41.42,0,0,1-16.76-3.13,40.92,40.92,0,0,0-16.59-3.1V170a41.43,41.43,0,0,1,16.77,3.13,41,41,0,0,0,16.58,3.1,41.05,41.05,0,0,0,16.59-3.1A41.43,41.43,0,0,1-91.67,170a41.43,41.43,0,0,1,16.77,3.13,41,41,0,0,0,16.58,3.1,41.05,41.05,0,0,0,16.59-3.1A41.43,41.43,0,0,1-25,170a41.51,41.51,0,0,1,16.77,3.13,41,41,0,0,0,16.58,3.1A41.05,41.05,0,0,0,25,173.16,41.43,41.43,0,0,1,41.75,170a41.43,41.43,0,0,1,16.77,3.13,41.05,41.05,0,0,0,16.59,3.1,41,41,0,0,0,16.58-3.1A41.51,41.51,0,0,1,108.46,170v.52a40.83,40.83,0,0,0-16.58,3.1A41.51,41.51,0,0,1,75.11,176.78Z" transform="translate(158.38 -1.44)"/></g><path class="cls-2" d="M109,184.15A85.28,85.28,0,0,1,74.83,20.74a.5.5,0,0,1,.63.2.51.51,0,0,1-.11.65C56.18,36.84,45.19,60,45.19,85a80.7,80.7,0,0,0,134,60.56.5.5,0,0,1,.74.65A85.21,85.21,0,0,1,109,184.15ZM71.79,23.25A84.29,84.29,0,1,0,177,148.81,81.92,81.92,0,0,1,71.79,23.25Z" transform="translate(158.38 -1.44)"/><path class="cls-2" d="M125.89,166.73A81.79,81.79,0,0,1,44.19,85c0-25.39,11.12-48.81,30.52-64.26l.11-.07A85.31,85.31,0,0,1,180,146.25l-.08.09A81.59,81.59,0,0,1,125.89,166.73ZM75.28,21.59C56.16,36.85,45.19,60,45.19,85a80.7,80.7,0,0,0,134,60.61,84.32,84.32,0,0,0-103.89-124Z" transform="translate(158.38 -1.44)"/><g class="cls-5"><path class="cls-6" d="M203.3,99.36H11.86A95.72,95.72,0,0,0,203.13,105a19.86,19.86,0,0,1-.39,39.72,2.83,2.83,0,0,0,0,5.66,25.52,25.52,0,0,0,.56-51Z" transform="translate(158.38 -1.44)"/><path class="cls-2" d="M203.3,99.36H11.86A95.72,95.72,0,0,0,203.13,105a19.86,19.86,0,0,1-.39,39.72,2.83,2.83,0,0,0,0,5.66,25.52,25.52,0,0,0,.56-51Z" transform="translate(158.38 -1.44)"/><path class="cls-6" d="M63.76,161.76c-7.12-7.47-13.27-13.92-24.64-13.92a140.92,140.92,0,0,0-14.73.69c.11.14.21.28.31.43a138.69,138.69,0,0,1,14.42-.68c11.18,0,17.27,6.39,24.32,13.78,8.8,9.24,18.79,19.71,41.56,19.71,27.45,0,59.81-8.92,73.62-13.15l.86-.74c-13.16,4.09-46.4,13.45-74.48,13.45C82.42,181.33,72.5,170.93,63.76,161.76Z" transform="translate(158.38 -1.44)"/><path class="cls-6" d="M63.76,168.47c-7.12-7.46-13.27-13.91-24.64-13.91-3.68,0-6.94.1-9.85.28.12.15.25.29.37.43,2.81-.17,6-.27,9.48-.27,11.18,0,17.27,6.39,24.32,13.78,8.8,9.24,18.79,19.71,41.56,19.71,19.22,0,40.84-4.37,56.81-8.45.52-.28,1-.56,1.55-.86-16.09,4.19-38.51,8.87-58.36,8.87C82.42,188.05,72.5,177.65,63.76,168.47Z" transform="translate(158.38 -1.44)"/><circle class="cls-6" cx="353.67" cy="120.37" r="0.97"/><circle class="cls-6" cx="249.04" cy="153.56" r="1.37"/><circle class="cls-6" cx="296.79" cy="128.65" r="0.97"/><path class="cls-6" d="M206.25,168.28H129.87a3.71,3.71,0,0,1,0-7.42h17.5c2.14,0,3.94-1,3.94-2.16s-1.8-2.15-3.94-2.15H137.21a3.71,3.71,0,0,1,0-7.42h61.7c2.05,0,3.71,3.93,3.71,3.71a3.72,3.72,0,0,1-3.71,3.71H188.75c-2.13,0-3.93,1-3.93,2.15s1.8,2.16,3.93,2.16h17.5a3.71,3.71,0,1,1,0,7.42Zm-76.38-6.53a2.82,2.82,0,0,0,0,5.64h76.38a2.82,2.82,0,0,0,0-5.64h-17.5c-2.71,0-4.83-1.34-4.83-3.05s2.12-3,4.83-3h10.16a2.82,2.82,0,0,0,0-5.64h-61.7a2.82,2.82,0,0,0,0,5.64h10.16c2.71,0,4.83,1.33,4.83,3s-2.12,3.05-4.83,3.05Z" transform="translate(158.38 -1.44)"/><path class="cls-6" d="M69.68,125.31H-6.7a3.71,3.71,0,0,1-3.71-3.71,3.71,3.71,0,0,1,3.71-3.7H10.8c2.13,0,3.93-1,3.93-2.16s-1.8-2.16-3.93-2.16H.64a3.71,3.71,0,1,1,0-7.42h61.7a3.71,3.71,0,0,1,0,7.42H52.18c-2.14,0-3.94,1-3.94,2.16s1.8,2.16,3.94,2.16h17.5a3.71,3.71,0,1,1,0,7.41ZM-6.7,118.79a2.81,2.81,0,0,0-2.82,2.81,2.82,2.82,0,0,0,2.82,2.82H69.68a2.82,2.82,0,1,0,0-5.63H52.18c-2.71,0-4.83-1.34-4.83-3.05s2.12-3,4.83-3H62.34a2.82,2.82,0,0,0,0-5.64H.64a2.82,2.82,0,0,0,0,5.64H10.8c2.71,0,4.83,1.34,4.83,3s-2.12,3.05-4.83,3.05Z" transform="translate(158.38 -1.44)"/><circle class="cls-6" cx="191.23" cy="134.29" r="1.37"/></g><path class="cls-6" d="M157.85,99.34V117c0,1.3,1,3,3.71,3,2.91,0,3.72-1.66,3.72-3V99.34Z" transform="translate(158.38 -1.44)"/><path class="cls-6" d="M169.25,99.34v32.14c0,2.37,1.32,5.4,4.84,5.4,3.79,0,4.85-3,4.85-5.4V99.34Z" transform="translate(158.38 -1.44)"/><polygon class="cls-2" points="269.23 30.18 274.06 29.04 269.23 27.91 270.33 26.13 268.56 27.23 267.42 22.4 266.28 27.23 264.51 26.13 265.61 27.91 260.78 29.04 265.61 30.18 264.51 31.95 266.28 30.85 267.42 35.68 268.56 30.85 270.33 31.95 269.23 30.18"/></svg>