<svg xmlns="http://www.w3.org/2000/svg" width="1922.64" height="191.619" viewBox="0 0 1922.64 191.619">
  <g id="그룹_367" data-name="그룹 367" transform="translate(0.64 -660.381)">
    <path id="패스_34" data-name="패스 34" d="M1044.833,814.527a119.284,119.284,0,0,0-22.567,2.136c-18.314-50.846-76.037-87.976-144.414-87.976-69.076,0-127.27,37.883-144.958,89.515a118.528,118.528,0,0,0-29.435-3.674c-38.66,0-72.066,18.267-87.926,44.778a73.459,73.459,0,0,0-39.972-11.39c-20.753,0-39.19,8.034-50.9,20.482a57.666,57.666,0,0,0-10.27-.916,55.967,55.967,0,0,0-20.773,3.918c-6.4-24.564-33.2-43-65.28-43-27.324,0-50.809,13.368-61.135,32.507a54.842,54.842,0,0,0-26.087-6.406c-26.041,0-47.155,17.187-47.155,38.385,0,.167.005.333.008.5a57.934,57.934,0,0,0-7.609-.5,55.82,55.82,0,0,0-21.454,4.2c-8.645-8.75-21.9-14.351-36.765-14.351-25.709,0-46.615,16.748-47.147,37.572h960.64V882.976C1134.981,844.3,1094.185,814.527,1044.833,814.527Z" transform="translate(780.368 -68.305)" fill="#fffee8" fill-rule="evenodd"/>
    <path id="패스_35" data-name="패스 35" d="M277.791,814.527a119.284,119.284,0,0,1,22.567,2.136c18.314-50.846,76.037-87.976,144.414-87.976,69.076,0,127.27,37.883,144.958,89.515a118.528,118.528,0,0,1,29.435-3.674c38.66,0,72.066,18.267,87.926,44.778a73.459,73.459,0,0,1,39.972-11.39c20.753,0,39.19,8.034,50.9,20.482a57.666,57.666,0,0,1,10.27-.916A55.968,55.968,0,0,1,829.01,871.4c6.4-24.564,33.2-43,65.28-43,27.324,0,50.809,13.368,61.135,32.507a54.841,54.841,0,0,1,26.087-6.406c26.041,0,47.155,17.187,47.155,38.385,0,.167-.005.333-.009.5a57.935,57.935,0,0,1,7.609-.5,55.819,55.819,0,0,1,21.454,4.2c8.645-8.75,21.9-14.351,36.766-14.351,25.709,0,46.615,16.748,47.147,37.572H180.992V882.976C187.644,844.3,228.439,814.527,277.791,814.527Z" transform="translate(-181.632 -68.305)" fill="#fffee8" fill-rule="evenodd"/>
  </g>
</svg>
