<svg xmlns="http://www.w3.org/2000/svg" width="139.045" height="335.096" viewBox="0 0 139.045 335.096">
  <g id="그룹_155" data-name="그룹 155" transform="translate(0.25)">
    <g id="그룹_138" data-name="그룹 138" transform="translate(61.415 0.47)">
      <g id="그룹_135" data-name="그룹 135" transform="translate(7.236 0)">
        <rect id="사각형_112" data-name="사각형 112" width="1.243" height="125.453" fill="#fffee8"/>
      </g>
      <g id="그룹_136" data-name="그룹 136" transform="translate(7.236 125.452)">
        <path id="패스_163" data-name="패스 163" d="M1552.944,165.729H1551.7v2.49h1.243Zm0,5.8H1551.7v3.314h1.243Zm0,6.627H1551.7v3.314h1.243Zm0,6.627H1551.7V188.1h1.243Zm0,6.628H1551.7v3.314h1.243Zm0,6.627H1551.7v3.314h1.243Zm0,6.627H1551.7v3.314h1.243Zm0,6.628H1551.7v3.314h1.243Zm0,6.627H1551.7v3.314h1.243Zm0,6.627H1551.7v3.314h1.243Zm0,6.628H1551.7v3.314h1.243Zm0,6.627H1551.7v3.314h1.243Zm0,6.628H1551.7v3.314h1.243Zm0,6.627H1551.7v3.314h1.243Zm0,6.628H1551.7V261h1.243Zm0,6.627H1551.7v3.314h1.243Zm0,6.628H1551.7v3.314h1.243Zm0,6.627H1551.7v3.314h1.243Zm0,6.628H1551.7v3.314h1.243Zm0,6.627H1551.7v3.314h1.243Zm0,6.627H1551.7v3.314h1.243Zm0,6.628H1551.7V307.4h1.243Zm0,6.627H1551.7v3.314h1.243Zm0,6.628H1551.7v3.314h1.243Zm0,6.628H1551.7v3.314h1.243Zm0,6.627H1551.7v3.314h1.243Zm0,6.627H1551.7v3.314h1.243Zm0,6.628H1551.7v3.314h1.243Zm0,6.627H1551.7v3.314h1.243Zm0,6.627H1551.7v3.314h1.243Zm0,6.628H1551.7v3.314h1.243Z" transform="translate(-1551.701 -165.729)" fill="#fffee8"/>
      </g>
      <g id="그룹_137" data-name="그룹 137" transform="translate(0 318.91)">
        <path id="패스_164" data-name="패스 164" d="M1563.05,168.843l-6.363-1.5-1.5-6.362-1.5,6.362-6.363,1.5,6.363,1.5,1.5,6.362,1.5-6.362Z" transform="translate(-1547.334 -160.986)" fill="#fffee8"/>
        <path id="패스_165" data-name="패스 165" d="M1556.881,170.532l-2.131-3.44,2.131-3.44-3.44,2.131-3.44-2.131,2.131,3.44-2.131,3.44,3.44-2.131Z" transform="translate(-1545.582 -159.234)" fill="#fffee8"/>
      </g>
    </g>
    <g id="그룹_141" data-name="그룹 141" transform="translate(94.292 3.436)">
      <g id="그룹_139" data-name="그룹 139" transform="translate(7.236 0)">
        <path id="패스_166" data-name="패스 166" d="M1572.787,235.158h-1.243v3.314h1.243Zm0,6.628h-1.243V245.1h1.243Zm0,6.627h-1.243v3.314h1.243Zm0,6.628h-1.243v3.314h1.243Zm0,6.627h-1.243v3.314h1.243Zm0,6.628h-1.243v3.314h1.243Zm0,6.628h-1.243v3.314h1.243Zm0,6.627h-1.243v3.314h1.243Zm0,6.628h-1.243v3.314h1.243Zm0,6.628h-1.243v3.314h1.243Zm0,6.627h-1.243v3.314h1.243Zm0,6.628h-1.243v3.314h1.243Zm0,6.628h-1.243V318h1.243Zm0,6.627h-1.243v3.314h1.243Zm0,6.628h-1.243v3.314h1.243Zm0,6.628h-1.243v3.314h1.243Zm0,6.628h-1.243v3.314h1.243Zm0,6.628h-1.243v3.314h1.243Zm0,6.628h-1.243v3.314h1.243Zm0,6.627h-1.243v3.314h1.243Zm0,6.628h-1.243v3.314h1.243Zm0,6.628h-1.243v3.314h1.243Zm0,6.628h-1.243v3.314h1.243Zm0,6.627h-1.243V390.9h1.243Zm0,6.628h-1.243v3.314h1.243Zm0,6.628h-1.243v3.314h1.243Zm0,6.627h-1.243v3.314h1.243Zm0,6.628h-1.243v3.314h1.243Zm0,6.628h-1.243v3.314h1.243Zm0,6.627h-1.243v3.314h1.243Zm0,6.628h-1.243V437.3h1.243Zm0,6.628h-1.243v3.314h1.243Z" transform="translate(-1571.544 -235.158)" fill="#fffee8"/>
      </g>
      <g id="그룹_140" data-name="그룹 140" transform="translate(0 200.907)">
        <path id="패스_167" data-name="패스 167" d="M1582.893,238.274l-6.363-1.5-1.5-6.362-1.5,6.362-6.363,1.5,6.363,1.5,1.5,6.362,1.5-6.362Z" transform="translate(-1567.177 -230.416)" fill="#fffee8"/>
        <path id="패스_168" data-name="패스 168" d="M1576.723,239.962l-2.131-3.44,2.131-3.44-3.44,2.131-3.44-2.131,2.131,3.44-2.131,3.44,3.44-2.131Z" transform="translate(-1565.425 -228.664)" fill="#fffee8"/>
      </g>
    </g>
    <g id="그룹_143" data-name="그룹 143" transform="translate(32.955 0.471)">
      <g id="그룹_142" data-name="그룹 142" transform="translate(2.818 0)">
        <path id="패스_169" data-name="패스 169" d="M1533.1,176.948h-1.243v3.314h1.243Zm0,6.627h-1.243v3.314h1.243Zm0,6.628h-1.243v3.314h1.243Zm0,6.627h-1.243v3.314h1.243Zm0,6.627h-1.243v3.314h1.243Zm0,6.628h-1.243V213.4h1.243Zm0,6.627h-1.243v3.314h1.243Zm0,6.627h-1.243v3.314h1.243Zm0,6.628h-1.243v3.314h1.243Zm0,6.627h-1.243v3.314h1.243Zm0,6.627h-1.243v3.314h1.243Zm0,6.628h-1.243v3.314h1.243Zm0,6.627h-1.243v3.314h1.243Zm0,6.628h-1.243v3.314h1.243Zm0,6.627h-1.243v3.314h1.243Zm0,6.627h-1.243v3.314h1.243Zm0,6.628h-1.243V286.3h1.243Zm0,6.628h-1.243v3.314h1.243Zm0,6.627h-1.243v3.314h1.243Zm0,6.627h-1.243v3.314h1.243Zm0,6.628h-1.243v3.314h1.243Zm0,6.627h-1.243v3.314h1.243Zm0,6.627h-1.243v3.314h1.243Zm0,6.628h-1.243v3.314h1.243Zm0,6.627h-1.243v3.314h1.243Zm0,6.627h-1.243v3.314h1.243Zm0,6.628h-1.243v3.314h1.243Zm0,6.627h-1.243V359.2h1.243Zm0,6.628h-1.243v3.314h1.243Zm0,6.627h-1.243v3.314h1.243Zm0,6.627h-1.243v3.314h1.243Zm0,6.628h-1.243v3.314h1.243Zm0,6.627h-1.243v3.314h1.243Zm0,6.628h-1.243v3.314h1.243Zm0,6.627h-1.243V405.6h1.243Zm0,6.628h-1.243v3.314h1.243Zm0,6.628h-1.243v3.314h1.243Zm0,6.627h-1.243v3.314h1.243Zm0,6.628h-1.243v3.314h1.243Zm0,6.628h-1.243v3.314h1.243Zm0,6.627h-1.243v3.314h1.243Zm0,6.628h-1.243v3.314h1.243Zm0,6.628h-1.243v3.314h1.243Zm0,6.627h-1.243v3.314h1.243Zm0,6.628h-1.243v3.314h1.243Zm0,6.628h-1.243V478.5h1.243Zm0,6.627h-1.243v3.314h1.243Z" transform="translate(-1531.858 -176.948)" fill="#fffee8"/>
      </g>
      <ellipse id="타원_31" data-name="타원 31" cx="3.44" cy="3.44" rx="3.44" ry="3.44" transform="translate(0 304.864)" fill="#fffee8"/>
    </g>
    <g id="그룹_149" data-name="그룹 149" transform="translate(0 0)">
      <g id="그룹_144" data-name="그룹 144" transform="translate(3.519 233.781)">
        <path id="패스_170" data-name="패스 170" d="M1512.391,222.134" transform="translate(-1512.391 -222.134)" fill="#fffee8" stroke="#ffc47b" stroke-miterlimit="10" stroke-width="0.75"/>
      </g>
      <g id="그룹_145" data-name="그룹 145" transform="translate(3.519 226.443)">
        <path id="패스_171" data-name="패스 171" d="M1512.391,226.563" transform="translate(-1512.391 -226.563)" fill="#fffee8" stroke="#ffc47b" stroke-miterlimit="10" stroke-width="0.75"/>
      </g>
      <g id="그룹_146" data-name="그룹 146" transform="translate(2.897 166.125)">
        <rect id="사각형_113" data-name="사각형 113" width="1.243" height="60.319" fill="#fffee8"/>
      </g>
      <g id="그룹_147" data-name="그룹 147" transform="translate(2.897 153.837)">
        <rect id="사각형_114" data-name="사각형 114" width="1.243" height="12.287" transform="translate(0 0)" fill="#fffee8"/>
      </g>
      <g id="그룹_148" data-name="그룹 148" transform="translate(2.898 0)">
        <path id="패스_172" data-name="패스 172" d="M1513.259,270.384h-1.243V273.7h1.243Zm0,6.628h-1.243v3.314h1.243Zm0,6.628h-1.243v3.314h1.243Zm0,6.627h-1.243v3.314h1.243Zm0,6.628h-1.243v3.314h1.243Zm0,6.628h-1.243v3.314h1.243Zm0,6.627h-1.243v3.314h1.243Zm0,6.628h-1.243v3.314h1.243Zm0,6.628h-1.243v3.314h1.243Zm0,6.627h-1.243v3.314h1.243Zm0,6.628h-1.243v3.314h1.243Zm0,6.627h-1.243V346.6h1.243Zm0,6.628h-1.243v3.314h1.243Zm0,6.628h-1.243v3.314h1.243Zm0,6.627h-1.243v3.314h1.243Zm0,6.628h-1.243v3.314h1.243Zm0,6.628h-1.243v3.314h1.243Zm0,6.628h-1.243v3.314h1.243Zm0,6.628h-1.243v3.314h1.243Zm0,6.628h-1.243v3.314h1.243Zm0,6.627h-1.243v3.314h1.243Zm0,6.628h-1.243v3.314h1.243Zm0,6.628h-1.243V419.5h1.243Zm0,6.627h-1.243v1.405h1.243Z" transform="translate(-1512.016 -270.384)" fill="#fffee8"/>
      </g>
      <ellipse id="타원_32" data-name="타원 32" cx="3.519" cy="3.519" rx="3.519" ry="3.519" transform="translate(0 226.581)" fill="#fffee8" stroke="#ffc47a" stroke-miterlimit="10" stroke-width="0.5"/>
    </g>
    <g id="그룹_154" data-name="그룹 154" transform="translate(131.508 0)">
      <g id="그룹_150" data-name="그룹 150" transform="translate(2.898 0)">
        <path id="패스_173" data-name="패스 173" d="M1592.63,289.273h-1.243v3.246h1.243Zm0,6.56h-1.243v3.314h1.243Zm0,6.628h-1.243v3.314h1.243Zm0,6.628h-1.243V312.4h1.243Zm0,6.627h-1.243v3.314h1.243Zm0,6.628h-1.243v3.314h1.243Zm0,6.628h-1.243v3.314h1.243Zm0,6.628h-1.243v3.314h1.243Zm0,6.627h-1.243v3.314h1.243Zm0,6.628h-1.243v3.314h1.243Zm0,6.628h-1.243v3.314h1.243Zm0,6.627h-1.243v3.314h1.243Zm0,6.628h-1.243v3.314h1.243Zm0,6.628h-1.243v3.314h1.243Zm0,6.627h-1.243V385.3h1.243Zm0,6.628h-1.243v3.314h1.243Zm0,6.628h-1.243v3.314h1.243Zm0,6.628h-1.243v3.314h1.243Zm0,6.628h-1.243v3.314h1.243Z" transform="translate(-1591.387 -289.273)" fill="#fffee8"/>
      </g>
      <g id="그룹_151" data-name="그룹 151" transform="translate(2.897 122.54)">
        <rect id="사각형_115" data-name="사각형 115" width="1.243" height="1.204" transform="translate(0 0)" fill="#fffee8"/>
      </g>
      <g id="그룹_152" data-name="그룹 152" transform="translate(3.519 123.743)">
        <path id="패스_174" data-name="패스 174" d="M1591.762,288.547" transform="translate(-1591.762 -288.547)" fill="#fffee8" stroke="#ffc47b" stroke-miterlimit="10" stroke-width="0.75"/>
      </g>
      <g id="그룹_153" data-name="그룹 153" transform="translate(3.519 130.494)">
        <path id="패스_175" data-name="패스 175" d="M1591.762,284.473" transform="translate(-1591.762 -284.473)" fill="#fffee8" stroke="#ffc47b" stroke-miterlimit="10" stroke-width="0.75"/>
      </g>
      <ellipse id="타원_33" data-name="타원 33" cx="3.519" cy="3.519" rx="3.519" ry="3.519" transform="translate(0 123.743)" fill="#fffee8" stroke="#ffc47a" stroke-miterlimit="10" stroke-width="0.5"/>
    </g>
  </g>
</svg>
