<svg xmlns="http://www.w3.org/2000/svg" width="139.045" height="335.096" viewBox="0 0 139.045 335.096">
  <g id="그룹_179" data-name="그룹 179" transform="translate(0.25)">
    <g id="그룹_138" data-name="그룹 138" transform="translate(61.414 0.47)">
      <g id="그룹_135" data-name="그룹 135" transform="translate(7.237 0)">
        <rect id="사각형_112" data-name="사각형 112" width="1.243" height="125.453" fill="#fffee8"/>
      </g>
      <g id="그룹_136" data-name="그룹 136" transform="translate(7.238 125.452)">
        <path id="패스_163" data-name="패스 163" d="M1551.7,165.729h1.243v2.49H1551.7Zm0,5.8h1.243v3.314H1551.7Zm0,6.627h1.243v3.314H1551.7Zm0,6.627h1.243V188.1H1551.7Zm0,6.628h1.243v3.314H1551.7Zm0,6.627h1.243v3.314H1551.7Zm0,6.627h1.243v3.314H1551.7Zm0,6.628h1.243v3.314H1551.7Zm0,6.627h1.243v3.314H1551.7Zm0,6.627h1.243v3.314H1551.7Zm0,6.628h1.243v3.314H1551.7Zm0,6.627h1.243v3.314H1551.7Zm0,6.628h1.243v3.314H1551.7Zm0,6.627h1.243v3.314H1551.7Zm0,6.628h1.243V261H1551.7Zm0,6.627h1.243v3.314H1551.7Zm0,6.628h1.243v3.314H1551.7Zm0,6.627h1.243v3.314H1551.7Zm0,6.628h1.243v3.314H1551.7Zm0,6.627h1.243v3.314H1551.7Zm0,6.627h1.243v3.314H1551.7Zm0,6.628h1.243V307.4H1551.7Zm0,6.627h1.243v3.314H1551.7Zm0,6.628h1.243v3.314H1551.7Zm0,6.628h1.243v3.314H1551.7Zm0,6.627h1.243v3.314H1551.7Zm0,6.627h1.243v3.314H1551.7Zm0,6.628h1.243v3.314H1551.7Zm0,6.627h1.243v3.314H1551.7Zm0,6.627h1.243v3.314H1551.7Zm0,6.628h1.243v3.314H1551.7Z" transform="translate(-1551.701 -165.729)" fill="#fffee8"/>
      </g>
      <g id="그룹_137" data-name="그룹 137" transform="translate(0 318.911)">
        <path id="패스_164" data-name="패스 164" d="M1547.334,168.843l6.363-1.5,1.5-6.362,1.5,6.362,6.363,1.5-6.363,1.5-1.5,6.362-1.5-6.362Z" transform="translate(-1547.334 -160.986)" fill="#fffee8"/>
        <path id="패스_165" data-name="패스 165" d="M1550,170.532l2.131-3.44-2.131-3.44,3.44,2.131,3.44-2.131-2.131,3.44,2.131,3.44-3.44-2.131Z" transform="translate(-1545.582 -159.234)" fill="#fffee8"/>
      </g>
    </g>
    <g id="그룹_141" data-name="그룹 141" transform="translate(28.538 3.436)">
      <g id="그룹_139" data-name="그룹 139" transform="translate(7.237 0)">
        <path id="패스_166" data-name="패스 166" d="M1571.544,235.158h1.243v3.314h-1.243Zm0,6.628h1.243V245.1h-1.243Zm0,6.627h1.243v3.314h-1.243Zm0,6.628h1.243v3.314h-1.243Zm0,6.627h1.243v3.314h-1.243Zm0,6.628h1.243v3.314h-1.243Zm0,6.628h1.243v3.314h-1.243Zm0,6.627h1.243v3.314h-1.243Zm0,6.628h1.243v3.314h-1.243Zm0,6.628h1.243v3.314h-1.243Zm0,6.627h1.243v3.314h-1.243Zm0,6.628h1.243v3.314h-1.243Zm0,6.628h1.243V318h-1.243Zm0,6.627h1.243v3.314h-1.243Zm0,6.628h1.243v3.314h-1.243Zm0,6.628h1.243v3.314h-1.243Zm0,6.628h1.243v3.314h-1.243Zm0,6.628h1.243v3.314h-1.243Zm0,6.628h1.243v3.314h-1.243Zm0,6.627h1.243v3.314h-1.243Zm0,6.628h1.243v3.314h-1.243Zm0,6.628h1.243v3.314h-1.243Zm0,6.628h1.243v3.314h-1.243Zm0,6.627h1.243V390.9h-1.243Zm0,6.628h1.243v3.314h-1.243Zm0,6.628h1.243v3.314h-1.243Zm0,6.627h1.243v3.314h-1.243Zm0,6.628h1.243v3.314h-1.243Zm0,6.628h1.243v3.314h-1.243Zm0,6.627h1.243v3.314h-1.243Zm0,6.628h1.243V437.3h-1.243Zm0,6.628h1.243v3.314h-1.243Z" transform="translate(-1571.544 -235.158)" fill="#fffee8"/>
      </g>
      <g id="그룹_140" data-name="그룹 140" transform="translate(0 200.907)">
        <path id="패스_167" data-name="패스 167" d="M1567.176,238.274l6.363-1.5,1.5-6.362,1.5,6.362,6.363,1.5-6.363,1.5-1.5,6.362-1.5-6.362Z" transform="translate(-1567.176 -230.416)" fill="#fffee8"/>
        <path id="패스_168" data-name="패스 168" d="M1569.843,239.962l2.131-3.44-2.131-3.44,3.44,2.131,3.44-2.131-2.131,3.44,2.131,3.44-3.44-2.131Z" transform="translate(-1565.425 -228.664)" fill="#fffee8"/>
      </g>
    </g>
    <g id="그룹_143" data-name="그룹 143" transform="translate(98.71 0.471)">
      <g id="그룹_142" data-name="그룹 142" transform="translate(2.82 0)">
        <path id="패스_169" data-name="패스 169" d="M1531.858,176.948h1.243v3.314h-1.243Zm0,6.627h1.243v3.314h-1.243Zm0,6.628h1.243v3.314h-1.243Zm0,6.627h1.243v3.314h-1.243Zm0,6.627h1.243v3.314h-1.243Zm0,6.628h1.243V213.4h-1.243Zm0,6.627h1.243v3.314h-1.243Zm0,6.627h1.243v3.314h-1.243Zm0,6.628h1.243v3.314h-1.243Zm0,6.627h1.243v3.314h-1.243Zm0,6.627h1.243v3.314h-1.243Zm0,6.628h1.243v3.314h-1.243Zm0,6.627h1.243v3.314h-1.243Zm0,6.628h1.243v3.314h-1.243Zm0,6.627h1.243v3.314h-1.243Zm0,6.627h1.243v3.314h-1.243Zm0,6.628h1.243V286.3h-1.243Zm0,6.628h1.243v3.314h-1.243Zm0,6.627h1.243v3.314h-1.243Zm0,6.627h1.243v3.314h-1.243Zm0,6.628h1.243v3.314h-1.243Zm0,6.627h1.243v3.314h-1.243Zm0,6.627h1.243v3.314h-1.243Zm0,6.628h1.243v3.314h-1.243Zm0,6.627h1.243v3.314h-1.243Zm0,6.627h1.243v3.314h-1.243Zm0,6.628h1.243v3.314h-1.243Zm0,6.627h1.243V359.2h-1.243Zm0,6.628h1.243v3.314h-1.243Zm0,6.627h1.243v3.314h-1.243Zm0,6.627h1.243v3.314h-1.243Zm0,6.628h1.243v3.314h-1.243Zm0,6.628h1.243v3.314h-1.243Zm0,6.628h1.243v3.314h-1.243Zm0,6.627h1.243V405.6h-1.243Zm0,6.628h1.243v3.314h-1.243Zm0,6.628h1.243v3.314h-1.243Zm0,6.627h1.243v3.314h-1.243Zm0,6.628h1.243v3.314h-1.243Zm0,6.628h1.243v3.314h-1.243Zm0,6.627h1.243v3.314h-1.243Zm0,6.628h1.243v3.314h-1.243Zm0,6.628h1.243v3.314h-1.243Zm0,6.627h1.243v3.314h-1.243Zm0,6.628h1.243v3.314h-1.243Zm0,6.628h1.243V478.5h-1.243Zm0,6.627h1.243v3.314h-1.243Z" transform="translate(-1531.858 -176.948)" fill="#fffee8"/>
      </g>
      <ellipse id="타원_31" data-name="타원 31" cx="3.44" cy="3.44" rx="3.44" ry="3.44" transform="translate(0 304.864)" fill="#fffee8"/>
    </g>
    <g id="그룹_149" data-name="그룹 149" transform="translate(131.508 0)">
      <g id="그룹_144" data-name="그룹 144" transform="translate(3.519 233.781)">
        <path id="패스_170" data-name="패스 170" d="M1512.391,222.134" transform="translate(-1512.391 -222.134)" fill="#fffee8" stroke="#ffc47b" stroke-miterlimit="10" stroke-width="0.75"/>
      </g>
      <g id="그룹_145" data-name="그룹 145" transform="translate(3.519 226.443)">
        <path id="패스_171" data-name="패스 171" d="M1512.391,226.563" transform="translate(-1512.391 -226.563)" fill="#fffee8" stroke="#ffc47b" stroke-miterlimit="10" stroke-width="0.75"/>
      </g>
      <g id="그룹_146" data-name="그룹 146" transform="translate(2.898 166.125)">
        <rect id="사각형_113" data-name="사각형 113" width="1.243" height="60.319" fill="#fffee8"/>
      </g>
      <g id="그룹_147" data-name="그룹 147" transform="translate(2.898 153.837)">
        <rect id="사각형_114" data-name="사각형 114" width="1.243" height="12.287" transform="translate(0 0)" fill="#fffee8"/>
      </g>
      <g id="그룹_148" data-name="그룹 148" transform="translate(2.897 0)">
        <path id="패스_172" data-name="패스 172" d="M1512.016,270.384h1.243V273.7h-1.243Zm0,6.628h1.243v3.314h-1.243Zm0,6.628h1.243v3.314h-1.243Zm0,6.627h1.243v3.314h-1.243Zm0,6.628h1.243v3.314h-1.243Zm0,6.628h1.243v3.314h-1.243Zm0,6.627h1.243v3.314h-1.243Zm0,6.628h1.243v3.314h-1.243Zm0,6.628h1.243v3.314h-1.243Zm0,6.627h1.243v3.314h-1.243Zm0,6.628h1.243v3.314h-1.243Zm0,6.627h1.243V346.6h-1.243Zm0,6.628h1.243v3.314h-1.243Zm0,6.628h1.243v3.314h-1.243Zm0,6.627h1.243v3.314h-1.243Zm0,6.628h1.243v3.314h-1.243Zm0,6.628h1.243v3.314h-1.243Zm0,6.628h1.243v3.314h-1.243Zm0,6.628h1.243v3.314h-1.243Zm0,6.628h1.243v3.314h-1.243Zm0,6.627h1.243v3.314h-1.243Zm0,6.628h1.243v3.314h-1.243Zm0,6.628h1.243V419.5h-1.243Zm0,6.627h1.243v1.405h-1.243Z" transform="translate(-1512.016 -270.384)" fill="#fffee8"/>
      </g>
      <ellipse id="타원_32" data-name="타원 32" cx="3.519" cy="3.519" rx="3.519" ry="3.519" transform="translate(0 226.581)" fill="#fffee8" stroke="#ffc47a" stroke-miterlimit="10" stroke-width="0.5"/>
    </g>
    <g id="그룹_154" data-name="그룹 154" transform="translate(0 0)">
      <g id="그룹_150" data-name="그룹 150" transform="translate(2.898 0)">
        <path id="패스_173" data-name="패스 173" d="M1591.387,289.273h1.243v3.246h-1.243Zm0,6.56h1.243v3.314h-1.243Zm0,6.628h1.243v3.314h-1.243Zm0,6.628h1.243V312.4h-1.243Zm0,6.627h1.243v3.314h-1.243Zm0,6.628h1.243v3.314h-1.243Zm0,6.628h1.243v3.314h-1.243Zm0,6.628h1.243v3.314h-1.243Zm0,6.627h1.243v3.314h-1.243Zm0,6.628h1.243v3.314h-1.243Zm0,6.628h1.243v3.314h-1.243Zm0,6.627h1.243v3.314h-1.243Zm0,6.628h1.243v3.314h-1.243Zm0,6.628h1.243v3.314h-1.243Zm0,6.627h1.243V385.3h-1.243Zm0,6.628h1.243v3.314h-1.243Zm0,6.628h1.243v3.314h-1.243Zm0,6.628h1.243v3.314h-1.243Zm0,6.628h1.243v3.314h-1.243Z" transform="translate(-1591.387 -289.273)" fill="#fffee8"/>
      </g>
      <g id="그룹_151" data-name="그룹 151" transform="translate(2.898 122.54)">
        <rect id="사각형_115" data-name="사각형 115" width="1.243" height="1.204" transform="translate(0 0)" fill="#fffee8"/>
      </g>
      <g id="그룹_152" data-name="그룹 152" transform="translate(3.519 123.743)">
        <path id="패스_174" data-name="패스 174" d="M1591.762,288.547" transform="translate(-1591.762 -288.547)" fill="#fffee8" stroke="#ffc47b" stroke-miterlimit="10" stroke-width="0.75"/>
      </g>
      <g id="그룹_153" data-name="그룹 153" transform="translate(3.519 130.494)">
        <path id="패스_175" data-name="패스 175" d="M1591.762,284.473" transform="translate(-1591.762 -284.473)" fill="#fffee8" stroke="#ffc47b" stroke-miterlimit="10" stroke-width="0.75"/>
      </g>
      <ellipse id="타원_33" data-name="타원 33" cx="3.519" cy="3.519" rx="3.519" ry="3.519" transform="translate(0 123.743)" fill="#fffee8" stroke="#ffc47a" stroke-miterlimit="10" stroke-width="0.5"/>
    </g>
  </g>
</svg>
