<svg xmlns="http://www.w3.org/2000/svg" width="720.194" height="318.793" viewBox="0 0 720.194 318.793">
  <g id="cloud_left" transform="translate(219.694 -941.846)">
    <g id="그룹_205" data-name="그룹 205" transform="translate(-219.694 941.846)">
      <path id="패스_284" data-name="패스 284" d="M403.482,334.027a54.937,54.937,0,0,1,18.735,3.273,98.31,98.31,0,0,1-.735-12,97.054,97.054,0,0,1,171.585-62.17,40.616,40.616,0,0,1,68.86,29.185c0,.31,0,.617-.011.927A41.476,41.476,0,0,1,685.2,309.884a94.886,94.886,0,0,1,180.838,31.131,52.958,52.958,0,0,1,33.636,67.05h22.887a18.1,18.1,0,0,1,18.052,18.048h0a18.1,18.1,0,0,1-18.052,18.048H307.694a18.1,18.1,0,0,1-18.048-18.048h0a18.1,18.1,0,0,1,18.048-18.048h44.078a55.107,55.107,0,0,1,51.71-74.039Z" transform="translate(-289.646 -228.24)" fill="#2b2f5c" fill-rule="evenodd"/>
      <path id="패스_285" data-name="패스 285" d="M401.291,327.169a46.778,46.778,0,0,1,15.924,2.781,83.777,83.777,0,0,1-.624-10.2A82.5,82.5,0,0,1,562.448,266.9a34.521,34.521,0,0,1,58.532,24.808q0,.393-.011.787a35.286,35.286,0,0,1,19.8,14.147,80.66,80.66,0,0,1,153.721,26.462,45.014,45.014,0,0,1,28.59,57h19.455a15.385,15.385,0,0,1,15.344,15.34h0a15.39,15.39,0,0,1-15.344,15.344H319.864a15.389,15.389,0,0,1-15.34-15.344h0a15.384,15.384,0,0,1,15.34-15.34h37.47a46.844,46.844,0,0,1,43.956-62.939Z" transform="translate(-249.568 -203.977)" fill="#4e5278" fill-rule="evenodd"/>
      <path id="패스_286" data-name="패스 286" d="M399.64,316.991a34.773,34.773,0,0,1,11.864,2.072,62.942,62.942,0,0,1-.465-7.6A61.463,61.463,0,0,1,519.7,272.093a25.72,25.72,0,0,1,43.605,18.48c0,.2,0,.4-.007.587A26.291,26.291,0,0,1,578.043,301.7a60.087,60.087,0,0,1,114.515,19.714,33.533,33.533,0,0,1,21.3,42.46h14.495a11.464,11.464,0,0,1,11.432,11.429h0a11.464,11.464,0,0,1-11.432,11.429H338.984a11.461,11.461,0,0,1-11.429-11.429h0a11.461,11.461,0,0,1,11.429-11.429h27.91a34.9,34.9,0,0,1,32.746-46.886Z" transform="translate(-187.526 -169.623)" fill="#717493" fill-rule="evenodd"/>
      <path id="패스_287" data-name="패스 287" d="M639.757,367.724H627.006a7.1,7.1,0,0,1-7.085-7.081c0-3.9,2.4-7.085,7.085-7.085h10.72a27.042,27.042,0,0,0-17.3-33.872,48.461,48.461,0,0,0-92.356-15.9,21.2,21.2,0,0,0-11.89-8.5c0-.155,0-.318,0-.473a20.739,20.739,0,0,0-35.165-14.9,49.567,49.567,0,0,0-87.632,31.748,50.149,50.149,0,0,0,.377,6.132,28.139,28.139,0,0,0-36.111,35.767h60.538a7.083,7.083,0,1,1,0,14.166H398.57a13.534,13.534,0,0,0-13.493,13.494h0a13.534,13.534,0,0,0,13.493,13.493H639.757a13.534,13.534,0,0,0,13.493-13.493h0a13.534,13.534,0,0,0-13.493-13.494Zm-284.8,0a13.536,13.536,0,0,1,13.493,13.494h0a13.536,13.536,0,0,1-13.493,13.493H354.6A13.534,13.534,0,0,1,341.1,381.217h0A13.534,13.534,0,0,1,354.6,367.724Z" transform="translate(-151.033 -137.049)" fill="#9497af" fill-rule="evenodd"/>
    </g>
    <g id="그룹_202" data-name="그룹 202" transform="translate(-354.591 808.587)">
      <path id="패스_284-2" data-name="패스 284" d="M388.527,320.129a47.719,47.719,0,0,1,16.274,2.843,85.4,85.4,0,0,1-.639-10.425,84.3,84.3,0,0,1,149.043-54A35.28,35.28,0,0,1,613.019,283.9c0,.27,0,.536-.01.805a36.027,36.027,0,0,1,20.223,14.458A82.421,82.421,0,0,1,790.313,326.2a46,46,0,0,1,29.217,58.241h19.88a15.723,15.723,0,0,1,15.68,15.677h0A15.725,15.725,0,0,1,839.41,415.8H305.323a15.724,15.724,0,0,1-15.677-15.677h0a15.722,15.722,0,0,1,15.677-15.677H343.61a47.868,47.868,0,0,1,44.916-64.312Z" transform="translate(0 0)" fill="#2b2f5c" fill-rule="evenodd"/>
      <path id="패스_285-2" data-name="패스 285" d="M388.578,315.356a40.633,40.633,0,0,1,13.832,2.416,72.769,72.769,0,0,1-.542-8.862,71.663,71.663,0,0,1,126.7-45.9,29.986,29.986,0,0,1,50.843,21.549q0,.342-.01.683a30.65,30.65,0,0,1,17.195,12.289,70.063,70.063,0,0,1,133.527,22.986,39.1,39.1,0,0,1,24.834,49.511h16.9a13.364,13.364,0,0,1,13.328,13.325h0a13.368,13.368,0,0,1-13.328,13.328h-454a13.368,13.368,0,0,1-13.325-13.328h0a13.363,13.363,0,0,1,13.325-13.325H350.4a40.69,40.69,0,0,1,38.182-54.67Z" transform="translate(32.859 19.892)" fill="#4e5278" fill-rule="evenodd"/>
      <path id="패스_286-2" data-name="패스 286" d="M390.17,308.19a30.205,30.205,0,0,1,10.306,1.8,54.669,54.669,0,0,1-.4-6.6,53.388,53.388,0,0,1,94.386-34.2,22.341,22.341,0,0,1,37.877,16.052c0,.173,0,.343-.006.51a22.837,22.837,0,0,1,12.808,9.157,52.193,52.193,0,0,1,99.471,17.124,29.128,29.128,0,0,1,18.5,36.882H675.7a9.958,9.958,0,0,1,9.931,9.927h0a9.958,9.958,0,0,1-9.931,9.927H337.482a9.955,9.955,0,0,1-9.927-9.927h0a9.955,9.955,0,0,1,9.927-9.927h24.244A30.313,30.313,0,0,1,390.17,308.19Z" transform="translate(83.724 48.058)" fill="#717493" fill-rule="evenodd"/>
      <path id="패스_287-2" data-name="패스 287" d="M600.522,353.847H589.446a6.171,6.171,0,0,1-6.154-6.151c0-3.388,2.089-6.154,6.154-6.154h9.311a23.489,23.489,0,0,0-15.026-29.422,42.094,42.094,0,0,0-80.223-13.81,18.413,18.413,0,0,0-10.328-7.383c0-.135,0-.276,0-.411a18.014,18.014,0,0,0-30.545-12.946,43.055,43.055,0,0,0-76.119,27.577,43.559,43.559,0,0,0,.327,5.326,24.442,24.442,0,0,0-31.367,31.068h52.585a6.152,6.152,0,1,1,0,12.3H391.021A11.756,11.756,0,0,0,379.3,365.568h0a11.756,11.756,0,0,0,11.721,11.721h209.5a11.756,11.756,0,0,0,11.721-11.721h0a11.756,11.756,0,0,0-11.721-11.721Zm-247.382,0a11.758,11.758,0,0,1,11.721,11.721h0a11.758,11.758,0,0,1-11.721,11.721h-.318A11.756,11.756,0,0,1,341.1,365.568h0a11.756,11.756,0,0,1,11.721-11.721Z" transform="translate(113.643 74.764)" fill="#9497af" fill-rule="evenodd"/>
    </g>
  </g>
</svg>
