<svg xmlns="http://www.w3.org/2000/svg" width="720.194" height="318.793" viewBox="0 0 720.194 318.793">
  <g id="cloud_right" transform="translate(-1416 -941.846)">
    <g id="그룹_204" data-name="그룹 204" transform="translate(1485.231 941.846)">
      <path id="패스_284" data-name="패스 284" d="M826.774,334.027a54.936,54.936,0,0,0-18.735,3.273,98.316,98.316,0,0,0,.735-12,97.054,97.054,0,0,0-171.585-62.17,40.616,40.616,0,0,0-68.86,29.185c0,.31,0,.617.011.927a41.476,41.476,0,0,0-23.282,16.644A94.886,94.886,0,0,0,364.22,341.016a52.958,52.958,0,0,0-33.636,67.05H307.7a18.1,18.1,0,0,0-18.052,18.048h0A18.1,18.1,0,0,0,307.7,444.161H922.561a18.1,18.1,0,0,0,18.048-18.048h0a18.1,18.1,0,0,0-18.048-18.048H878.483a55.107,55.107,0,0,0-51.709-74.039Z" transform="translate(-289.646 -228.24)" fill="#2b2f5c" fill-rule="evenodd"/>
      <path id="패스_285" data-name="패스 285" d="M761.108,327.169a46.778,46.778,0,0,0-15.924,2.781,83.783,83.783,0,0,0,.624-10.2A82.5,82.5,0,0,0,599.951,266.9a34.521,34.521,0,0,0-58.532,24.808q0,.393.011.787a35.286,35.286,0,0,0-19.8,14.147,80.66,80.66,0,0,0-153.721,26.462,45.014,45.014,0,0,0-28.59,57H319.868a15.385,15.385,0,0,0-15.344,15.34h0a15.39,15.39,0,0,0,15.344,15.344H842.534a15.389,15.389,0,0,0,15.34-15.344h0a15.384,15.384,0,0,0-15.34-15.34h-37.47a46.844,46.844,0,0,0-43.956-62.939Z" transform="translate(-261.868 -203.977)" fill="#4e5278" fill-rule="evenodd"/>
      <path id="패스_286" data-name="패스 286" d="M667.7,316.991a34.773,34.773,0,0,0-11.864,2.072,62.935,62.935,0,0,0,.465-7.6,61.463,61.463,0,0,0-108.661-39.369,25.72,25.72,0,0,0-43.605,18.48c0,.2,0,.4.007.587A26.291,26.291,0,0,0,489.3,301.7,60.087,60.087,0,0,0,374.78,321.416a33.533,33.533,0,0,0-21.3,42.46H338.987a11.464,11.464,0,0,0-11.432,11.429h0a11.464,11.464,0,0,0,11.432,11.429H728.355a11.461,11.461,0,0,0,11.429-11.429h0a11.461,11.461,0,0,0-11.429-11.429h-27.91A34.9,34.9,0,0,0,667.7,316.991Z" transform="translate(-228.849 -169.623)" fill="#717493" fill-rule="evenodd"/>
      <path id="패스_287" data-name="패스 287" d="M354.6,367.724h12.751a7.1,7.1,0,0,0,7.085-7.081c0-3.9-2.4-7.085-7.085-7.085h-10.72a27.042,27.042,0,0,1,17.3-33.872,48.461,48.461,0,0,1,92.356-15.9,21.2,21.2,0,0,1,11.89-8.5c0-.155,0-.318,0-.473a20.739,20.739,0,0,1,35.165-14.9,49.567,49.567,0,0,1,87.632,31.748,50.155,50.155,0,0,1-.377,6.132A28.139,28.139,0,0,1,636.7,353.558H576.161a7.083,7.083,0,1,0,0,14.166h19.621a13.534,13.534,0,0,1,13.493,13.494h0a13.534,13.534,0,0,1-13.493,13.493H354.6A13.534,13.534,0,0,1,341.1,381.217h0A13.534,13.534,0,0,1,354.6,367.724Zm284.8,0A13.536,13.536,0,0,0,625.9,381.217h0a13.536,13.536,0,0,0,13.493,13.493h.366a13.534,13.534,0,0,0,13.494-13.493h0a13.534,13.534,0,0,0-13.494-13.494Z" transform="translate(-192.356 -137.049)" fill="#9497af" fill-rule="evenodd"/>
    </g>
    <g id="그룹_203" data-name="그룹 203" transform="translate(1416 1036.827)">
      <path id="패스_284-2" data-name="패스 284" d="M756.21,320.129a47.719,47.719,0,0,0-16.274,2.843,85.4,85.4,0,0,0,.639-10.425,84.3,84.3,0,0,0-149.043-54A35.28,35.28,0,0,0,531.718,283.9c0,.27,0,.536.01.805A36.027,36.027,0,0,0,511.5,299.158,82.421,82.421,0,0,0,354.423,326.2a46,46,0,0,0-29.217,58.241h-19.88a15.723,15.723,0,0,0-15.68,15.677h0a15.725,15.725,0,0,0,15.68,15.677H839.414a15.724,15.724,0,0,0,15.677-15.677h0a15.722,15.722,0,0,0-15.677-15.677H801.126a47.868,47.868,0,0,0-44.916-64.312Z" transform="translate(-289.646 -228.24)" fill="#2b2f5c" fill-rule="evenodd"/>
      <path id="패스_285-2" data-name="패스 285" d="M701.125,315.356a40.633,40.633,0,0,0-13.832,2.416,72.769,72.769,0,0,0,.542-8.862,71.663,71.663,0,0,0-126.7-45.9A29.986,29.986,0,0,0,510.3,284.557q0,.342.01.683a30.65,30.65,0,0,0-17.195,12.289,70.063,70.063,0,0,0-133.527,22.986,39.1,39.1,0,0,0-24.834,49.511h-16.9a13.364,13.364,0,0,0-13.328,13.325h0a13.368,13.368,0,0,0,13.328,13.328h454a13.368,13.368,0,0,0,13.325-13.328h0a13.363,13.363,0,0,0-13.325-13.325H739.307a40.69,40.69,0,0,0-38.182-54.67Z" transform="translate(-267.472 -208.348)" fill="#4e5278" fill-rule="evenodd"/>
      <path id="패스_286-2" data-name="패스 286" d="M623.014,308.19a30.205,30.205,0,0,0-10.306,1.8,54.669,54.669,0,0,0,.4-6.6,53.388,53.388,0,0,0-94.386-34.2,22.341,22.341,0,0,0-37.877,16.052c0,.173,0,.343.006.51a22.837,22.837,0,0,0-12.808,9.157,52.193,52.193,0,0,0-99.471,17.124,29.128,29.128,0,0,0-18.5,36.882h-12.59a9.958,9.958,0,0,0-9.931,9.927h0a9.958,9.958,0,0,0,9.931,9.927H675.7a9.955,9.955,0,0,0,9.927-9.927h0a9.955,9.955,0,0,0-9.927-9.927H651.457a30.313,30.313,0,0,0-28.444-40.726Z" transform="translate(-241.816 -180.182)" fill="#717493" fill-rule="evenodd"/>
      <path id="패스_287-2" data-name="패스 287" d="M352.823,353.847H363.9a6.171,6.171,0,0,0,6.154-6.151c0-3.388-2.089-6.154-6.154-6.154h-9.311a23.489,23.489,0,0,1,15.026-29.422,42.094,42.094,0,0,1,80.223-13.81,18.413,18.413,0,0,1,10.328-7.383c0-.135,0-.276,0-.411a18.014,18.014,0,0,1,30.545-12.946,43.055,43.055,0,0,1,76.119,27.577,43.559,43.559,0,0,1-.327,5.326,24.442,24.442,0,0,1,31.367,31.068H545.281a6.152,6.152,0,1,0,0,12.3h17.044a11.756,11.756,0,0,1,11.721,11.721h0a11.756,11.756,0,0,1-11.721,11.721h-209.5A11.756,11.756,0,0,1,341.1,365.568h0a11.756,11.756,0,0,1,11.721-11.721Zm247.382,0a11.758,11.758,0,0,0-11.721,11.721h0A11.758,11.758,0,0,0,600.2,377.288h.318a11.756,11.756,0,0,0,11.721-11.721h0a11.756,11.756,0,0,0-11.721-11.721Z" transform="translate(-211.897 -153.476)" fill="#9497af" fill-rule="evenodd"/>
    </g>
  </g>
</svg>
