<svg xmlns="http://www.w3.org/2000/svg" width="140.507" height="22.244" viewBox="0 0 140.507 22.244">
  <path id="패스_176" data-name="패스 176" d="M1044.573-22.712H996.039a1.239,1.239,0,0,1-1.233-1.239,1.24,1.24,0,0,1,1.234-1.239h24.33a4.956,4.956,0,0,0,4.942-4.941,4.956,4.956,0,0,0-4.942-4.941H913.949a4.956,4.956,0,0,0-4.942,4.941,4.956,4.956,0,0,0,4.942,4.941h56.774a1.24,1.24,0,0,1,1.234,1.239,1.24,1.24,0,0,1-1.234,1.239H938.153a4.956,4.956,0,0,0-4.942,4.941h0a4.956,4.956,0,0,0,4.942,4.941h106.42a4.956,4.956,0,0,0,4.942-4.941h0A4.956,4.956,0,0,0,1044.573-22.712Z" transform="translate(-909.008 35.073)" fill="#fffee8"/>
</svg>
