<svg xmlns="http://www.w3.org/2000/svg" width="335.545" height="49.403" viewBox="0 0 335.545 49.403">
  <path id="패스_161" data-name="패스 161" d="M1173.086-168.881c0,5.611-6.556,10.176-14.614,10.176h-66.551c-2.8,0-5.072,1.951-5.072,4.349s2.275,4.35,5.072,4.35v.014c7.7.279,13.848,4.729,13.848,10.162,0,5.611-6.556,10.175-14.614,10.175h-239c-8.059,0-14.615-4.564-14.615-10.175S844.1-150,852.156-150h110.5c2.8,0,5.072-1.951,5.072-4.35s-2.275-4.349-5.072-4.349H919.472c-8.058,0-14.614-4.565-14.614-10.176s6.556-10.176,14.614-10.176h239C1166.53-179.057,1173.086-174.492,1173.086-168.881ZM962.657-159.6c3.506,0,6.359,2.354,6.359,5.246s-2.852,5.246-6.359,5.246h-110.5c-7.349,0-13.328,4.163-13.328,9.28s5.979,9.279,13.328,9.279h239c7.348,0,13.327-4.163,13.327-9.279s-5.979-9.28-13.327-9.28v-.037c-3.146-.313-5.593-2.529-5.593-5.209,0-2.892,2.853-5.246,6.359-5.246h66.551c7.348,0,13.327-4.163,13.327-9.279s-5.979-9.279-13.327-9.279h-239c-7.348,0-13.327,4.162-13.327,9.279s5.979,9.279,13.327,9.279Z" transform="translate(-837.541 179.057)" fill="#fffee8" opacity="0.83"/>
</svg>
