<svg xmlns="http://www.w3.org/2000/svg" width="80.208" height="20.133" viewBox="0 0 80.208 20.133">
  <path id="패스_179" data-name="패스 179" d="M570.3,337.62a1.408,1.408,0,0,1-1.4,1.4h-78.8c0-11.119,10.309-20.133,23.025-20.133,9.2,0,17.143,4.724,20.828,11.549a15.109,15.109,0,0,1,10.134-3.761c6.691,0,12.281,4.074,13.737,9.537h11.08A1.408,1.408,0,0,1,570.3,337.62Zm-60.248-14.466a.369.369,0,0,0-.369-.369,16.115,16.115,0,0,0-10.648,3.86,12.39,12.39,0,0,0-4.436,9.376.369.369,0,1,0,.739,0,11.665,11.665,0,0,1,4.183-8.82,15.38,15.38,0,0,1,10.162-3.677A.369.369,0,0,0,510.049,323.154Zm2.019-2.32a.369.369,0,0,0-.37-.369,21.117,21.117,0,0,0-13.951,5.056,16.212,16.212,0,0,0-5.8,12.265.37.37,0,0,0,.74,0,15.48,15.48,0,0,1,5.551-11.708A20.377,20.377,0,0,1,511.7,321.2.369.369,0,0,0,512.068,320.834Zm43.363,16.349a7.6,7.6,0,0,0-2.72-5.75,9.881,9.881,0,0,0-6.529-2.366.227.227,0,1,0,0,.453,9.426,9.426,0,0,1,6.23,2.255,7.151,7.151,0,0,1,2.565,5.408.227.227,0,0,0,.454,0Zm1.626,1.082a9.938,9.938,0,0,0-3.559-7.52,12.942,12.942,0,0,0-8.554-3.1.227.227,0,1,0,0,.454,12.5,12.5,0,0,1,8.256,2.988,9.492,9.492,0,0,1,3.4,7.179.227.227,0,1,0,.453,0Z" transform="translate(-490.089 -318.891)" fill="#fffee8"/>
</svg>
