<svg xmlns="http://www.w3.org/2000/svg" width="25.443" height="24.384" viewBox="0 0 25.443 24.384">
  <path id="다각형_15" data-name="다각형 15" d="M8.471,1.811a2,2,0,0,1,3.057,0l2.123,2.516a2,2,0,0,0,.858.594L17.532,6A2,2,0,0,1,18.5,9.025l-1.7,2.443a2,2,0,0,0-.357,1.047L16.3,15.54a2,2,0,0,1-2.5,1.839L10.5,16.521a2,2,0,0,0-1.008,0L6.2,17.379A2,2,0,0,1,3.7,15.54l-.146-3.025A2,2,0,0,0,3.2,11.468L1.5,9.025A2,2,0,0,1,2.468,6L5.491,4.921a2,2,0,0,0,.858-.594Z" transform="matrix(0.921, 0.391, -0.391, 0.921, 7.033, 0)" fill="#fffee8"/>
</svg>
