<svg xmlns="http://www.w3.org/2000/svg" width="74.836" height="74.835" viewBox="0 0 74.836 74.835">
  <g id="그룹_134" data-name="그룹 134" transform="translate(-62.32 -335.582)">
    <circle id="타원_28" data-name="타원 28" cx="37.418" cy="37.418" r="37.418" transform="translate(62.32 335.582)" fill="#fffee8"/>
    <path id="패스_153" data-name="패스 153" d="M132.233,430.584a6.661,6.661,0,1,1-6.661-6.661A6.661,6.661,0,0,1,132.233,430.584Z" transform="translate(-23.719 -37.027)" fill="#e2e2c7"/>
    <path id="패스_154" data-name="패스 154" d="M105.924,409.589a3.7,3.7,0,1,1-3.7-3.7A3.7,3.7,0,0,1,105.924,409.589Z" transform="translate(-15.174 -29.468)" fill="#e2e2c7"/>
    <path id="패스_155" data-name="패스 155" d="M106.828,431.113a3.074,3.074,0,1,1-3.074-3.074A3.074,3.074,0,0,1,106.828,431.113Z" transform="translate(-16.078 -38.752)" fill="#e2e2c7"/>
    <path id="패스_156" data-name="패스 156" d="M145.923,362.055a6.547,6.547,0,1,1-6.547-6.547A6.548,6.548,0,0,1,145.923,362.055Z" transform="translate(-29.553 -8.352)" fill="#e2e2c7"/>
    <path id="패스_157" data-name="패스 157" d="M168.085,376.174a3.416,3.416,0,1,1-3.416-3.416A3.416,3.416,0,0,1,168.085,376.174Z" transform="translate(-41.467 -15.582)" fill="#e2e2c7"/>
    <path id="패스_158" data-name="패스 158" d="M130.694,346.6a3.245,3.245,0,1,1-3.245-3.245A3.245,3.245,0,0,1,130.694,346.6Z" transform="translate(-25.938 -3.257)" fill="#e2e2c7"/>
  </g>
</svg>
