<svg xmlns="http://www.w3.org/2000/svg" xmlns:xlink="http://www.w3.org/1999/xlink" width="368" height="534" viewBox="0 0 368 534">
  <defs>
    <filter id="사각형_94" x="0" y="0" width="368" height="534" filterUnits="userSpaceOnUse">
      <feOffset dy="3" input="SourceAlpha"/>
      <feGaussianBlur stdDeviation="3" result="blur"/>
      <feFlood flood-opacity="0.161"/>
      <feComposite operator="in" in2="blur"/>
      <feComposite in="SourceGraphic"/>
    </filter>
    <filter id="사각형_109" x="15" y="23" width="338" height="488" filterUnits="userSpaceOnUse">
      <feOffset dy="3" input="SourceAlpha"/>
      <feGaussianBlur stdDeviation="3" result="blur-2"/>
      <feFlood flood-opacity="0.161"/>
      <feComposite operator="in" in2="blur-2"/>
      <feComposite in="SourceGraphic"/>
    </filter>
  </defs>
  <g id="그룹_101" data-name="그룹 101" transform="translate(-453 -2617)">
    <g transform="matrix(1, 0, 0, 1, 453, 2617)" filter="url(#사각형_94)">
      <rect id="사각형_94-2" data-name="사각형 94" width="350" height="516" rx="175" transform="translate(9 6)" fill="#181b30"/>
    </g>
    <text id="CAFE_MANWAL" data-name="CAFE
MANWAL" transform="translate(637 2857)" fill="#fffee8" font-size="40" font-family="BaskOldFace, Baskerville Old Face"><tspan x="-50.605" y="0">CAFE</tspan><tspan font-size="55"><tspan x="-129.094" y="70">MANWAL</tspan></tspan></text>
    <g transform="matrix(1, 0, 0, 1, 453, 2617)" filter="url(#사각형_109)">
      <g id="사각형_109-2" data-name="사각형 109" transform="translate(24 29)" fill="none" stroke="#fffee8" stroke-width="1">
        <rect width="320" height="470" rx="160" stroke="none"/>
        <rect x="0.5" y="0.5" width="319" height="469" rx="159.5" fill="none"/>
      </g>
    </g>
    <g id="그룹_157" data-name="그룹 157" transform="translate(556.68 2400.649)">
      <circle id="타원_28" data-name="타원 28" cx="18.384" cy="18.384" r="18.384" transform="translate(62.32 335.582)" fill="#fffee8"/>
      <path id="패스_153" data-name="패스 153" d="M125.456,427.2a3.273,3.273,0,1,1-3.273-3.273A3.273,3.273,0,0,1,125.456,427.2Z" transform="translate(-40.44 -63.129)" fill="#e2e2c7"/>
      <path id="패스_154" data-name="패스 154" d="M102.159,407.706a1.818,1.818,0,1,1-1.818-1.818A1.818,1.818,0,0,1,102.159,407.706Z" transform="translate(-25.871 -50.241)" fill="#e2e2c7"/>
      <path id="패스_155" data-name="패스 155" d="M103.7,429.55a1.511,1.511,0,1,1-1.511-1.511A1.51,1.51,0,0,1,103.7,429.55Z" transform="translate(-27.412 -66.07)" fill="#e2e2c7"/>
      <path id="패스_156" data-name="패스 156" d="M139.262,358.725a3.217,3.217,0,1,1-3.217-3.217A3.217,3.217,0,0,1,139.262,358.725Z" transform="translate(-50.386 -14.239)" fill="#e2e2c7"/>
      <path id="패스_157" data-name="패스 157" d="M164.61,374.436a1.678,1.678,0,1,1-1.678-1.678A1.678,1.678,0,0,1,164.61,374.436Z" transform="translate(-70.699 -26.566)" fill="#e2e2c7"/>
      <path id="패스_158" data-name="패스 158" d="M127.392,344.948a1.594,1.594,0,1,1-1.594-1.594A1.594,1.594,0,0,1,127.392,344.948Z" transform="translate(-44.222 -5.554)" fill="#e2e2c7"/>
    </g>
  </g>
</svg>
