<svg xmlns="http://www.w3.org/2000/svg" xmlns:xlink="http://www.w3.org/1999/xlink" width="648" height="140" viewBox="0 0 648 140">
  <defs>
    <clipPath id="clip-path">
      <rect id="leandra-rieger-wk966Ouqces-unsplash" width="141" height="140" transform="translate(-0.605 0.46)" fill="#6d718f"/>
    </clipPath>
    <clipPath id="clip-path-2">
      <rect id="leandra-rieger-wk966Ouqces-unsplash-2" data-name="leandra-rieger-wk966Ouqces-unsplash" width="141" height="140" transform="translate(254.395 0.46)" fill="#6d718f"/>
    </clipPath>
    <clipPath id="clip-path-3">
      <path id="패스_564" data-name="패스 564" d="M132.965,62.17H8.394a62.286,62.286,0,0,0,124.461,3.687,12.926,12.926,0,1,1-.249,25.85,1.843,1.843,0,1,0,0,3.684,16.609,16.609,0,1,0,.359-33.215Z" transform="translate(6.104 -61.845)" fill="none"/>
    </clipPath>
    <clipPath id="clip-path-4">
      <rect id="leandra-rieger-wk966Ouqces-unsplash-3" data-name="leandra-rieger-wk966Ouqces-unsplash" width="140" height="140" transform="translate(507.395 0.46)" fill="#6d718f"/>
    </clipPath>
    <clipPath id="clip-path-5">
      <path id="패스_453" data-name="패스 453" d="M125.427,57.134H1.727a61.842,61.842,0,0,0,123.58,3.66,12.835,12.835,0,1,1-.247,25.669,1.83,1.83,0,1,0,0,3.655,16.488,16.488,0,1,0,.357-32.975Z" transform="translate(12.65 -2.337)" fill="none"/>
    </clipPath>
  </defs>
  <g id="그룹_346" data-name="그룹 346" transform="translate(0.605 -0.46)">
    <g id="마스크_그룹_8" data-name="마스크 그룹 8" clip-path="url(#clip-path)">
      <g id="Layer_2" transform="translate(-20.399 -8.364)">
        <circle id="타원_80" data-name="타원 80" cx="55.221" cy="55.221" r="55.221" transform="translate(35.662 13.015)" fill="#2b2f5c"/>
        <path id="패스_567" data-name="패스 567" d="M90.294,8.824a70,70,0,1,0,70,70A69.979,69.979,0,0,0,90.294,8.824ZM76.4,23.162a62.459,62.459,0,0,0-18.456,7.647.27.27,0,0,1-.221.074.382.382,0,0,1-.294-.147.388.388,0,0,1,.147-.515A61.97,61.97,0,0,1,76.25,22.5c.221-.074.368.074.441.294C76.691,22.941,76.618,23.162,76.4,23.162Zm13.9,4.632c0-5.515-1.029-6.544-6.544-6.544,5.515,0,6.544-1.029,6.544-6.544,0,5.515,1.029,6.544,6.544,6.544C91.324,21.25,90.294,22.279,90.294,27.794Zm32.868,2.941a.294.294,0,0,1-.294.147.27.27,0,0,1-.221-.074,62.459,62.459,0,0,0-18.456-7.647.375.375,0,1,1,.147-.735,61.2,61.2,0,0,1,18.676,7.721A.572.572,0,0,1,123.162,30.735Z" fill="#fdd08f"/>
      </g>
    </g>
    <g id="마스크_그룹_7" data-name="마스크 그룹 7" clip-path="url(#clip-path-2)">
      <g id="logo_cup" transform="translate(239.897 39.162)">
        <g id="그룹_363" data-name="그룹 363" clip-path="url(#clip-path-3)">
          <path id="패스_558" data-name="패스 558" d="M132.965,62.17H8.394a62.286,62.286,0,0,0,124.461,3.687,12.926,12.926,0,1,1-.249,25.85,1.843,1.843,0,1,0,0,3.684,16.609,16.609,0,1,0,.359-33.215Z" transform="translate(6.104 -61.845)" fill="#2b2f5c"/>
          <path id="패스_559" data-name="패스 559" d="M132.965,62.17H8.394a62.286,62.286,0,0,0,124.461,3.687,12.926,12.926,0,1,1-.249,25.85,1.843,1.843,0,1,0,0,3.684,16.609,16.609,0,1,0,.359-33.215Z" transform="translate(6.104 -61.845)" fill="#2b2f5c"/>
          <path id="패스_560" data-name="패스 560" d="M42.159,102.776c-4.637-4.858-8.631-9.054-16.034-9.054a91.931,91.931,0,0,0-9.582.446l.2.278a92.162,92.162,0,0,1,9.379-.435c7.281,0,11.24,4.156,15.825,8.968,5.733,6,12.231,12.822,27.03,12.822,17.865,0,38.925-5.8,47.9-8.562l.58-.475c-8.562,2.661-30.189,8.747-48.466,8.747C54.3,115.511,47.852,108.746,42.159,102.776Z" transform="translate(6.104 -61.845)" fill="#fdd08f"/>
          <path id="패스_561" data-name="패스 561" d="M42.159,107.146c-4.637-4.858-8.631-9.054-16.034-9.054-2.394,0-4.516.07-6.376.186l.238.284c1.832-.11,3.872-.18,6.168-.18,7.281,0,11.24,4.156,15.825,8.967,5.733,6.011,12.231,12.828,27.047,12.828,12.5,0,26.572-2.846,36.971-5.5l1.009-.58c-10.475,2.724-25.065,5.768-37.98,5.768C54.3,119.887,47.852,113.117,42.159,107.146Z" transform="translate(6.104 -61.845)" fill="#fdd08f"/>
          <circle id="타원_76" data-name="타원 76" cx="0.626" cy="0.626" r="0.626" transform="translate(133.237 14.318)" fill="#fdd08f"/>
          <circle id="타원_77" data-name="타원 77" cx="0.887" cy="0.887" r="0.887" transform="translate(64.882 35.65)" fill="#fdd08f"/>
          <circle id="타원_78" data-name="타원 78" cx="0.626" cy="0.626" r="0.626" transform="translate(96.219 19.703)" fill="#fdd08f"/>
          <path id="패스_562" data-name="패스 562" d="M134.889,107.025H85.212a2.417,2.417,0,0,1,0-4.829H96.573c1.385,0,2.562-.643,2.562-1.4s-1.159-1.4-2.562-1.4H89.959a2.417,2.417,0,0,1,0-4.829h40.154a2.417,2.417,0,0,1,0,4.829H123.5c-1.391,0-2.562.638-2.562,1.4s1.159,1.4,2.562,1.4h11.391a2.417,2.417,0,0,1,0,4.829Zm-49.678-4.249a1.838,1.838,0,0,0,0,3.669h49.678a1.838,1.838,0,0,0,0-3.669H123.5c-1.739,0-3.142-.87-3.142-1.982s1.38-1.982,3.142-1.982h6.614a1.838,1.838,0,0,0,0-3.669H89.959a1.838,1.838,0,0,0,0,3.669h6.614c1.739,0,3.142.87,3.142,1.982s-1.38,1.982-3.142,1.982Z" transform="translate(6.104 -61.845)" fill="#fdd08f"/>
          <path id="패스_563" data-name="패스 563" d="M46.014,79.061H-3.692A2.417,2.417,0,0,1-6.1,76.65a2.411,2.411,0,0,1,2.411-2.411H7.7c1.385,0,2.556-.643,2.556-1.409s-1.159-1.4-2.556-1.4H1.084a2.411,2.411,0,1,1,0-4.823H41.238a2.411,2.411,0,1,1,0,4.823H34.624c-1.385,0-2.556.643-2.556,1.4s1.159,1.409,2.556,1.409H46.014a2.411,2.411,0,0,1,0,4.823ZM-3.693,74.818A1.832,1.832,0,0,0-5.524,76.65a1.838,1.838,0,0,0,1.832,1.832H46.014a1.832,1.832,0,1,0,0-3.664H34.624c-1.739,0-3.136-.875-3.136-1.988s1.38-1.982,3.136-1.982h6.614a1.832,1.832,0,1,0,0-3.664H1.084a1.832,1.832,0,0,0,0,3.664H7.7c1.739,0,3.136.869,3.136,1.982S9.46,74.818,7.7,74.818Z" transform="translate(6.104 -61.845)" fill="#fdd08f"/>
          <circle id="타원_79" data-name="타원 79" cx="0.887" cy="0.887" r="0.887" transform="translate(27.268 23.111)" fill="#fdd08f"/>
        </g>
        <path id="패스_565" data-name="패스 565" d="M103.39,61.845V73.322c0,.846.661,1.93,2.417,1.93,1.89,0,2.417-1.084,2.417-1.93V61.845Z" transform="translate(6.104 -61.845)" fill="#fdd08f"/>
        <path id="패스_566" data-name="패스 566" d="M110.81,61.845V82.76a3.194,3.194,0,0,0,3.153,3.478c2.464,0,3.153-1.965,3.153-3.478V61.845Z" transform="translate(6.104 -61.845)" fill="#fdd08f"/>
      </g>
    </g>
    <g id="마스크_그룹_3" data-name="마스크 그룹 3" clip-path="url(#clip-path-4)">
      <g id="main_logo" transform="translate(493.018 12.098)">
        <circle id="타원_56" data-name="타원 56" cx="42.504" cy="42.504" r="42.504" transform="translate(34.676 0.702)" fill="#2b2f5c"/>
        <path id="패스_443" data-name="패스 443" d="M64.075,2.337A54.791,54.791,0,1,0,118.86,57.124,54.793,54.793,0,0,0,64.075,2.337ZM53.209,13.548a47.706,47.706,0,0,0-14.452,6.02.3.3,0,0,1-.155.046.288.288,0,0,1-.242-.138.282.282,0,0,1,.092-.4A48.19,48.19,0,0,1,53.076,12.99a.288.288,0,0,1,.345.213.282.282,0,0,1-.213.345ZM64.075,17.14c0-4.317-.8-5.117-5.117-5.117,4.317,0,5.117-.794,5.117-5.111,0,4.317.8,5.111,5.117,5.111-4.317,0-5.117.8-5.117,5.117Zm25.715,2.3a.288.288,0,0,1-.242.138.305.305,0,0,1-.155-.046,47.706,47.706,0,0,0-14.452-5.991.3.3,0,1,1,.132-.576A48.19,48.19,0,0,1,89.7,19.05a.282.282,0,0,1,.086.4Z" transform="translate(12.65 -2.337)" fill="#fdd08f"/>
        <path id="패스_444" data-name="패스 444" d="M26.837,40.927a8.247,8.247,0,0,1-2.089-.213,2.486,2.486,0,0,1-1.237-.708,2.734,2.734,0,0,1-.576-1.329A11.459,11.459,0,0,1,22.78,36.6V31.079a11.632,11.632,0,0,1,.155-2.066,2.705,2.705,0,0,1,.576-1.335,2.452,2.452,0,0,1,1.237-.742,8.247,8.247,0,0,1,2.083-.213h7.7a8.2,8.2,0,0,1,2.078.213,2.452,2.452,0,0,1,1.226.691,2.705,2.705,0,0,1,.576,1.335,11.631,11.631,0,0,1,.178,2.118v9.847ZM28.2,52.541a7.326,7.326,0,0,1-1.98-.224,2.716,2.716,0,0,1-1.237-.714,2.682,2.682,0,0,1-.639-1.278,8.564,8.564,0,0,1-.173-1.94V45.341a2.555,2.555,0,0,1,.863-2.135,3.258,3.258,0,0,1,2.066-.685,3.056,3.056,0,0,1,2.02.685,2.607,2.607,0,0,1,.806,2.135v2.078c0,.322.046.524.138.576a1.151,1.151,0,0,0,.627.115H45.623a2.268,2.268,0,0,1,1.853.668,2.423,2.423,0,0,1,0,3.073,2.245,2.245,0,0,1-1.836.668Zm0-16.535a.938.938,0,0,0,.127.576.754.754,0,0,0,.576.144h4.328V31.6a.858.858,0,0,0-.144-.576.783.783,0,0,0-.576-.155H28.858a.725.725,0,0,0-.576.155.9.9,0,0,0-.127.576ZM41.5,28.627a2.647,2.647,0,0,1,.823-2.106,3.039,3.039,0,0,1,3.919,0,2.613,2.613,0,0,1,.835,2.089v4.3h.886a2.3,2.3,0,0,1,1.082.23,1.991,1.991,0,0,1,.685.576,2.475,2.475,0,0,1,.345.817,3.315,3.315,0,0,1,0,1.727,2.366,2.366,0,0,1-.368.8,1.957,1.957,0,0,1-.7.576,2.256,2.256,0,0,1-1.065.23h-.892v8.058H41.468Z" transform="translate(12.65 -2.337)" fill="#2b2f5c"/>
        <path id="패스_445" data-name="패스 445" d="M55.96,42.181V38.25H52.317a1.968,1.968,0,0,1-1.456-.466,1.782,1.782,0,0,1-.012-2.365,1.888,1.888,0,0,1,1.468-.495H67.77a1.9,1.9,0,0,1,1.485.495,1.767,1.767,0,0,1,.426,1.151,1.727,1.727,0,0,1-.443,1.214,1.951,1.951,0,0,1-1.468.466h-6.4v3.931Zm-.288-8.224a4.751,4.751,0,0,1-3.384-1.036,4.08,4.08,0,0,1-.012-5.485,4.638,4.638,0,0,1,3.384-1.053h7.914a4.614,4.614,0,0,1,3.361,1.053,3.73,3.73,0,0,1,1.053,2.757,3.7,3.7,0,0,1-1.053,2.751,4.651,4.651,0,0,1-3.361,1.036ZM55.3,52.518a3.171,3.171,0,0,1-2.446-.892,3.137,3.137,0,0,1-.829-2.187v-.167a2.717,2.717,0,0,1,.812-2.112,3.58,3.58,0,0,1,2.463-.737H70.417V45.94q0-.4-.483-.4H53.681a1.272,1.272,0,0,1-1.042-.443,1.456,1.456,0,0,1-.351-.927,1.623,1.623,0,0,1,.322-.938,1.226,1.226,0,0,1,1.071-.455H73.439a3.287,3.287,0,0,1,2.25.576,2.337,2.337,0,0,1,.576,1.761v3.7H58.607a.437.437,0,0,0-.374.161.506.506,0,0,0-.109.3c0,.282.161.426.483.426H75.689a1.151,1.151,0,0,1,1.036.455,1.761,1.761,0,0,1,.3,1,1.727,1.727,0,0,1-.3.927,1.151,1.151,0,0,1-1.036.466ZM57.64,29.462a1.422,1.422,0,0,0-.788.155.65.65,0,0,0-.213.576.639.639,0,0,0,.213.518,1.358,1.358,0,0,0,.788.167h3.983a1.347,1.347,0,0,0,.783-.167.622.622,0,0,0,.213-.518.633.633,0,0,0-.213-.576,1.41,1.41,0,0,0-.783-.155Zm12.978,12.4H64.668a1.894,1.894,0,0,1-1.393-.409,1.485,1.485,0,0,1-.4-1.071,1.439,1.439,0,0,1,.4-1.036,1.894,1.894,0,0,1,1.393-.414h5.951V28.576a2.509,2.509,0,0,1,.858-2.066,2.993,2.993,0,0,1,1.963-.7A3.033,3.033,0,0,1,74.492,26a2.912,2.912,0,0,1,.909.524,2.538,2.538,0,0,1,.639.858,2.762,2.762,0,0,1,.242,1.2V42.268H70.619Z" transform="translate(12.65 -2.337)" fill="#2b2f5c"/>
        <path id="패스_446" data-name="패스 446" d="M93.335,26.636a1.986,1.986,0,0,1,.927.2,1.727,1.727,0,0,1,.627.524,2,2,0,0,1,.34.725,3.1,3.1,0,0,1,.1.771,2.664,2.664,0,0,1-.115.754,2.135,2.135,0,0,1-.345.7,1.623,1.623,0,0,1-.61.512,1.986,1.986,0,0,1-.927.2H86.106c-.529,0-.8.224-.8.685v3.16a.668.668,0,0,0,.2.576.967.967,0,0,0,.576.155h8.311a2.112,2.112,0,0,1,.944.2,1.675,1.675,0,0,1,.622.512A2.3,2.3,0,0,1,96.3,37a2.538,2.538,0,0,1,.109.737,2.734,2.734,0,0,1-.109.783,2.349,2.349,0,0,1-.345.7,1.675,1.675,0,0,1-.622.512,2.112,2.112,0,0,1-.944.2H83.741a8.057,8.057,0,0,1-1.963-.2,2.607,2.607,0,0,1-1.237-.673,2.578,2.578,0,0,1-.656-1.22,8.156,8.156,0,0,1-.184-1.865V30.619a8.058,8.058,0,0,1,.184-1.865,2.573,2.573,0,0,1,.656-1.226,2.648,2.648,0,0,1,1.237-.668,8.058,8.058,0,0,1,1.963-.2ZM80.61,47.05a6.331,6.331,0,0,1,.374-2.164,4.863,4.863,0,0,1,1.093-1.778,5.059,5.059,0,0,1,1.836-1.2,7.016,7.016,0,0,1,2.59-.443H98.55a7.171,7.171,0,0,1,2.561.426,5.18,5.18,0,0,1,1.847,1.186,4.823,4.823,0,0,1,1.111,1.778,6.711,6.711,0,0,1,0,4.386,4.921,4.921,0,0,1-1.111,1.778,5.18,5.18,0,0,1-1.847,1.151,7.171,7.171,0,0,1-2.561.426H86.5a7.016,7.016,0,0,1-2.59-.437,5.214,5.214,0,0,1-1.836-1.2A4.961,4.961,0,0,1,80.984,49.2a6.256,6.256,0,0,1-.374-2.147Zm5.755,0a1.928,1.928,0,0,0,.345,1.065,1.41,1.41,0,0,0,1.278.529h9.047a1.422,1.422,0,0,0,1.283-.529,1.847,1.847,0,0,0,0-2.135,1.416,1.416,0,0,0-1.283-.512H88.011a1.4,1.4,0,0,0-1.278.524,1.934,1.934,0,0,0-.345,1.059Zm11.96-18.417a2.6,2.6,0,0,1,.84-2.106,3.068,3.068,0,0,1,3.942,0,2.584,2.584,0,0,1,.852,2.089v2.348h.886a2.262,2.262,0,0,1,1.082.23,1.951,1.951,0,0,1,.679.576,2.193,2.193,0,0,1,.374.783,3.488,3.488,0,0,1,0,1.727,2.435,2.435,0,0,1-.374.8,1.807,1.807,0,0,1-.7.576,2.492,2.492,0,0,1-1.065.213h-.886v4.927H98.325Z" transform="translate(12.65 -2.337)" fill="#2b2f5c"/>
        <g id="그룹_358" data-name="그룹 358" clip-path="url(#clip-path-5)">
          <path id="패스_447" data-name="패스 447" d="M125.427,57.134H1.727a61.842,61.842,0,0,0,123.58,3.66,12.835,12.835,0,1,1-.247,25.669,1.83,1.83,0,1,0,0,3.655,16.488,16.488,0,1,0,.357-32.975Z" transform="translate(12.65 -2.337)" fill="#2b2f5c"/>
          <path id="패스_448" data-name="패스 448" d="M125.427,57.134H1.727a61.842,61.842,0,0,0,123.58,3.66,12.835,12.835,0,1,1-.247,25.669,1.83,1.83,0,1,0,0,3.655,16.488,16.488,0,1,0,.357-32.975Z" transform="translate(12.65 -2.337)" fill="#2b2f5c"/>
          <path id="패스_449" data-name="패스 449" d="M35.269,97.45c-4.6-4.823-8.57-8.99-15.919-8.99a91.277,91.277,0,0,0-9.514.443l.2.276a89.878,89.878,0,0,1,9.312-.432c7.223,0,11.16,4.121,15.712,8.9,5.692,5.951,12.132,12.737,26.855,12.737,17.738,0,38.647-5.755,47.563-8.5l.576-.472c-8.5,2.636-29.974,8.685-48.121,8.685C47.327,110.095,40.921,103.378,35.269,97.45Z" transform="translate(12.65 -2.337)" fill="#fdd08f"/>
          <path id="패스_450" data-name="패스 450" d="M35.269,101.79c-4.6-4.823-8.57-8.99-15.919-8.99-2.377,0-4.483.069-6.331.184l.219.253c1.813-.109,3.845-.173,6.124-.173,7.223,0,11.16,4.121,15.712,8.9,5.692,5.974,12.138,12.737,26.855,12.737,12.414,0,26.383-2.826,36.708-5.456.334-.184.668-.368,1-.576-10.394,2.705-24.881,5.755-37.7,5.755C47.327,114.434,40.921,107.718,35.269,101.79Z" transform="translate(12.65 -2.337)" fill="#fdd08f"/>
          <circle id="타원_57" data-name="타원 57" cx="0.622" cy="0.622" r="0.622" transform="translate(132.288 68.685)" fill="#fdd08f"/>
          <circle id="타원_58" data-name="타원 58" cx="0.881" cy="0.881" r="0.881" transform="translate(64.42 89.865)" fill="#fdd08f"/>
          <circle id="타원_59" data-name="타원 59" cx="0.622" cy="0.622" r="0.622" transform="translate(95.534 74.032)" fill="#fdd08f"/>
          <path id="패스_451" data-name="패스 451" d="M127.338,101.663H77.986a2.394,2.394,0,0,1,0-4.788H89.295c1.376,0,2.538-.639,2.538-1.4s-1.151-1.393-2.538-1.393H82.728a2.4,2.4,0,1,1,0-4.794H122.59a2.4,2.4,0,0,1,0,4.794h-6.567c-1.376,0-2.538.639-2.538,1.393s1.151,1.4,2.538,1.4h11.315a2.394,2.394,0,0,1,0,4.788ZM77.986,97.45a1.819,1.819,0,0,0,0,3.637h49.352a1.819,1.819,0,0,0,0-3.637H116.023c-1.727,0-3.114-.869-3.114-1.974s1.37-1.968,3.114-1.968h6.567a1.824,1.824,0,0,0,0-3.643H82.728a1.824,1.824,0,1,0,0,3.643h6.567c1.727,0,3.114.863,3.114,1.968s-1.364,1.974-3.114,1.974Z" transform="translate(12.65 -2.337)" fill="#fdd08f"/>
          <path id="패스_452" data-name="패스 452" d="M39.1,73.9H-10.256a2.4,2.4,0,0,1-1.7-.7,2.4,2.4,0,0,1-.7-1.7,2.394,2.394,0,0,1,2.394-2.394H1.053c1.381,0,2.544-.639,2.544-1.393s-1.151-1.393-2.544-1.393H-5.514a2.4,2.4,0,0,1-2.394-2.4,2.4,2.4,0,0,1,2.394-2.394H34.354a2.4,2.4,0,0,1,0,4.794H27.787c-1.376,0-2.544.633-2.544,1.393s1.151,1.393,2.544,1.393H39.1a2.4,2.4,0,0,1,0,4.794Zm-49.352-4.219a1.824,1.824,0,0,0-1.83,1.819,1.824,1.824,0,0,0,1.819,1.824H39.1a1.824,1.824,0,0,0,0-3.643H27.787c-1.727,0-3.119-.863-3.119-1.968s1.37-1.968,3.119-1.968h6.567a1.824,1.824,0,0,0,0-3.643H-5.514a1.824,1.824,0,0,0-1.819,1.819A1.824,1.824,0,0,0-5.514,65.75H1.053c1.727,0,3.119.863,3.119,1.968S2.8,69.686,1.053,69.686Z" transform="translate(12.65 -2.337)" fill="#fdd08f"/>
          <circle id="타원_60" data-name="타원 60" cx="0.881" cy="0.881" r="0.881" transform="translate(27.073 77.416)" fill="#fdd08f"/>
        </g>
        <path id="패스_454" data-name="패스 454" d="M96.063,56.806v11.4c0,.835.656,1.911,2.4,1.911,1.876,0,2.4-1.076,2.4-1.911v-11.4Z" transform="translate(12.65 -2.337)" fill="#fdd08f"/>
        <path id="패스_455" data-name="패스 455" d="M103.424,56.806V77.571c0,1.531.858,3.488,3.131,3.488,2.452,0,3.131-1.957,3.131-3.488V56.806Z" transform="translate(12.65 -2.337)" fill="#fdd08f"/>
      </g>
    </g>
    <line id="선_8" data-name="선 8" x2="25.241" transform="translate(184.852 70.328)" fill="none" stroke="#6d718f" stroke-linecap="round" stroke-linejoin="round" stroke-width="5"/>
    <line id="선_9" data-name="선 9" x2="25.241" transform="translate(197.472 57.707) rotate(90)" fill="none" stroke="#6d718f" stroke-linecap="round" stroke-linejoin="round" stroke-width="5"/>
    <g id="그룹_345" data-name="그룹 345" transform="translate(442.537 66.674)">
      <line id="선_10" data-name="선 10" x2="16.645" transform="translate(0)" fill="none" stroke="#6d718f" stroke-linecap="round" stroke-width="5"/>
      <line id="선_11" data-name="선 11" x2="16.645" transform="translate(0 7.307)" fill="none" stroke="#6d718f" stroke-linecap="round" stroke-width="5"/>
    </g>
  </g>
</svg>
