<svg xmlns="http://www.w3.org/2000/svg" xmlns:xlink="http://www.w3.org/1999/xlink" width="660" height="305" viewBox="0 0 660 305">
  <defs>
    <clipPath id="clip-path">
      <rect id="사각형_179" data-name="사각형 179" width="235.065" height="192.097" rx="20" transform="translate(1004.233 1439.763)" fill="#6d718f"/>
    </clipPath>
    <clipPath id="clip-path-2">
      <path id="패스_532" data-name="패스 532" d="M133.2,175.886A86.3,86.3,0,0,1,79.357,22.431h0A89.715,89.715,0,1,0,189.99,154.481,85.567,85.567,0,0,1,133.2,175.886Z" transform="translate(167.58 -1.524)" fill="none"/>
    </clipPath>
    <clipPath id="clip-path-3">
      <path id="패스_541" data-name="패스 541" d="M215.109,105.132H12.549A101.28,101.28,0,0,0,214.93,111.1a21.015,21.015,0,0,1-.413,42.027,2.994,2.994,0,1,0,0,5.989,27,27,0,0,0,.593-53.963Z" transform="translate(167.58 -1.524)" fill="none"/>
    </clipPath>
  </defs>
  <g id="그룹_608" data-name="그룹 608" transform="translate(-960 -1372)">
    <rect id="breakslow-UMUCQcDdLws-unsplash" width="660" height="305" transform="translate(960 1372)" fill="#2b2f5c"/>
    <g id="마스크_그룹_5" data-name="마스크 그룹 5" transform="translate(-0.233)" clip-path="url(#clip-path)">
      <g id="sub_logo" transform="translate(827.517 1427.036)">
        <path id="패스_469" data-name="패스 469" d="M61.591,80.584a13.565,13.565,0,0,1-3.333-.339A4.01,4.01,0,0,1,56.28,79.1a4.4,4.4,0,0,1-.952-2.116,18.051,18.051,0,0,1-.254-3.322V64.787a18.2,18.2,0,0,1,.254-3.3,4.391,4.391,0,0,1,.952-2.116,4.01,4.01,0,0,1,1.979-1.174,13.565,13.565,0,0,1,3.333-.339H73.876a13.628,13.628,0,0,1,3.365.339,4.01,4.01,0,0,1,1.979,1.143,4.391,4.391,0,0,1,.952,2.116,18.2,18.2,0,0,1,.243,3.333v15.8Zm2.18,18.58a11.533,11.533,0,0,1-3.174-.37,4.232,4.232,0,0,1-1.979-1.132,4.423,4.423,0,0,1-1.058-2.053,13.649,13.649,0,0,1-.3-3.09V87.641a4.105,4.105,0,0,1,1.386-3.418,5.185,5.185,0,0,1,3.3-1.058,4.888,4.888,0,0,1,3.238,1.058,4.232,4.232,0,0,1,1.323,3.418V91c0,.518.074.836.222.963a1.852,1.852,0,0,0,1.058.18H91.641A3.6,3.6,0,0,1,94.593,93.2a3.724,3.724,0,0,1,.868,2.434,3.788,3.788,0,0,1-.889,2.487,3.619,3.619,0,0,1-2.931,1.058Zm0-26.452a1.5,1.5,0,0,0,.2.952,1.238,1.238,0,0,0,.889.233h6.878V65.7a1.365,1.365,0,0,0-.222-.889,1.227,1.227,0,0,0-.91-.254H64.819a1.143,1.143,0,0,0-.889.254,1.45,1.45,0,0,0-.2.889Zm21.215-11.8a4.232,4.232,0,0,1,1.323-3.365,4.825,4.825,0,0,1,6.264,0,4.158,4.158,0,0,1,1.344,3.344v6.878h1.407a3.672,3.672,0,0,1,1.735.36,3.174,3.174,0,0,1,1.058.942,3.777,3.777,0,0,1,.593,1.27,5.8,5.8,0,0,1,.18,1.386,5.884,5.884,0,0,1-.18,1.4,3.883,3.883,0,0,1-.593,1.27,3.111,3.111,0,0,1-1.111.931,3.725,3.725,0,0,1-1.714.37H93.916v12.9h-8.93Z" transform="translate(167.58 -1.524)" fill="#fdd08f"/>
        <path id="패스_470" data-name="패스 470" d="M108.168,82.584V76.309h-5.83a3.174,3.174,0,0,1-2.328-.751,2.719,2.719,0,0,1-.719-1.936,2.772,2.772,0,0,1,.7-1.894,3.026,3.026,0,0,1,2.349-.836h24.728a2.973,2.973,0,0,1,2.36.794,2.814,2.814,0,0,1,.688,1.894,2.719,2.719,0,0,1-.709,1.936,3.1,3.1,0,0,1-2.338.751H116.813v6.274Zm-.455-13.11c-2.5,0-4.3-.55-5.417-1.661a5.862,5.862,0,0,1-1.693-4.391A5.978,5.978,0,0,1,102.3,59c1.122-1.122,2.92-1.682,5.417-1.682h12.7c2.455,0,4.232.561,5.375,1.682a6.01,6.01,0,0,1,1.682,4.423,5.9,5.9,0,0,1-1.682,4.391c-1.122,1.058-2.92,1.661-5.375,1.661Zm-.593,29.69a5.026,5.026,0,0,1-3.915-1.439,4.962,4.962,0,0,1-1.323-3.555v-.275a4.338,4.338,0,0,1,1.3-3.375,5.682,5.682,0,0,1,3.936-1.174H131.3v-.783c0-.423-.265-.635-.772-.635H104.518a2.031,2.031,0,0,1-1.661-.7,2.317,2.317,0,0,1-.561-1.481,2.529,2.529,0,0,1,.518-1.5,1.957,1.957,0,0,1,1.7-.656h31.605a5.29,5.29,0,0,1,3.6.91,3.735,3.735,0,0,1,.952,2.825v5.915H112.4a.667.667,0,0,0-.593.254.868.868,0,0,0-.18.476c0,.455.254.677.772.677h27.32a1.862,1.862,0,0,1,1.661.73,2.857,2.857,0,0,1,.476,1.6,2.751,2.751,0,0,1-.476,1.481,1.83,1.83,0,0,1-1.661.751Zm3.735-36.885a2.243,2.243,0,0,0-1.259.254,1.058,1.058,0,0,0-.339.889,1,1,0,0,0,.339.815,2.116,2.116,0,0,0,1.259.275H117.2a2.116,2.116,0,0,0,1.249-.275.973.973,0,0,0,.349-.815,1.058,1.058,0,0,0-.349-.889,2.2,2.2,0,0,0-1.249-.254Zm20.76,19.807h-9.523a3.058,3.058,0,0,1-2.233-.656,2.349,2.349,0,0,1-.645-1.714,2.275,2.275,0,0,1,.645-1.661,3.058,3.058,0,0,1,2.233-.656h9.523V60.819a4,4,0,0,1,1.365-3.291,4.952,4.952,0,0,1,4.825-.825,4.56,4.56,0,0,1,1.46.846,4.073,4.073,0,0,1,1.058,1.365,4.465,4.465,0,0,1,.381,1.9v21.9h-9.057Z" transform="translate(167.58 -1.524)" fill="#fdd08f"/>
        <path id="패스_471" data-name="패스 471" d="M167.95,57.729a3.174,3.174,0,0,1,1.481.317,2.867,2.867,0,0,1,.995.846,3.174,3.174,0,0,1,.55,1.153,5.164,5.164,0,0,1,.159,1.238,4.444,4.444,0,0,1-.18,1.206,3.894,3.894,0,0,1-.55,1.058,2.73,2.73,0,0,1-.973.815,3.089,3.089,0,0,1-1.481.328H156.385c-.857,0-1.28.36-1.28,1.058v5.142a1.058,1.058,0,0,0,.328.878,1.481,1.481,0,0,0,.952.254h13.29a3.312,3.312,0,0,1,1.5.317,2.613,2.613,0,0,1,1.005.825,3.776,3.776,0,0,1,.55,1.058,4.232,4.232,0,0,1,.18,1.185,4.57,4.57,0,0,1-.18,1.249,3.82,3.82,0,0,1-.55,1.122,2.688,2.688,0,0,1-1.005.815,3.312,3.312,0,0,1-1.5.317H152.608a12.835,12.835,0,0,1-3.174-.317,4.232,4.232,0,0,1-1.979-1.058,3.947,3.947,0,0,1-1.058-1.957,12.549,12.549,0,0,1-.3-2.984V64.057a12.55,12.55,0,0,1,.3-2.984,3.947,3.947,0,0,1,1.058-1.957,4.232,4.232,0,0,1,1.979-1.058,12.834,12.834,0,0,1,3.174-.317ZM147.593,90.371a10.253,10.253,0,0,1,.593-3.46,7.957,7.957,0,0,1,1.756-2.846,8.179,8.179,0,0,1,2.931-1.9,11.089,11.089,0,0,1,4.148-.688h19.257a11.4,11.4,0,0,1,4.105.677,8.115,8.115,0,0,1,2.952,1.894,7.713,7.713,0,0,1,1.83,2.825,10.676,10.676,0,0,1,0,7.015,7.713,7.713,0,0,1-1.778,2.846,8.094,8.094,0,0,1-2.952,1.883,11.4,11.4,0,0,1-4.105.688H157.02a11.311,11.311,0,0,1-4.148-.709,8.348,8.348,0,0,1-2.931-1.915,8.01,8.01,0,0,1-1.756-2.815,10.169,10.169,0,0,1-.592-3.492Zm9.248,0a3.068,3.068,0,0,0,.55,1.714,2.254,2.254,0,0,0,2.042.836h14.432a2.264,2.264,0,0,0,2.053-.836,2.931,2.931,0,0,0,0-3.418,2.275,2.275,0,0,0-2.053-.846H159.433a2.254,2.254,0,0,0-2.042.846,3.068,3.068,0,0,0-.55,1.7Zm19.12-29.457a4.232,4.232,0,0,1,1.344-3.365,4.888,4.888,0,0,1,6.349,0,4.137,4.137,0,0,1,1.365,3.344v3.756h1.418a3.629,3.629,0,0,1,1.725.36,3.365,3.365,0,0,1,1.058.91,3.619,3.619,0,0,1,.582,1.259,5.142,5.142,0,0,1,0,2.772,3.819,3.819,0,0,1-.582,1.28,2.92,2.92,0,0,1-1.122.91,3.947,3.947,0,0,1-1.7.339h-1.418v7.936H175.96Z" transform="translate(167.58 -1.524)" fill="#fdd08f"/>
        <circle id="타원_66" data-name="타원 66" cx="89.726" cy="89.726" r="89.726" transform="translate(193.228 13.342)" fill="none" stroke="#fdd08f" stroke-miterlimit="10" stroke-width="1.058"/>
        <g id="그룹_360" data-name="그룹 360" clip-path="url(#clip-path-2)">
          <rect id="사각형_381" data-name="사각형 381" width="282.34" height="35.679" transform="translate(282.34)" fill="none"/>
          <path id="패스_472" data-name="패스 472" d="M361.866,37.2a43.837,43.837,0,0,1-17.8-3.344,48.609,48.609,0,0,0-35.107,0,43.836,43.836,0,0,1-17.744,3.312,43.826,43.826,0,0,1-17.734-3.312,48.609,48.609,0,0,0-35.107,0,43.826,43.826,0,0,1-17.734,3.312A43.837,43.837,0,0,1,202.9,33.859a43.477,43.477,0,0,0-17.554-3.28,43.477,43.477,0,0,0-17.554,3.28,43.826,43.826,0,0,1-17.734,3.312,43.837,43.837,0,0,1-17.744-3.312,43.477,43.477,0,0,0-17.554-3.28v-.55A43.837,43.837,0,0,1,132.5,33.34a43.255,43.255,0,0,0,17.554,3.28A43.2,43.2,0,0,0,167.6,33.34a43.879,43.879,0,0,1,17.744-3.312A43.837,43.837,0,0,1,203.09,33.34a43.255,43.255,0,0,0,17.554,3.28,43.2,43.2,0,0,0,17.543-3.28,49.191,49.191,0,0,1,35.488,0,43.234,43.234,0,0,0,17.543,3.28,43.255,43.255,0,0,0,17.554-3.28,49.191,49.191,0,0,1,35.488,0,43.3,43.3,0,0,0,17.607,3.312,43.3,43.3,0,0,0,17.554-3.28,43.837,43.837,0,0,1,17.744-3.312v.55a43.434,43.434,0,0,0-17.607,3.248A43.879,43.879,0,0,1,361.866,37.2Z" transform="translate(167.58 -1.524)" fill="#fdd08f"/>
          <path id="패스_473" data-name="패스 473" d="M361.866,30.06a43.837,43.837,0,0,1-17.744-3.312,48.757,48.757,0,0,0-35.107,0,43.837,43.837,0,0,1-17.744,3.312,43.826,43.826,0,0,1-17.734-3.312,48.757,48.757,0,0,0-35.107,0A43.826,43.826,0,0,1,220.7,30.06a43.836,43.836,0,0,1-17.744-3.312A43.509,43.509,0,0,0,185.4,23.479a43.509,43.509,0,0,0-17.554,3.269,43.826,43.826,0,0,1-17.734,3.312,43.837,43.837,0,0,1-17.744-3.312,43.509,43.509,0,0,0-17.554-3.269v-.55a43.837,43.837,0,0,1,17.744,3.312,43.434,43.434,0,0,0,17.554,3.28,43.382,43.382,0,0,0,17.543-3.28A43.879,43.879,0,0,1,185.4,22.929a43.837,43.837,0,0,1,17.744,3.312,43.434,43.434,0,0,0,17.554,3.28,43.382,43.382,0,0,0,17.543-3.28,49.19,49.19,0,0,1,35.488,0,43.381,43.381,0,0,0,17.543,3.28,43.435,43.435,0,0,0,17.554-3.28,49.191,49.191,0,0,1,35.488,0,43.477,43.477,0,0,0,17.554,3.28,43.477,43.477,0,0,0,17.554-3.28,43.836,43.836,0,0,1,17.744-3.312v.55a43.466,43.466,0,0,0-17.554,3.269,43.879,43.879,0,0,1-17.744,3.312Z" transform="translate(167.58 -1.524)" fill="#fdd08f"/>
          <path id="패스_474" data-name="패스 474" d="M361.866,22.929a43.837,43.837,0,0,1-17.744-3.312,48.609,48.609,0,0,0-35.107,0,43.837,43.837,0,0,1-17.744,3.312,43.826,43.826,0,0,1-17.734-3.312,48.609,48.609,0,0,0-35.107,0A43.826,43.826,0,0,1,220.7,22.929a43.837,43.837,0,0,1-17.744-3.312,43.477,43.477,0,0,0-17.554-3.28,43.477,43.477,0,0,0-17.554,3.28,43.826,43.826,0,0,1-17.734,3.312,43.837,43.837,0,0,1-17.744-3.312,43.477,43.477,0,0,0-17.554-3.28V15.8a43.837,43.837,0,0,1,17.744,3.312,43.466,43.466,0,0,0,17.554,3.27,43.382,43.382,0,0,0,17.543-3.27A43.879,43.879,0,0,1,185.4,15.8a43.836,43.836,0,0,1,17.744,3.312A43.466,43.466,0,0,0,220.7,22.379a43.382,43.382,0,0,0,17.543-3.269,49.19,49.19,0,0,1,35.488,0,43.456,43.456,0,0,0,17.543,3.269,43.466,43.466,0,0,0,17.554-3.269,49.19,49.19,0,0,1,35.488,0,43.509,43.509,0,0,0,17.554,3.269,43.509,43.509,0,0,0,17.554-3.269A43.837,43.837,0,0,1,397.164,15.8v.54a43.434,43.434,0,0,0-17.554,3.28,43.879,43.879,0,0,1-17.744,3.312Z" transform="translate(167.58 -1.524)" fill="#fdd08f"/>
          <path id="패스_475" data-name="패스 475" d="M361.866,15.8a43.837,43.837,0,0,1-17.744-3.312,48.609,48.609,0,0,0-35.107,0A43.837,43.837,0,0,1,291.271,15.8a43.826,43.826,0,0,1-17.734-3.312,48.609,48.609,0,0,0-35.107,0A43.826,43.826,0,0,1,220.7,15.8a43.837,43.837,0,0,1-17.744-3.312A43.3,43.3,0,0,0,185.4,9.205a43.3,43.3,0,0,0-17.554,3.28A43.826,43.826,0,0,1,150.111,15.8a43.837,43.837,0,0,1-17.744-3.312,43.3,43.3,0,0,0-17.554-3.28v-.55a43.837,43.837,0,0,1,17.744,3.312,43.434,43.434,0,0,0,17.554,3.28,43.382,43.382,0,0,0,17.543-3.28A43.879,43.879,0,0,1,185.4,8.655a43.837,43.837,0,0,1,17.744,3.312,43.434,43.434,0,0,0,17.554,3.28,43.382,43.382,0,0,0,17.543-3.28,49.191,49.191,0,0,1,35.488,0,43.381,43.381,0,0,0,17.543,3.28,43.435,43.435,0,0,0,17.554-3.28,49.191,49.191,0,0,1,35.488,0,43.477,43.477,0,0,0,17.554,3.28,43.477,43.477,0,0,0,17.554-3.28,43.837,43.837,0,0,1,17.744-3.312v.55a43.255,43.255,0,0,0-17.554,3.28A43.879,43.879,0,0,1,361.866,15.8Z" transform="translate(167.58 -1.524)" fill="#fdd08f"/>
          <path id="패스_476" data-name="패스 476" d="M361.866,8.655a43.837,43.837,0,0,1-17.744-3.312,48.757,48.757,0,0,0-35.107,0,43.837,43.837,0,0,1-17.744,3.312,43.826,43.826,0,0,1-17.734-3.312,48.757,48.757,0,0,0-35.107,0A43.826,43.826,0,0,1,220.7,8.655a43.837,43.837,0,0,1-17.744-3.312,43.509,43.509,0,0,0-17.607-3.227,43.509,43.509,0,0,0-17.554,3.27A43.826,43.826,0,0,1,150.058,8.7a43.837,43.837,0,0,1-17.744-3.312A43.509,43.509,0,0,0,114.76,2.116V1.524A43.837,43.837,0,0,1,132.5,4.835,43.466,43.466,0,0,0,150.058,8.1,43.382,43.382,0,0,0,167.6,4.835a43.879,43.879,0,0,1,17.744-3.312A43.837,43.837,0,0,1,203.09,4.835,43.466,43.466,0,0,0,220.643,8.1a43.382,43.382,0,0,0,17.543-3.269,49.19,49.19,0,0,1,35.488,0A43.456,43.456,0,0,0,291.218,8.1a43.466,43.466,0,0,0,17.554-3.269,49.191,49.191,0,0,1,35.488,0A43.509,43.509,0,0,0,361.866,8.1,43.508,43.508,0,0,0,379.42,4.835a43.837,43.837,0,0,1,17.744-3.312v.593A43.466,43.466,0,0,0,379.61,5.386a43.879,43.879,0,0,1-17.744,3.27Z" transform="translate(167.58 -1.524)" fill="#fdd08f"/>
          <rect id="사각형_382" data-name="사각형 382" width="282.34" height="35.679" transform="translate(282.34 35.679)" fill="none"/>
          <path id="패스_477" data-name="패스 477" d="M361.866,72.881a43.837,43.837,0,0,1-17.744-3.312,48.609,48.609,0,0,0-35.107,0,49.159,49.159,0,0,1-35.478,0,48.609,48.609,0,0,0-35.107,0,49.159,49.159,0,0,1-35.478,0,43.3,43.3,0,0,0-17.554-3.28,43.3,43.3,0,0,0-17.554,3.28,43.826,43.826,0,0,1-17.734,3.312,43.837,43.837,0,0,1-17.744-3.312,43.3,43.3,0,0,0-17.554-3.28v-.55a43.837,43.837,0,0,1,17.744,3.312,43.434,43.434,0,0,0,17.554,3.28,43.382,43.382,0,0,0,17.543-3.28A43.879,43.879,0,0,1,185.4,65.739a43.837,43.837,0,0,1,17.744,3.312,48.577,48.577,0,0,0,35.1,0,49.191,49.191,0,0,1,35.488,0,48.577,48.577,0,0,0,35.1,0,49.191,49.191,0,0,1,35.488,0,48.609,48.609,0,0,0,35.107,0,43.836,43.836,0,0,1,17.744-3.312v.55a43.255,43.255,0,0,0-17.554,3.28,43.879,43.879,0,0,1-17.744,3.312Z" transform="translate(167.58 -1.524)" fill="#fdd08f"/>
          <path id="패스_478" data-name="패스 478" d="M361.866,65.739a43.837,43.837,0,0,1-17.8-3.312,48.757,48.757,0,0,0-35.107,0,49.159,49.159,0,0,1-35.478,0,48.757,48.757,0,0,0-35.107,0,49.159,49.159,0,0,1-35.478,0,43.508,43.508,0,0,0-17.554-3.269,43.509,43.509,0,0,0-17.554,3.269,43.826,43.826,0,0,1-17.734,3.312,43.837,43.837,0,0,1-17.744-3.312,43.508,43.508,0,0,0-17.554-3.269v-.55A43.836,43.836,0,0,1,132.5,61.919a43.466,43.466,0,0,0,17.554,3.27,43.382,43.382,0,0,0,17.543-3.27,43.879,43.879,0,0,1,17.744-3.312,43.837,43.837,0,0,1,17.744,3.312,48.725,48.725,0,0,0,35.1,0,49.191,49.191,0,0,1,35.488,0,48.725,48.725,0,0,0,35.1,0,49.191,49.191,0,0,1,35.488,0,48.757,48.757,0,0,0,35.107,0,43.837,43.837,0,0,1,17.744-3.312v.55a43.467,43.467,0,0,0-17.554,3.269A43.879,43.879,0,0,1,361.866,65.739Z" transform="translate(167.58 -1.524)" fill="#fdd08f"/>
          <path id="패스_479" data-name="패스 479" d="M361.866,58.608A43.837,43.837,0,0,1,344.122,55.3a48.609,48.609,0,0,0-35.107,0,49.159,49.159,0,0,1-35.478,0,48.609,48.609,0,0,0-35.107,0,49.159,49.159,0,0,1-35.478,0,43.477,43.477,0,0,0-17.554-3.28,43.477,43.477,0,0,0-17.554,3.28,43.826,43.826,0,0,1-17.734,3.312A43.837,43.837,0,0,1,132.367,55.3a43.477,43.477,0,0,0-17.554-3.28v-.55a44.027,44.027,0,0,1,17.744,3.312,43.255,43.255,0,0,0,17.554,3.28,43.2,43.2,0,0,0,17.543-3.28A44.069,44.069,0,0,1,185.4,51.465a44.027,44.027,0,0,1,17.744,3.312,48.577,48.577,0,0,0,35.1,0,49.191,49.191,0,0,1,35.488,0,48.577,48.577,0,0,0,35.1,0,49.191,49.191,0,0,1,35.488,0,48.609,48.609,0,0,0,35.107,0,44.027,44.027,0,0,1,17.744-3.312v.55A43.434,43.434,0,0,0,379.61,55.3,43.879,43.879,0,0,1,361.866,58.608Z" transform="translate(167.58 -1.524)" fill="#fdd08f"/>
          <path id="패스_480" data-name="패스 480" d="M361.866,51.465a44.059,44.059,0,0,1-17.744-3.3,48.609,48.609,0,0,0-35.107,0,49.307,49.307,0,0,1-35.478,0,48.609,48.609,0,0,0-35.107,0,49.307,49.307,0,0,1-35.478,0,43.3,43.3,0,0,0-17.554-3.28,43.3,43.3,0,0,0-17.554,3.28,44.038,44.038,0,0,1-17.734,3.3,44.059,44.059,0,0,1-17.744-3.3,43.3,43.3,0,0,0-17.554-3.28v-.55a43.836,43.836,0,0,1,17.691,3.28,43.434,43.434,0,0,0,17.554,3.28,43.382,43.382,0,0,0,17.543-3.28A43.879,43.879,0,0,1,185.345,44.3a43.837,43.837,0,0,1,17.744,3.312,48.577,48.577,0,0,0,35.1,0,49.19,49.19,0,0,1,35.488,0,48.577,48.577,0,0,0,35.1,0,49.191,49.191,0,0,1,35.488,0,48.609,48.609,0,0,0,35.107,0A43.837,43.837,0,0,1,397.111,44.3v.55a43.255,43.255,0,0,0-17.554,3.28,44.1,44.1,0,0,1-17.691,3.333Z" transform="translate(167.58 -1.524)" fill="#fdd08f"/>
          <path id="패스_481" data-name="패스 481" d="M361.866,44.334a43.837,43.837,0,0,1-17.744-3.312,48.757,48.757,0,0,0-35.107,0,43.837,43.837,0,0,1-17.744,3.312,43.826,43.826,0,0,1-17.734-3.312,48.757,48.757,0,0,0-35.107,0A43.826,43.826,0,0,1,220.7,44.334a43.837,43.837,0,0,1-17.744-3.312A43.509,43.509,0,0,0,185.4,37.753a43.509,43.509,0,0,0-17.554,3.269,43.826,43.826,0,0,1-17.734,3.312,43.837,43.837,0,0,1-17.744-3.312,43.509,43.509,0,0,0-17.554-3.269V37.2a43.837,43.837,0,0,1,17.744,3.312,43.466,43.466,0,0,0,17.554,3.269,43.382,43.382,0,0,0,17.543-3.27A43.879,43.879,0,0,1,185.4,37.2a43.837,43.837,0,0,1,17.744,3.312,43.466,43.466,0,0,0,17.554,3.27,43.382,43.382,0,0,0,17.543-3.27,49.191,49.191,0,0,1,35.488,0,43.456,43.456,0,0,0,17.543,3.269,43.466,43.466,0,0,0,17.554-3.27,49.191,49.191,0,0,1,35.488,0,48.757,48.757,0,0,0,35.107,0A43.836,43.836,0,0,1,397.164,37.2v.55a43.466,43.466,0,0,0-17.554,3.269,43.879,43.879,0,0,1-17.744,3.312Z" transform="translate(167.58 -1.524)" fill="#fdd08f"/>
          <rect id="사각형_383" data-name="사각형 383" width="282.34" height="35.679" transform="translate(282.34 71.357)" fill="none"/>
          <path id="패스_482" data-name="패스 482" d="M361.866,108.56a44.027,44.027,0,0,1-17.744-3.312,48.609,48.609,0,0,0-35.107,0,49.159,49.159,0,0,1-35.478,0,48.609,48.609,0,0,0-35.107,0,49.159,49.159,0,0,1-35.478,0,43.3,43.3,0,0,0-17.554-3.28,43.3,43.3,0,0,0-17.554,3.28,44.006,44.006,0,0,1-17.734,3.312,44.027,44.027,0,0,1-17.744-3.312,43.3,43.3,0,0,0-17.554-3.28v-.55a43.836,43.836,0,0,1,17.691,3.333,43.435,43.435,0,0,0,17.554,3.28,43.382,43.382,0,0,0,17.543-3.28,43.879,43.879,0,0,1,17.744-3.312,43.837,43.837,0,0,1,17.744,3.312,48.577,48.577,0,0,0,35.1,0,49.191,49.191,0,0,1,35.488,0,48.577,48.577,0,0,0,35.1,0,49.191,49.191,0,0,1,35.488,0,48.608,48.608,0,0,0,35.107,0,43.837,43.837,0,0,1,17.744-3.312v.55a43.255,43.255,0,0,0-17.554,3.28A44.069,44.069,0,0,1,361.866,108.56Z" transform="translate(167.58 -1.524)" fill="#fdd08f"/>
          <path id="패스_483" data-name="패스 483" d="M361.866,101.418a43.837,43.837,0,0,1-17.744-3.312,48.757,48.757,0,0,0-35.107,0,49.159,49.159,0,0,1-35.478,0,48.757,48.757,0,0,0-35.107,0,49.159,49.159,0,0,1-35.478,0A43.509,43.509,0,0,0,185.4,94.836a43.509,43.509,0,0,0-17.554,3.269,43.826,43.826,0,0,1-17.734,3.312,43.836,43.836,0,0,1-17.744-3.312,43.509,43.509,0,0,0-17.554-3.269v-.55A43.837,43.837,0,0,1,132.557,97.6a43.466,43.466,0,0,0,17.554,3.269,43.381,43.381,0,0,0,17.543-3.27A43.879,43.879,0,0,1,185.4,94.286,43.836,43.836,0,0,1,203.142,97.6a48.725,48.725,0,0,0,35.1,0,49.19,49.19,0,0,1,35.488,0,48.725,48.725,0,0,0,35.1,0,49.19,49.19,0,0,1,35.488,0,48.757,48.757,0,0,0,35.107,0,43.836,43.836,0,0,1,17.744-3.312v.55a43.467,43.467,0,0,0-17.554,3.27,43.879,43.879,0,0,1-17.744,3.312Z" transform="translate(167.58 -1.524)" fill="#fdd08f"/>
          <path id="패스_484" data-name="패스 484" d="M361.866,94.286A43.837,43.837,0,0,1,344.069,91a48.609,48.609,0,0,0-35.107,0,49.159,49.159,0,0,1-35.478,0,48.609,48.609,0,0,0-35.107,0A49.159,49.159,0,0,1,202.9,91a43.477,43.477,0,0,0-17.554-3.28A43.477,43.477,0,0,0,167.792,91a43.826,43.826,0,0,1-17.734,3.312A43.837,43.837,0,0,1,132.314,91a43.477,43.477,0,0,0-17.554-3.28v-.55A43.837,43.837,0,0,1,132.5,90.477a43.255,43.255,0,0,0,17.554,3.28,43.2,43.2,0,0,0,17.543-3.28,43.879,43.879,0,0,1,17.744-3.312,43.837,43.837,0,0,1,17.744,3.312,48.577,48.577,0,0,0,35.1,0,49.191,49.191,0,0,1,35.488,0,48.577,48.577,0,0,0,35.1,0,49.191,49.191,0,0,1,35.488,0,48.608,48.608,0,0,0,35.107,0,43.836,43.836,0,0,1,17.744-3.312v.55A43.434,43.434,0,0,0,379.557,91a43.879,43.879,0,0,1-17.691,3.291Z" transform="translate(167.58 -1.524)" fill="#fdd08f"/>
          <path id="패스_485" data-name="패스 485" d="M361.866,87.144a43.837,43.837,0,0,1-17.744-3.312,48.757,48.757,0,0,0-35.107,0,49.159,49.159,0,0,1-35.478,0,48.757,48.757,0,0,0-35.107,0,49.159,49.159,0,0,1-35.478,0,43.509,43.509,0,0,0-17.554-3.27,43.509,43.509,0,0,0-17.554,3.269,43.826,43.826,0,0,1-17.734,3.312,43.837,43.837,0,0,1-17.744-3.312,43.509,43.509,0,0,0-17.554-3.269v-.55a43.837,43.837,0,0,1,17.744,3.312,43.435,43.435,0,0,0,17.554,3.28,43.381,43.381,0,0,0,17.543-3.28A43.879,43.879,0,0,1,185.4,80.013a43.836,43.836,0,0,1,17.744,3.312,48.577,48.577,0,0,0,35.1,0,49.191,49.191,0,0,1,35.488,0,48.577,48.577,0,0,0,35.1,0,49.191,49.191,0,0,1,35.488,0,48.609,48.609,0,0,0,35.107,0,43.836,43.836,0,0,1,17.744-3.312v.55a43.467,43.467,0,0,0-17.554,3.27A43.879,43.879,0,0,1,361.866,87.144Z" transform="translate(167.58 -1.524)" fill="#fdd08f"/>
          <path id="패스_486" data-name="패스 486" d="M361.866,80.013A43.837,43.837,0,0,1,344.122,76.7a48.608,48.608,0,0,0-35.107,0,49.159,49.159,0,0,1-35.478,0,48.609,48.609,0,0,0-35.107,0,49.159,49.159,0,0,1-35.478,0,43.477,43.477,0,0,0-17.554-3.28,43.477,43.477,0,0,0-17.554,3.28,43.826,43.826,0,0,1-17.734,3.312A43.837,43.837,0,0,1,132.367,76.7a43.477,43.477,0,0,0-17.554-3.28v-.54a43.837,43.837,0,0,1,17.691,3.3,43.466,43.466,0,0,0,17.554,3.27,43.381,43.381,0,0,0,17.543-3.27,43.879,43.879,0,0,1,17.744-3.312,43.837,43.837,0,0,1,17.744,3.312,48.725,48.725,0,0,0,35.1,0,49.191,49.191,0,0,1,35.488,0,48.725,48.725,0,0,0,35.1,0,49.191,49.191,0,0,1,35.488,0,48.757,48.757,0,0,0,35.107,0,43.837,43.837,0,0,1,17.744-3.312v.54a43.434,43.434,0,0,0-17.554,3.28A43.879,43.879,0,0,1,361.866,80.013Z" transform="translate(167.58 -1.524)" fill="#fdd08f"/>
          <rect id="사각형_384" data-name="사각형 384" width="282.34" height="35.679" transform="translate(282.34 107.036)" fill="none"/>
          <path id="패스_487" data-name="패스 487" d="M361.866,144.228a43.837,43.837,0,0,1-17.744-3.312,48.757,48.757,0,0,0-35.107,0,49.159,49.159,0,0,1-35.478,0,48.757,48.757,0,0,0-35.107,0,49.159,49.159,0,0,1-35.478,0,43.509,43.509,0,0,0-17.554-3.269,43.509,43.509,0,0,0-17.554,3.27,43.826,43.826,0,0,1-17.734,3.312,43.837,43.837,0,0,1-17.744-3.312,43.509,43.509,0,0,0-17.554-3.269v-.55a43.836,43.836,0,0,1,17.744,3.312,43.434,43.434,0,0,0,17.554,3.28,43.381,43.381,0,0,0,17.543-3.28A43.879,43.879,0,0,1,185.4,137.1a43.837,43.837,0,0,1,17.744,3.312,48.577,48.577,0,0,0,35.1,0,49.191,49.191,0,0,1,35.488,0,48.577,48.577,0,0,0,35.1,0,49.191,49.191,0,0,1,35.488,0,48.609,48.609,0,0,0,35.107,0,43.837,43.837,0,0,1,17.744-3.312v.55a43.466,43.466,0,0,0-17.554,3.27A43.879,43.879,0,0,1,361.866,144.228Z" transform="translate(167.58 -1.524)" fill="#fdd08f"/>
          <path id="패스_488" data-name="패스 488" d="M361.866,137.1a43.837,43.837,0,0,1-17.744-3.312,48.609,48.609,0,0,0-35.107,0,49.159,49.159,0,0,1-35.478,0,48.609,48.609,0,0,0-35.107,0,49.159,49.159,0,0,1-35.478,0A43.477,43.477,0,0,0,185.4,130.5a43.477,43.477,0,0,0-17.554,3.28,43.826,43.826,0,0,1-17.734,3.312,43.837,43.837,0,0,1-17.744-3.312,43.477,43.477,0,0,0-17.554-3.28v-.54a43.837,43.837,0,0,1,17.691,3.354,43.466,43.466,0,0,0,17.554,3.269,43.382,43.382,0,0,0,17.543-3.269,43.879,43.879,0,0,1,17.744-3.312,43.837,43.837,0,0,1,17.744,3.312,48.725,48.725,0,0,0,35.1,0,49.191,49.191,0,0,1,35.488,0,48.725,48.725,0,0,0,35.1,0,49.191,49.191,0,0,1,35.488,0,48.756,48.756,0,0,0,35.107,0,43.837,43.837,0,0,1,17.744-3.312v.54a43.434,43.434,0,0,0-17.554,3.28A43.879,43.879,0,0,1,361.866,137.1Z" transform="translate(167.58 -1.524)" fill="#fdd08f"/>
          <path id="패스_489" data-name="패스 489" d="M361.866,129.965a43.837,43.837,0,0,1-17.744-3.312,48.608,48.608,0,0,0-35.107,0,49.159,49.159,0,0,1-35.478,0,48.609,48.609,0,0,0-35.107,0,49.159,49.159,0,0,1-35.478,0,43.3,43.3,0,0,0-17.554-3.28,43.3,43.3,0,0,0-17.554,3.28,43.826,43.826,0,0,1-17.734,3.312,43.837,43.837,0,0,1-17.744-3.312,43.3,43.3,0,0,0-17.554-3.28v-.55a43.837,43.837,0,0,1,17.744,3.312,43.434,43.434,0,0,0,17.554,3.28,43.382,43.382,0,0,0,17.543-3.28,43.879,43.879,0,0,1,17.744-3.312,43.836,43.836,0,0,1,17.744,3.312,48.577,48.577,0,0,0,35.1,0,49.19,49.19,0,0,1,35.488,0,48.577,48.577,0,0,0,35.1,0,49.191,49.191,0,0,1,35.488,0,48.609,48.609,0,0,0,35.107,0,43.836,43.836,0,0,1,17.744-3.312v.55a43.255,43.255,0,0,0-17.554,3.28A43.879,43.879,0,0,1,361.866,129.965Z" transform="translate(167.58 -1.524)" fill="#fdd08f"/>
          <path id="패스_490" data-name="패스 490" d="M361.866,122.823a43.837,43.837,0,0,1-17.8-3.259,48.757,48.757,0,0,0-35.107,0,49.159,49.159,0,0,1-35.478,0,48.757,48.757,0,0,0-35.107,0,49.159,49.159,0,0,1-35.478,0,43.509,43.509,0,0,0-17.554-3.269,43.508,43.508,0,0,0-17.554,3.269,43.826,43.826,0,0,1-17.734,3.312,43.836,43.836,0,0,1-17.744-3.312,43.508,43.508,0,0,0-17.554-3.269v-.55a43.836,43.836,0,0,1,17.744,3.312,43.466,43.466,0,0,0,17.554,3.269,43.382,43.382,0,0,0,17.543-3.269,43.879,43.879,0,0,1,17.744-3.312,43.837,43.837,0,0,1,17.744,3.312,48.725,48.725,0,0,0,35.1,0,49.19,49.19,0,0,1,35.488,0,48.725,48.725,0,0,0,35.1,0,49.19,49.19,0,0,1,35.488,0,48.757,48.757,0,0,0,35.107,0,43.836,43.836,0,0,1,17.744-3.312v.55a43.466,43.466,0,0,0-17.554,3.269,43.879,43.879,0,0,1-17.691,3.259Z" transform="translate(167.58 -1.524)" fill="#fdd08f"/>
          <path id="패스_491" data-name="패스 491" d="M361.866,115.691a43.837,43.837,0,0,1-17.744-3.312,48.609,48.609,0,0,0-35.107,0,49.159,49.159,0,0,1-35.478,0,48.609,48.609,0,0,0-35.107,0,49.159,49.159,0,0,1-35.478,0A43.477,43.477,0,0,0,185.4,109.1a43.477,43.477,0,0,0-17.554,3.28,43.826,43.826,0,0,1-17.734,3.312,43.836,43.836,0,0,1-17.744-3.312,43.477,43.477,0,0,0-17.554-3.28v-.54a44.059,44.059,0,0,1,17.744,3.3,43.255,43.255,0,0,0,17.554,3.28,43.2,43.2,0,0,0,17.543-3.28,44.1,44.1,0,0,1,17.744-3.3,44.059,44.059,0,0,1,17.744,3.3,48.577,48.577,0,0,0,35.1,0,49.339,49.339,0,0,1,35.488,0,48.577,48.577,0,0,0,35.1,0,49.339,49.339,0,0,1,35.488,0,48.609,48.609,0,0,0,35.107,0,44.059,44.059,0,0,1,17.744-3.3v.54a43.434,43.434,0,0,0-17.554,3.28A43.879,43.879,0,0,1,361.866,115.691Z" transform="translate(167.58 -1.524)" fill="#fdd08f"/>
          <rect id="사각형_385" data-name="사각형 385" width="282.34" height="35.679" transform="translate(282.34 142.715)" fill="none"/>
          <path id="패스_492" data-name="패스 492" d="M361.866,179.875a43.837,43.837,0,0,1-17.744-3.312,48.757,48.757,0,0,0-35.107,0,49.159,49.159,0,0,1-35.478,0,48.757,48.757,0,0,0-35.107,0,49.159,49.159,0,0,1-35.478,0,43.508,43.508,0,0,0-17.554-3.269,43.508,43.508,0,0,0-17.554,3.269,43.826,43.826,0,0,1-17.786,3.312,43.837,43.837,0,0,1-17.744-3.312,43.508,43.508,0,0,0-17.554-3.269v-.55a43.836,43.836,0,0,1,17.744,3.312,43.466,43.466,0,0,0,17.554,3.269,43.381,43.381,0,0,0,17.543-3.27,43.879,43.879,0,0,1,17.744-3.312,43.837,43.837,0,0,1,17.744,3.312,48.725,48.725,0,0,0,35.1,0,49.191,49.191,0,0,1,35.488,0,48.725,48.725,0,0,0,35.1,0,49.191,49.191,0,0,1,35.488,0,48.757,48.757,0,0,0,35.107,0,43.837,43.837,0,0,1,17.744-3.312v.55a43.466,43.466,0,0,0-17.554,3.269A43.879,43.879,0,0,1,361.866,179.875Z" transform="translate(167.58 -1.524)" fill="#fdd08f"/>
          <path id="패스_493" data-name="패스 493" d="M361.866,172.775a43.837,43.837,0,0,1-17.744-3.312,48.609,48.609,0,0,0-35.107,0,49.159,49.159,0,0,1-35.478,0,48.608,48.608,0,0,0-35.107,0,49.159,49.159,0,0,1-35.478,0,43.477,43.477,0,0,0-17.554-3.28,43.477,43.477,0,0,0-17.554,3.28,43.826,43.826,0,0,1-17.734,3.312,43.837,43.837,0,0,1-17.744-3.312,43.477,43.477,0,0,0-17.554-3.28v-.54a44.059,44.059,0,0,1,17.744,3.3,43.255,43.255,0,0,0,17.554,3.28,43.2,43.2,0,0,0,17.543-3.28,44.1,44.1,0,0,1,17.744-3.3,44.059,44.059,0,0,1,17.744,3.3,48.577,48.577,0,0,0,35.1,0,49.339,49.339,0,0,1,35.488,0,48.577,48.577,0,0,0,35.1,0,49.339,49.339,0,0,1,35.488,0,48.609,48.609,0,0,0,35.107,0,44.059,44.059,0,0,1,17.744-3.3v.54a43.435,43.435,0,0,0-17.554,3.28,43.878,43.878,0,0,1-17.744,3.312Z" transform="translate(167.58 -1.524)" fill="#fdd08f"/>
          <path id="패스_494" data-name="패스 494" d="M361.866,165.644a44.027,44.027,0,0,1-17.744-3.312,48.609,48.609,0,0,0-35.107,0,49.159,49.159,0,0,1-35.478,0,48.609,48.609,0,0,0-35.107,0,49.159,49.159,0,0,1-35.478,0,43.3,43.3,0,0,0-17.554-3.28,43.3,43.3,0,0,0-17.554,3.28,44.006,44.006,0,0,1-17.734,3.312,44.027,44.027,0,0,1-17.744-3.312,43.3,43.3,0,0,0-17.554-3.28v-.55a43.836,43.836,0,0,1,17.744,3.312,43.435,43.435,0,0,0,17.554,3.28,43.382,43.382,0,0,0,17.543-3.28A43.879,43.879,0,0,1,185.4,158.5a43.836,43.836,0,0,1,17.744,3.312,48.577,48.577,0,0,0,35.1,0,49.19,49.19,0,0,1,35.488,0,48.577,48.577,0,0,0,35.1,0,49.19,49.19,0,0,1,35.488,0,48.609,48.609,0,0,0,35.107,0,43.836,43.836,0,0,1,17.744-3.312v.55a43.255,43.255,0,0,0-17.554,3.28,44.069,44.069,0,0,1-17.744,3.312Z" transform="translate(167.58 -1.524)" fill="#fdd08f"/>
          <path id="패스_495" data-name="패스 495" d="M361.866,158.5a43.837,43.837,0,0,1-17.744-3.312,48.757,48.757,0,0,0-35.107,0,49.159,49.159,0,0,1-35.478,0,48.757,48.757,0,0,0-35.107,0,49.159,49.159,0,0,1-35.478,0A43.509,43.509,0,0,0,185.4,151.92a43.509,43.509,0,0,0-17.554,3.27,43.826,43.826,0,0,1-17.734,3.312,43.837,43.837,0,0,1-17.744-3.312,43.509,43.509,0,0,0-17.554-3.27v-.55a43.837,43.837,0,0,1,17.744,3.312,43.466,43.466,0,0,0,17.554,3.27,43.382,43.382,0,0,0,17.543-3.27A43.879,43.879,0,0,1,185.4,151.37a43.837,43.837,0,0,1,17.744,3.312,48.725,48.725,0,0,0,35.1,0,49.191,49.191,0,0,1,35.488,0,48.725,48.725,0,0,0,35.1,0,49.191,49.191,0,0,1,35.488,0,48.757,48.757,0,0,0,35.107,0,43.837,43.837,0,0,1,17.744-3.312v.55a43.467,43.467,0,0,0-17.554,3.27,43.879,43.879,0,0,1-17.744,3.312Z" transform="translate(167.58 -1.524)" fill="#fdd08f"/>
          <path id="패스_496" data-name="패스 496" d="M361.866,151.37a43.837,43.837,0,0,1-17.744-3.312,48.608,48.608,0,0,0-35.107,0,49.159,49.159,0,0,1-35.478,0,48.608,48.608,0,0,0-35.107,0,49.159,49.159,0,0,1-35.478,0,43.477,43.477,0,0,0-17.554-3.28,43.477,43.477,0,0,0-17.554,3.28,43.826,43.826,0,0,1-17.734,3.312,43.837,43.837,0,0,1-17.744-3.312,43.477,43.477,0,0,0-17.554-3.28v-.55a43.837,43.837,0,0,1,17.744,3.312,43.255,43.255,0,0,0,17.554,3.28,43.2,43.2,0,0,0,17.543-3.28,43.879,43.879,0,0,1,17.744-3.312,43.837,43.837,0,0,1,17.744,3.312,48.577,48.577,0,0,0,35.1,0,49.191,49.191,0,0,1,35.488,0,48.577,48.577,0,0,0,35.1,0,49.19,49.19,0,0,1,35.488,0,48.609,48.609,0,0,0,35.107,0,43.836,43.836,0,0,1,17.744-3.312v.55a43.435,43.435,0,0,0-17.554,3.28A43.879,43.879,0,0,1,361.866,151.37Z" transform="translate(167.58 -1.524)" fill="#fdd08f"/>
          <rect id="사각형_386" data-name="사각형 386" width="282.34" height="35.679" transform="translate(282.34 178.383)" fill="none"/>
          <path id="패스_497" data-name="패스 497" d="M361.866,215.586a43.836,43.836,0,0,1-17.744-3.312,48.757,48.757,0,0,0-35.107,0,49.159,49.159,0,0,1-35.478,0,48.757,48.757,0,0,0-35.107,0,49.159,49.159,0,0,1-35.478,0A43.509,43.509,0,0,0,185.4,209a43.509,43.509,0,0,0-17.554,3.269,43.826,43.826,0,0,1-17.734,3.312,43.836,43.836,0,0,1-17.744-3.312A43.508,43.508,0,0,0,114.813,209v-.561a43.836,43.836,0,0,1,17.744,3.312,43.466,43.466,0,0,0,17.554,3.27,43.382,43.382,0,0,0,17.543-3.27,43.879,43.879,0,0,1,17.691-3.312,43.837,43.837,0,0,1,17.744,3.312,48.725,48.725,0,0,0,35.1,0,49.191,49.191,0,0,1,35.488,0,48.725,48.725,0,0,0,35.1,0,49.191,49.191,0,0,1,35.488,0,48.756,48.756,0,0,0,35.107,0,43.836,43.836,0,0,1,17.744-3.312v.55a43.467,43.467,0,0,0-17.554,3.269,43.879,43.879,0,0,1-17.691,3.322Z" transform="translate(167.58 -1.524)" fill="#fdd08f"/>
          <path id="패스_498" data-name="패스 498" d="M361.866,208.443a43.837,43.837,0,0,1-17.744-3.312,48.608,48.608,0,0,0-35.107,0,49.159,49.159,0,0,1-35.478,0,48.609,48.609,0,0,0-35.107,0,49.159,49.159,0,0,1-35.478,0,43.477,43.477,0,0,0-17.554-3.28,43.477,43.477,0,0,0-17.554,3.28,43.826,43.826,0,0,1-17.787,3.312,43.837,43.837,0,0,1-17.744-3.312,43.477,43.477,0,0,0-17.554-3.28v-.55a43.837,43.837,0,0,1,17.744,3.312,43.255,43.255,0,0,0,17.554,3.28,43.2,43.2,0,0,0,17.543-3.28,43.879,43.879,0,0,1,17.744-3.312,43.837,43.837,0,0,1,17.744,3.312,48.577,48.577,0,0,0,35.1,0,49.191,49.191,0,0,1,35.488,0,48.577,48.577,0,0,0,35.1,0,49.191,49.191,0,0,1,35.488,0,48.609,48.609,0,0,0,35.107,0,43.836,43.836,0,0,1,17.744-3.312v.55a43.434,43.434,0,0,0-17.554,3.28,43.879,43.879,0,0,1-17.691,3.312Z" transform="translate(167.58 -1.524)" fill="#fdd08f"/>
          <path id="패스_499" data-name="패스 499" d="M361.866,201.312A43.837,43.837,0,0,1,344.122,198a48.757,48.757,0,0,0-35.107,0,49.159,49.159,0,0,1-35.478,0,48.757,48.757,0,0,0-35.107,0,49.159,49.159,0,0,1-35.478,0,43.508,43.508,0,0,0-17.607-3.312,43.509,43.509,0,0,0-17.554,3.269,43.826,43.826,0,0,1-17.734,3.312,43.837,43.837,0,0,1-17.744-3.312,43.509,43.509,0,0,0-17.554-3.269v-.55A43.837,43.837,0,0,1,132.5,197.45a43.435,43.435,0,0,0,17.554,3.28,43.382,43.382,0,0,0,17.543-3.28,43.879,43.879,0,0,1,17.744-3.312,43.837,43.837,0,0,1,17.744,3.312,48.577,48.577,0,0,0,35.1,0,49.19,49.19,0,0,1,35.488,0,48.577,48.577,0,0,0,35.1,0,49.19,49.19,0,0,1,35.488,0,48.608,48.608,0,0,0,35.107,0,43.837,43.837,0,0,1,17.744-3.312v.55a43.466,43.466,0,0,0-17.554,3.269,43.879,43.879,0,0,1-17.691,3.354Z" transform="translate(167.58 -1.524)" fill="#fdd08f"/>
          <path id="패스_500" data-name="패스 500" d="M361.866,194.18a43.837,43.837,0,0,1-17.744-3.312,48.608,48.608,0,0,0-35.107,0,49.159,49.159,0,0,1-35.478,0,48.609,48.609,0,0,0-35.107,0,49.159,49.159,0,0,1-35.478,0,43.477,43.477,0,0,0-17.554-3.28,43.477,43.477,0,0,0-17.554,3.28,43.826,43.826,0,0,1-17.734,3.312,43.837,43.837,0,0,1-17.744-3.312,43.477,43.477,0,0,0-17.554-3.28v-.54a43.837,43.837,0,0,1,17.744,3.312,43.467,43.467,0,0,0,17.5,3.269,43.382,43.382,0,0,0,17.543-3.27,43.879,43.879,0,0,1,17.744-3.312,43.837,43.837,0,0,1,17.744,3.312,48.725,48.725,0,0,0,35.1,0,49.19,49.19,0,0,1,35.488,0,48.725,48.725,0,0,0,35.1,0,49.191,49.191,0,0,1,35.488,0,48.757,48.757,0,0,0,35.107,0,43.837,43.837,0,0,1,17.744-3.312v.54a43.434,43.434,0,0,0-17.554,3.28,43.879,43.879,0,0,1-17.691,3.312Z" transform="translate(167.58 -1.524)" fill="#fdd08f"/>
          <path id="패스_501" data-name="패스 501" d="M361.866,187.049a43.837,43.837,0,0,1-17.744-3.312,48.608,48.608,0,0,0-35.107,0,49.159,49.159,0,0,1-35.478,0,48.609,48.609,0,0,0-35.107,0,49.159,49.159,0,0,1-35.478,0,43.3,43.3,0,0,0-17.554-3.28,43.3,43.3,0,0,0-17.554,3.28,43.826,43.826,0,0,1-17.734,3.312,43.837,43.837,0,0,1-17.744-3.312,43.3,43.3,0,0,0-17.554-3.28v-.582a43.837,43.837,0,0,1,17.744,3.312,43.435,43.435,0,0,0,17.554,3.28,43.382,43.382,0,0,0,17.543-3.28,43.879,43.879,0,0,1,17.691-3.312,43.837,43.837,0,0,1,17.744,3.312,48.577,48.577,0,0,0,35.1,0,49.19,49.19,0,0,1,35.488,0,48.577,48.577,0,0,0,35.1,0,49.191,49.191,0,0,1,35.488,0,48.608,48.608,0,0,0,35.107,0,43.837,43.837,0,0,1,17.744-3.312v.55a43.255,43.255,0,0,0-17.554,3.28,43.878,43.878,0,0,1-17.691,3.344Z" transform="translate(167.58 -1.524)" fill="#fdd08f"/>
          <rect id="사각형_387" data-name="사각형 387" width="282.34" height="35.679" fill="none"/>
          <path id="패스_502" data-name="패스 502" d="M79.473,37.2a43.836,43.836,0,0,1-17.744-3.344,43.477,43.477,0,0,0-17.554-3.28,43.477,43.477,0,0,0-17.554,3.28A43.837,43.837,0,0,1,8.877,37.2,43.921,43.921,0,0,1-8.867,33.859a43.382,43.382,0,0,0-17.585-3.248,43.477,43.477,0,0,0-17.511,3.248,43.837,43.837,0,0,1-17.744,3.312,43.826,43.826,0,0,1-17.734-3.312,43.477,43.477,0,0,0-17.554-3.28,43.477,43.477,0,0,0-17.554,3.28A43.837,43.837,0,0,1-132.261,37.2a43.826,43.826,0,0,1-17.765-3.344,43.477,43.477,0,0,0-17.554-3.28v-.55a43.837,43.837,0,0,1,17.744,3.312,43.234,43.234,0,0,0,17.575,3.312,43.255,43.255,0,0,0,17.554-3.28A43.837,43.837,0,0,1-96.963,30.06a43.837,43.837,0,0,1,17.712,3.312,43.234,43.234,0,0,0,17.543,3.28,43.255,43.255,0,0,0,17.554-3.28,43.837,43.837,0,0,1,17.7-3.312A43.921,43.921,0,0,1-8.666,33.372a43.2,43.2,0,0,0,17.543,3.28,43.255,43.255,0,0,0,17.575-3.28A43.837,43.837,0,0,1,44.2,30.06a43.837,43.837,0,0,1,17.744,3.312,43.255,43.255,0,0,0,17.554,3.28,43.2,43.2,0,0,0,17.543-3.28,43.921,43.921,0,0,1,17.744-3.312v.55a43.382,43.382,0,0,0-17.564,3.248A43.921,43.921,0,0,1,79.473,37.2Z" transform="translate(167.58 -1.524)" fill="#fdd08f"/>
          <path id="패스_503" data-name="패스 503" d="M79.473,30.06a43.837,43.837,0,0,1-17.744-3.312,43.508,43.508,0,0,0-17.554-3.269,43.509,43.509,0,0,0-17.554,3.269A43.837,43.837,0,0,1,8.877,30.06,43.921,43.921,0,0,1-8.867,26.748a43.382,43.382,0,0,0-17.585-3.269,43.509,43.509,0,0,0-17.554,3.269A43.837,43.837,0,0,1-61.75,30.06a43.826,43.826,0,0,1-17.734-3.312,43.509,43.509,0,0,0-17.554-3.269,43.509,43.509,0,0,0-17.554,3.269,43.837,43.837,0,0,1-17.67,3.312,43.826,43.826,0,0,1-17.734-3.312,43.509,43.509,0,0,0-17.554-3.269v-.55A43.837,43.837,0,0,1-149.8,26.241a43.382,43.382,0,0,0,17.543,3.28,43.435,43.435,0,0,0,17.554-3.28,43.837,43.837,0,0,1,17.744-3.312,43.836,43.836,0,0,1,17.712,3.312,43.382,43.382,0,0,0,17.543,3.28,43.435,43.435,0,0,0,17.554-3.28,43.837,43.837,0,0,1,17.7-3.312A43.921,43.921,0,0,1-8.666,26.241a43.382,43.382,0,0,0,17.543,3.28,43.435,43.435,0,0,0,17.575-3.28A43.837,43.837,0,0,1,44.2,22.929a43.837,43.837,0,0,1,17.723,3.312,43.435,43.435,0,0,0,17.554,3.28,43.382,43.382,0,0,0,17.543-3.28,43.921,43.921,0,0,1,17.744-3.312v.55a43.382,43.382,0,0,0-17.543,3.269A43.921,43.921,0,0,1,79.473,30.06Z" transform="translate(167.58 -1.524)" fill="#fdd08f"/>
          <path id="패스_504" data-name="패스 504" d="M79.473,22.929a43.837,43.837,0,0,1-17.744-3.312,43.477,43.477,0,0,0-17.554-3.28,43.477,43.477,0,0,0-17.554,3.28A43.837,43.837,0,0,1,8.877,22.929,43.921,43.921,0,0,1-8.867,19.617a43.382,43.382,0,0,0-17.585-3.28,43.477,43.477,0,0,0-17.554,3.28A43.836,43.836,0,0,1-61.75,22.929a43.826,43.826,0,0,1-17.734-3.312,43.477,43.477,0,0,0-17.554-3.28,43.477,43.477,0,0,0-17.554,3.28,43.837,43.837,0,0,1-17.67,3.312,43.826,43.826,0,0,1-17.734-3.312,43.477,43.477,0,0,0-17.554-3.28V15.8A43.837,43.837,0,0,1-149.8,19.109a43.456,43.456,0,0,0,17.543,3.269,43.466,43.466,0,0,0,17.554-3.269A43.837,43.837,0,0,1-96.963,15.8a43.837,43.837,0,0,1,17.712,3.312,43.456,43.456,0,0,0,17.543,3.269,43.466,43.466,0,0,0,17.554-3.27,43.837,43.837,0,0,1,17.7-3.312A43.921,43.921,0,0,1-8.666,19.109,43.382,43.382,0,0,0,8.877,22.379a43.466,43.466,0,0,0,17.575-3.269A43.836,43.836,0,0,1,44.2,15.8a43.837,43.837,0,0,1,17.744,3.312,43.466,43.466,0,0,0,17.554,3.269,43.382,43.382,0,0,0,17.543-3.269A43.921,43.921,0,0,1,114.781,15.8v.54a43.382,43.382,0,0,0-17.543,3.28A43.921,43.921,0,0,1,79.473,22.929Z" transform="translate(167.58 -1.524)" fill="#fdd08f"/>
          <path id="패스_505" data-name="패스 505" d="M79.473,15.8a43.837,43.837,0,0,1-17.744-3.312,43.3,43.3,0,0,0-17.554-3.28,43.3,43.3,0,0,0-17.554,3.28A43.837,43.837,0,0,1,8.877,15.8,43.921,43.921,0,0,1-8.867,12.485a43.2,43.2,0,0,0-17.585-3.28,43.3,43.3,0,0,0-17.554,3.28A43.836,43.836,0,0,1-61.75,15.8a43.826,43.826,0,0,1-17.691-3.312,43.3,43.3,0,0,0-17.554-3.28,43.3,43.3,0,0,0-17.554,3.28A43.837,43.837,0,0,1-132.261,15.8a43.826,43.826,0,0,1-17.734-3.312,43.3,43.3,0,0,0-17.554-3.28v-.55A43.837,43.837,0,0,1-149.8,11.967a43.382,43.382,0,0,0,17.543,3.28,43.435,43.435,0,0,0,17.554-3.28A43.837,43.837,0,0,1-96.995,8.655a43.837,43.837,0,0,1,17.744,3.312,43.382,43.382,0,0,0,17.543,3.28,43.435,43.435,0,0,0,17.554-3.28,43.837,43.837,0,0,1,17.7-3.312A43.921,43.921,0,0,1-8.666,11.967a43.382,43.382,0,0,0,17.543,3.28,43.435,43.435,0,0,0,17.575-3.28A43.837,43.837,0,0,1,44.175,8.655a43.837,43.837,0,0,1,17.744,3.312,43.434,43.434,0,0,0,17.554,3.28,43.382,43.382,0,0,0,17.543-3.28A43.921,43.921,0,0,1,114.76,8.655v.55a43.2,43.2,0,0,0-17.543,3.28A43.921,43.921,0,0,1,79.473,15.8Z" transform="translate(167.58 -1.524)" fill="#fdd08f"/>
          <path id="패스_506" data-name="패스 506" d="M79.473,8.655A43.837,43.837,0,0,1,61.729,5.343,43.509,43.509,0,0,0,44.175,2.116,43.509,43.509,0,0,0,26.622,5.343,43.837,43.837,0,0,1,8.877,8.655,43.921,43.921,0,0,1-8.867,5.343,43.382,43.382,0,0,0-26.452,2.116,43.509,43.509,0,0,0-43.964,5.343,43.837,43.837,0,0,1-61.708,8.655,43.826,43.826,0,0,1-79.441,5.343,43.509,43.509,0,0,0-96.995,2.116a43.509,43.509,0,0,0-17.554,3.27,43.837,43.837,0,0,1-17.712,3.269,43.826,43.826,0,0,1-17.734-3.312A43.509,43.509,0,0,0-167.58,2.116V1.524a43.837,43.837,0,0,1,17.744,3.312A43.456,43.456,0,0,0-132.261,8.1a43.466,43.466,0,0,0,17.554-3.269A43.837,43.837,0,0,1-96.995,1.524,43.837,43.837,0,0,1-79.251,4.835,43.456,43.456,0,0,0-61.708,8.1a43.466,43.466,0,0,0,17.554-3.27,43.837,43.837,0,0,1,17.7-3.312A43.921,43.921,0,0,1-8.666,4.835,43.382,43.382,0,0,0,8.877,8.1,43.466,43.466,0,0,0,26.452,4.835,43.837,43.837,0,0,1,44.175,1.524,43.837,43.837,0,0,1,61.919,4.835,43.466,43.466,0,0,0,79.473,8.1,43.382,43.382,0,0,0,97.016,4.835,43.921,43.921,0,0,1,114.76,1.524v.593A43.382,43.382,0,0,0,97.217,5.343,43.921,43.921,0,0,1,79.473,8.655Z" transform="translate(167.58 -1.524)" fill="#fdd08f"/>
          <rect id="사각형_388" data-name="사각형 388" width="282.34" height="35.679" transform="translate(0 35.679)" fill="none"/>
          <path id="패스_507" data-name="패스 507" d="M79.473,72.881a43.837,43.837,0,0,1-17.744-3.312,43.3,43.3,0,0,0-17.554-3.28,43.3,43.3,0,0,0-17.554,3.28A43.837,43.837,0,0,1,8.877,72.881,43.921,43.921,0,0,1-8.867,69.569a43.2,43.2,0,0,0-17.585-3.28,43.3,43.3,0,0,0-17.554,3.28A43.837,43.837,0,0,1-61.75,72.881a43.826,43.826,0,0,1-17.734-3.312,43.3,43.3,0,0,0-17.554-3.28,43.3,43.3,0,0,0-17.554,3.28,43.836,43.836,0,0,1-17.67,3.312,43.826,43.826,0,0,1-17.734-3.312,43.3,43.3,0,0,0-17.554-3.28v-.55A43.837,43.837,0,0,1-149.8,69.051a43.381,43.381,0,0,0,17.543,3.28,43.435,43.435,0,0,0,17.554-3.28,43.836,43.836,0,0,1,17.744-3.312,43.837,43.837,0,0,1,17.712,3.312,43.382,43.382,0,0,0,17.543,3.28,43.434,43.434,0,0,0,17.554-3.28,43.837,43.837,0,0,1,17.7-3.312A43.921,43.921,0,0,1-8.666,69.051a43.382,43.382,0,0,0,17.543,3.28,43.435,43.435,0,0,0,17.575-3.28A43.837,43.837,0,0,1,44.2,65.739a43.837,43.837,0,0,1,17.744,3.312,43.434,43.434,0,0,0,17.554,3.28,43.382,43.382,0,0,0,17.543-3.28,43.921,43.921,0,0,1,17.744-3.312v.55a43.2,43.2,0,0,0-17.543,3.28A43.921,43.921,0,0,1,79.473,72.881Z" transform="translate(167.58 -1.524)" fill="#fdd08f"/>
          <path id="패스_508" data-name="패스 508" d="M79.473,65.739a43.837,43.837,0,0,1-17.744-3.312,43.509,43.509,0,0,0-17.554-3.269,43.509,43.509,0,0,0-17.554,3.269A43.837,43.837,0,0,1,8.877,65.739,43.921,43.921,0,0,1-8.867,62.427a43.382,43.382,0,0,0-17.585-3.27,43.509,43.509,0,0,0-17.511,3.269,43.837,43.837,0,0,1-17.744,3.312,43.826,43.826,0,0,1-17.734-3.312,43.509,43.509,0,0,0-17.554-3.269,43.509,43.509,0,0,0-17.554,3.269,43.837,43.837,0,0,1-17.712,3.312,43.826,43.826,0,0,1-17.765-3.312,43.509,43.509,0,0,0-17.554-3.269v-.55a43.836,43.836,0,0,1,17.744,3.312,43.456,43.456,0,0,0,17.575,3.269,43.466,43.466,0,0,0,17.554-3.269,43.837,43.837,0,0,1,17.744-3.312,43.837,43.837,0,0,1,17.712,3.312,43.456,43.456,0,0,0,17.543,3.269,43.466,43.466,0,0,0,17.554-3.269,43.837,43.837,0,0,1,17.7-3.312A43.921,43.921,0,0,1-8.666,61.919,43.382,43.382,0,0,0,8.877,65.189a43.466,43.466,0,0,0,17.575-3.269A43.836,43.836,0,0,1,44.2,58.608a43.837,43.837,0,0,1,17.744,3.312,43.466,43.466,0,0,0,17.554,3.269,43.382,43.382,0,0,0,17.543-3.269,43.921,43.921,0,0,1,17.744-3.312v.55a43.382,43.382,0,0,0-17.564,3.269,43.921,43.921,0,0,1-17.744,3.312Z" transform="translate(167.58 -1.524)" fill="#fdd08f"/>
          <path id="패스_509" data-name="패스 509" d="M79.473,58.608A43.837,43.837,0,0,1,61.729,55.3a43.477,43.477,0,0,0-17.554-3.28A43.477,43.477,0,0,0,26.622,55.3,43.837,43.837,0,0,1,8.877,58.608,43.921,43.921,0,0,1-8.867,55.3a43.382,43.382,0,0,0-17.585-3.28A43.477,43.477,0,0,0-44.006,55.3,43.837,43.837,0,0,1-61.75,58.608,43.826,43.826,0,0,1-79.484,55.3a43.477,43.477,0,0,0-17.554-3.28,43.477,43.477,0,0,0-17.554,3.28,43.837,43.837,0,0,1-17.67,3.312A43.826,43.826,0,0,1-149.995,55.3a43.477,43.477,0,0,0-17.554-3.28v-.55A44.027,44.027,0,0,1-149.8,54.777a43.234,43.234,0,0,0,17.543,3.28,43.255,43.255,0,0,0,17.554-3.28,44.027,44.027,0,0,1,17.744-3.312,44.027,44.027,0,0,1,17.712,3.312,43.233,43.233,0,0,0,17.543,3.28,43.255,43.255,0,0,0,17.554-3.28,44.027,44.027,0,0,1,17.7-3.312A44.1,44.1,0,0,1-8.666,54.777a43.2,43.2,0,0,0,17.543,3.28,43.255,43.255,0,0,0,17.575-3.28A44.027,44.027,0,0,1,44.2,51.465a44.027,44.027,0,0,1,17.744,3.312,43.255,43.255,0,0,0,17.554,3.28,43.2,43.2,0,0,0,17.543-3.28,44.1,44.1,0,0,1,17.744-3.312v.55A43.382,43.382,0,0,0,97.238,55.3a43.921,43.921,0,0,1-17.765,3.312Z" transform="translate(167.58 -1.524)" fill="#fdd08f"/>
          <path id="패스_510" data-name="패스 510" d="M79.473,51.465a44.059,44.059,0,0,1-17.744-3.3,43.3,43.3,0,0,0-17.554-3.28,43.3,43.3,0,0,0-17.554,3.28,44.059,44.059,0,0,1-17.744,3.3,44.133,44.133,0,0,1-17.744-3.3,43.2,43.2,0,0,0-17.585-3.28,43.3,43.3,0,0,0-17.554,3.28,44.059,44.059,0,0,1-17.744,3.3,44.038,44.038,0,0,1-17.734-3.3,43.3,43.3,0,0,0-17.554-3.28,43.3,43.3,0,0,0-17.554,3.28,44.059,44.059,0,0,1-17.67,3.3,44.038,44.038,0,0,1-17.734-3.3,43.3,43.3,0,0,0-17.554-3.28v-.55a43.837,43.837,0,0,1,17.712,3.28,43.382,43.382,0,0,0,17.575,3.312,43.435,43.435,0,0,0,17.522-3.312,43.837,43.837,0,0,1,17.744-3.28,43.837,43.837,0,0,1,17.744,3.28,43.382,43.382,0,0,0,17.543,3.28,43.435,43.435,0,0,0,17.554-3.28,43.837,43.837,0,0,1,17.7-3.28,43.921,43.921,0,0,1,17.786,3.28,43.382,43.382,0,0,0,17.543,3.28,43.435,43.435,0,0,0,17.575-3.28,43.837,43.837,0,0,1,17.723-3.28,43.837,43.837,0,0,1,17.744,3.28,43.435,43.435,0,0,0,17.554,3.28,43.382,43.382,0,0,0,17.543-3.28A43.921,43.921,0,0,1,114.76,44.3v.55a43.2,43.2,0,0,0-17.543,3.28,44.133,44.133,0,0,1-17.744,3.333Z" transform="translate(167.58 -1.524)" fill="#fdd08f"/>
          <path id="패스_511" data-name="패스 511" d="M79.473,44.334a43.837,43.837,0,0,1-17.744-3.312,43.509,43.509,0,0,0-17.554-3.269,43.509,43.509,0,0,0-17.554,3.269A43.837,43.837,0,0,1,8.877,44.334,43.921,43.921,0,0,1-8.867,41.022a43.381,43.381,0,0,0-17.585-3.269,43.509,43.509,0,0,0-17.554,3.269,43.837,43.837,0,0,1-17.7,3.312,43.826,43.826,0,0,1-17.734-3.312,43.509,43.509,0,0,0-17.554-3.269,43.509,43.509,0,0,0-17.554,3.269,43.837,43.837,0,0,1-17.712,3.312,43.826,43.826,0,0,1-17.734-3.312,43.509,43.509,0,0,0-17.554-3.269V37.2A43.836,43.836,0,0,1-149.8,40.514a43.456,43.456,0,0,0,17.543,3.269,43.466,43.466,0,0,0,17.554-3.269A43.837,43.837,0,0,1-96.963,37.2a43.837,43.837,0,0,1,17.712,3.312,43.456,43.456,0,0,0,17.543,3.27,43.466,43.466,0,0,0,17.554-3.27,43.837,43.837,0,0,1,17.7-3.312A43.921,43.921,0,0,1-8.666,40.514,43.382,43.382,0,0,0,8.877,43.784a43.466,43.466,0,0,0,17.575-3.269A43.837,43.837,0,0,1,44.2,37.2a43.837,43.837,0,0,1,17.744,3.312,43.466,43.466,0,0,0,17.554,3.269,43.382,43.382,0,0,0,17.543-3.27A43.921,43.921,0,0,1,114.781,37.2v.55a43.382,43.382,0,0,0-17.543,3.269,43.922,43.922,0,0,1-17.765,3.312Z" transform="translate(167.58 -1.524)" fill="#fdd08f"/>
          <rect id="사각형_389" data-name="사각형 389" width="282.34" height="35.679" transform="translate(0 71.357)" fill="none"/>
          <path id="패스_512" data-name="패스 512" d="M79.473,108.56a44.027,44.027,0,0,1-17.744-3.312,43.3,43.3,0,0,0-17.554-3.28,43.3,43.3,0,0,0-17.554,3.28A44.027,44.027,0,0,1,8.877,108.56a44.1,44.1,0,0,1-17.744-3.312,43.2,43.2,0,0,0-17.585-3.28,43.3,43.3,0,0,0-17.554,3.28A44.027,44.027,0,0,1-61.75,108.56a44.006,44.006,0,0,1-17.734-3.312,43.3,43.3,0,0,0-17.554-3.28,43.3,43.3,0,0,0-17.554,3.28,44.027,44.027,0,0,1-17.67,3.312,44.005,44.005,0,0,1-17.734-3.312,43.3,43.3,0,0,0-17.554-3.28v-.55a43.837,43.837,0,0,1,17.712,3.333,43.382,43.382,0,0,0,17.543,3.28,43.434,43.434,0,0,0,17.554-3.28,43.836,43.836,0,0,1,17.744-3.312,43.837,43.837,0,0,1,17.744,3.312,43.382,43.382,0,0,0,17.543,3.28,43.434,43.434,0,0,0,17.554-3.28,43.837,43.837,0,0,1,17.7-3.333,43.921,43.921,0,0,1,17.786,3.333,43.382,43.382,0,0,0,17.543,3.28,43.435,43.435,0,0,0,17.575-3.28A43.837,43.837,0,0,1,44.2,101.439a43.837,43.837,0,0,1,17.723,3.312,43.434,43.434,0,0,0,17.554,3.28,43.382,43.382,0,0,0,17.543-3.28,43.921,43.921,0,0,1,17.744-3.312v.55a43.2,43.2,0,0,0-17.543,3.28,44.1,44.1,0,0,1-17.744,3.291Z" transform="translate(167.58 -1.524)" fill="#fdd08f"/>
          <path id="패스_513" data-name="패스 513" d="M79.473,101.418a43.837,43.837,0,0,1-17.744-3.312,43.509,43.509,0,0,0-17.554-3.269,43.509,43.509,0,0,0-17.554,3.269,43.837,43.837,0,0,1-17.744,3.312A43.921,43.921,0,0,1-8.867,98.106a43.382,43.382,0,0,0-17.585-3.27,43.509,43.509,0,0,0-17.554,3.269,43.837,43.837,0,0,1-17.744,3.312,43.826,43.826,0,0,1-17.734-3.312,43.508,43.508,0,0,0-17.554-3.27,43.508,43.508,0,0,0-17.554,3.269,43.837,43.837,0,0,1-17.67,3.312,43.826,43.826,0,0,1-17.734-3.312,43.509,43.509,0,0,0-17.554-3.269v-.55A43.837,43.837,0,0,1-149.8,97.6a43.455,43.455,0,0,0,17.543,3.269A43.466,43.466,0,0,0-114.707,97.6a43.837,43.837,0,0,1,17.744-3.312A43.837,43.837,0,0,1-79.251,97.6a43.456,43.456,0,0,0,17.543,3.269A43.466,43.466,0,0,0-44.154,97.6a43.837,43.837,0,0,1,17.7-3.312A43.922,43.922,0,0,1-8.666,97.6a43.382,43.382,0,0,0,17.543,3.269A43.466,43.466,0,0,0,26.452,97.6,43.836,43.836,0,0,1,44.2,94.286,43.836,43.836,0,0,1,61.941,97.6a43.466,43.466,0,0,0,17.554,3.269A43.381,43.381,0,0,0,97.037,97.6a43.921,43.921,0,0,1,17.744-3.312v.55a43.381,43.381,0,0,0-17.543,3.27A43.921,43.921,0,0,1,79.473,101.418Z" transform="translate(167.58 -1.524)" fill="#fdd08f"/>
          <path id="패스_514" data-name="패스 514" d="M79.473,94.286A43.837,43.837,0,0,1,61.729,91a43.477,43.477,0,0,0-17.554-3.28A43.477,43.477,0,0,0,26.622,91,43.837,43.837,0,0,1,8.877,94.286,43.921,43.921,0,0,1-8.867,91a43.382,43.382,0,0,0-17.585-3.3A43.477,43.477,0,0,0-43.964,91a43.837,43.837,0,0,1-17.744,3.312A43.826,43.826,0,0,1-79.441,91a43.477,43.477,0,0,0-17.554-3.28A43.477,43.477,0,0,0-114.549,91a43.837,43.837,0,0,1-17.712,3.291A43.826,43.826,0,0,1-150.026,91a43.477,43.477,0,0,0-17.554-3.28v-.55a43.837,43.837,0,0,1,17.744,3.312,43.234,43.234,0,0,0,17.575,3.259,43.255,43.255,0,0,0,17.554-3.28,43.837,43.837,0,0,1,17.744-3.312,43.837,43.837,0,0,1,17.712,3.312,43.233,43.233,0,0,0,17.543,3.28,43.255,43.255,0,0,0,17.554-3.28,43.837,43.837,0,0,1,17.7-3.312A43.921,43.921,0,0,1-8.666,90.456a43.2,43.2,0,0,0,17.543,3.28,43.255,43.255,0,0,0,17.575-3.28A43.837,43.837,0,0,1,44.2,87.144a43.837,43.837,0,0,1,17.744,3.312,43.255,43.255,0,0,0,17.554,3.28,43.2,43.2,0,0,0,17.543-3.28,43.922,43.922,0,0,1,17.744-3.312v.55A43.382,43.382,0,0,0,97.217,91,43.921,43.921,0,0,1,79.473,94.286Z" transform="translate(167.58 -1.524)" fill="#fdd08f"/>
          <path id="패스_515" data-name="패스 515" d="M79.473,87.144a43.837,43.837,0,0,1-17.744-3.312,43.509,43.509,0,0,0-17.554-3.269,43.509,43.509,0,0,0-17.554,3.269A43.837,43.837,0,0,1,8.877,87.144,43.921,43.921,0,0,1-8.867,83.832a43.381,43.381,0,0,0-17.585-3.269,43.509,43.509,0,0,0-17.554,3.27A43.837,43.837,0,0,1-61.75,87.144a43.826,43.826,0,0,1-17.734-3.312,43.509,43.509,0,0,0-17.554-3.269,43.509,43.509,0,0,0-17.554,3.269,43.837,43.837,0,0,1-17.67,3.312,43.826,43.826,0,0,1-17.734-3.312,43.509,43.509,0,0,0-17.554-3.269v-.55A43.837,43.837,0,0,1-149.8,83.324a43.382,43.382,0,0,0,17.543,3.28,43.434,43.434,0,0,0,17.554-3.28,43.837,43.837,0,0,1,17.744-3.312,43.837,43.837,0,0,1,17.712,3.312A43.382,43.382,0,0,0-61.708,86.6a43.434,43.434,0,0,0,17.554-3.28,43.837,43.837,0,0,1,17.7-3.312A43.921,43.921,0,0,1-8.666,83.324,43.382,43.382,0,0,0,8.877,86.6a43.435,43.435,0,0,0,17.575-3.28A43.837,43.837,0,0,1,44.2,80.013a43.837,43.837,0,0,1,17.744,3.312A43.434,43.434,0,0,0,79.494,86.6a43.382,43.382,0,0,0,17.543-3.28,43.921,43.921,0,0,1,17.744-3.312v.55a43.382,43.382,0,0,0-17.543,3.269,43.921,43.921,0,0,1-17.765,3.312Z" transform="translate(167.58 -1.524)" fill="#fdd08f"/>
          <path id="패스_516" data-name="패스 516" d="M79.473,80.013A43.837,43.837,0,0,1,61.729,76.7a43.477,43.477,0,0,0-17.554-3.28A43.477,43.477,0,0,0,26.622,76.7,43.837,43.837,0,0,1,8.877,80.013,43.921,43.921,0,0,1-8.867,76.7a43.382,43.382,0,0,0-17.585-3.28A43.477,43.477,0,0,0-44.006,76.7,43.837,43.837,0,0,1-61.75,80.013,43.826,43.826,0,0,1-79.484,76.7a43.477,43.477,0,0,0-17.554-3.28,43.477,43.477,0,0,0-17.554,3.28,43.836,43.836,0,0,1-17.67,3.312A43.826,43.826,0,0,1-149.995,76.7a43.477,43.477,0,0,0-17.554-3.28v-.54a43.837,43.837,0,0,1,17.712,3.3,43.456,43.456,0,0,0,17.575,3.28,43.466,43.466,0,0,0,17.522-3.28,43.836,43.836,0,0,1,17.744-3.312,43.837,43.837,0,0,1,17.744,3.312,43.455,43.455,0,0,0,17.543,3.28,43.466,43.466,0,0,0,17.554-3.28,43.837,43.837,0,0,1,17.7-3.3,43.921,43.921,0,0,1,17.786,3.3,43.382,43.382,0,0,0,17.543,3.28,43.466,43.466,0,0,0,17.575-3.28A43.837,43.837,0,0,1,44.2,72.871a43.837,43.837,0,0,1,17.723,3.312,43.466,43.466,0,0,0,17.554,3.28,43.382,43.382,0,0,0,17.543-3.28,43.921,43.921,0,0,1,17.744-3.312v.54a43.382,43.382,0,0,0-17.543,3.28,43.921,43.921,0,0,1-17.744,3.322Z" transform="translate(167.58 -1.524)" fill="#fdd08f"/>
          <rect id="사각형_390" data-name="사각형 390" width="282.34" height="35.679" transform="translate(0 107.036)" fill="none"/>
          <path id="패스_517" data-name="패스 517" d="M79.473,144.228a43.837,43.837,0,0,1-17.744-3.312,43.509,43.509,0,0,0-17.554-3.269,43.508,43.508,0,0,0-17.554,3.269,43.837,43.837,0,0,1-17.744,3.312,43.921,43.921,0,0,1-17.744-3.312,43.381,43.381,0,0,0-17.585-3.27,43.509,43.509,0,0,0-17.554,3.27,43.837,43.837,0,0,1-17.744,3.312,43.826,43.826,0,0,1-17.734-3.312,43.509,43.509,0,0,0-17.554-3.269,43.509,43.509,0,0,0-17.554,3.269,43.837,43.837,0,0,1-17.67,3.312,43.826,43.826,0,0,1-17.734-3.312,43.509,43.509,0,0,0-17.554-3.269v-.55a43.836,43.836,0,0,1,17.744,3.312,43.382,43.382,0,0,0,17.543,3.28,43.434,43.434,0,0,0,17.554-3.28A43.837,43.837,0,0,1-96.963,137.1a43.837,43.837,0,0,1,17.712,3.312,43.382,43.382,0,0,0,17.543,3.28,43.434,43.434,0,0,0,17.554-3.28,43.837,43.837,0,0,1,17.7-3.312,43.922,43.922,0,0,1,17.786,3.312,43.382,43.382,0,0,0,17.543,3.28,43.435,43.435,0,0,0,17.575-3.28A43.837,43.837,0,0,1,44.2,137.1a43.837,43.837,0,0,1,17.744,3.312,43.434,43.434,0,0,0,17.554,3.28,43.381,43.381,0,0,0,17.543-3.28,43.921,43.921,0,0,1,17.744-3.312v.55a43.382,43.382,0,0,0-17.543,3.27A43.922,43.922,0,0,1,79.473,144.228Z" transform="translate(167.58 -1.524)" fill="#fdd08f"/>
          <path id="패스_518" data-name="패스 518" d="M79.473,137.1a43.837,43.837,0,0,1-17.744-3.312,43.477,43.477,0,0,0-17.554-3.28,43.477,43.477,0,0,0-17.554,3.28A43.836,43.836,0,0,1,8.877,137.1a43.921,43.921,0,0,1-17.744-3.312,43.382,43.382,0,0,0-17.585-3.28,43.477,43.477,0,0,0-17.554,3.28A43.837,43.837,0,0,1-61.75,137.1a43.826,43.826,0,0,1-17.734-3.312,43.477,43.477,0,0,0-17.554-3.28,43.477,43.477,0,0,0-17.554,3.28,43.836,43.836,0,0,1-17.67,3.312,43.826,43.826,0,0,1-17.734-3.312,43.477,43.477,0,0,0-17.554-3.28v-.54a43.837,43.837,0,0,1,17.712,3.354,43.456,43.456,0,0,0,17.575,3.227,43.466,43.466,0,0,0,17.522-3.227,43.837,43.837,0,0,1,17.744-3.312,43.837,43.837,0,0,1,17.744,3.312,43.456,43.456,0,0,0,17.543,3.269,43.466,43.466,0,0,0,17.554-3.269,43.837,43.837,0,0,1,17.7-3.354,43.921,43.921,0,0,1,17.786,3.354,43.381,43.381,0,0,0,17.543,3.27,43.466,43.466,0,0,0,17.575-3.269A43.837,43.837,0,0,1,44.2,130.007a43.836,43.836,0,0,1,17.723,3.312,43.466,43.466,0,0,0,17.554,3.269,43.382,43.382,0,0,0,17.543-3.269,43.921,43.921,0,0,1,17.744-3.312v.54a43.381,43.381,0,0,0-17.543,3.28A43.922,43.922,0,0,1,79.473,137.1Z" transform="translate(167.58 -1.524)" fill="#fdd08f"/>
          <path id="패스_519" data-name="패스 519" d="M79.473,129.965a43.837,43.837,0,0,1-17.744-3.312,43.3,43.3,0,0,0-17.554-3.28,43.3,43.3,0,0,0-17.554,3.28,43.837,43.837,0,0,1-17.744,3.312,43.921,43.921,0,0,1-17.744-3.312,43.2,43.2,0,0,0-17.585-3.28,43.3,43.3,0,0,0-17.554,3.28,43.836,43.836,0,0,1-17.744,3.312,43.826,43.826,0,0,1-17.734-3.312,43.3,43.3,0,0,0-17.554-3.28,43.3,43.3,0,0,0-17.554,3.28,43.836,43.836,0,0,1-17.67,3.312,43.826,43.826,0,0,1-17.734-3.312,43.3,43.3,0,0,0-17.554-3.28v-.55a43.837,43.837,0,0,1,17.744,3.312,43.382,43.382,0,0,0,17.543,3.28,43.435,43.435,0,0,0,17.554-3.28,43.837,43.837,0,0,1,17.744-3.312,43.837,43.837,0,0,1,17.744,3.312,43.382,43.382,0,0,0,17.543,3.28,43.435,43.435,0,0,0,17.554-3.28,43.837,43.837,0,0,1,17.67-3.312,43.921,43.921,0,0,1,17.744,3.312,43.382,43.382,0,0,0,17.543,3.28,43.435,43.435,0,0,0,17.617-3.28A43.836,43.836,0,0,1,44.2,122.823a43.836,43.836,0,0,1,17.744,3.312,43.435,43.435,0,0,0,17.554,3.28,43.382,43.382,0,0,0,17.543-3.28,43.921,43.921,0,0,1,17.744-3.312v.55a43.2,43.2,0,0,0-17.543,3.28A43.922,43.922,0,0,1,79.473,129.965Z" transform="translate(167.58 -1.524)" fill="#fdd08f"/>
          <path id="패스_520" data-name="패스 520" d="M79.473,122.823a43.837,43.837,0,0,1-17.744-3.259,43.509,43.509,0,0,0-17.554-3.269,43.508,43.508,0,0,0-17.554,3.269,43.837,43.837,0,0,1-17.744,3.312,43.922,43.922,0,0,1-17.744-3.312,43.382,43.382,0,0,0-17.585-3.322,43.509,43.509,0,0,0-17.511,3.322,43.836,43.836,0,0,1-17.744,3.312,43.826,43.826,0,0,1-17.734-3.312,43.509,43.509,0,0,0-17.554-3.269,43.509,43.509,0,0,0-17.554,3.269,43.837,43.837,0,0,1-17.712,3.259,43.826,43.826,0,0,1-17.765-3.259,43.508,43.508,0,0,0-17.554-3.269v-.55a43.836,43.836,0,0,1,17.744,3.312,43.456,43.456,0,0,0,17.575,3.217A43.466,43.466,0,0,0-114.707,119a43.837,43.837,0,0,1,17.744-3.312A43.836,43.836,0,0,1-79.219,119a43.456,43.456,0,0,0,17.543,3.269A43.466,43.466,0,0,0-44.122,119a43.837,43.837,0,0,1,17.67-3.312A43.921,43.921,0,0,1-8.708,119a43.382,43.382,0,0,0,17.543,3.269A43.466,43.466,0,0,0,26.452,119,43.837,43.837,0,0,1,44.2,115.691,43.837,43.837,0,0,1,61.941,119a43.466,43.466,0,0,0,17.554,3.269A43.382,43.382,0,0,0,97.037,119a43.921,43.921,0,0,1,17.744-3.312v.55a43.382,43.382,0,0,0-17.564,3.322,43.922,43.922,0,0,1-17.744,3.259Z" transform="translate(167.58 -1.524)" fill="#fdd08f"/>
          <path id="패스_521" data-name="패스 521" d="M79.473,115.691a43.837,43.837,0,0,1-17.744-3.312,43.477,43.477,0,0,0-17.554-3.28,43.477,43.477,0,0,0-17.554,3.28,43.837,43.837,0,0,1-17.744,3.312A43.921,43.921,0,0,1-8.867,112.38a43.382,43.382,0,0,0-17.585-3.28,43.477,43.477,0,0,0-17.554,3.28,43.837,43.837,0,0,1-17.744,3.312,43.826,43.826,0,0,1-17.734-3.312,43.477,43.477,0,0,0-17.554-3.28,43.477,43.477,0,0,0-17.554,3.28,43.836,43.836,0,0,1-17.67,3.312,43.826,43.826,0,0,1-17.734-3.312,43.477,43.477,0,0,0-17.554-3.28v-.54a44.059,44.059,0,0,1,17.744,3.3,43.234,43.234,0,0,0,17.543,3.28,43.255,43.255,0,0,0,17.554-3.28,44.059,44.059,0,0,1,17.744-3.3,44.059,44.059,0,0,1,17.744,3.3,43.233,43.233,0,0,0,17.543,3.28,43.255,43.255,0,0,0,17.554-3.28,44.059,44.059,0,0,1,17.67-3.3,44.133,44.133,0,0,1,17.744,3.3,43.2,43.2,0,0,0,17.543,3.28,43.255,43.255,0,0,0,17.617-3.28,44.059,44.059,0,0,1,17.744-3.3,44.059,44.059,0,0,1,17.744,3.3,43.255,43.255,0,0,0,17.554,3.28,43.2,43.2,0,0,0,17.543-3.28,44.133,44.133,0,0,1,17.744-3.3v.54a43.381,43.381,0,0,0-17.543,3.28,43.922,43.922,0,0,1-17.765,3.312Z" transform="translate(167.58 -1.524)" fill="#fdd08f"/>
          <rect id="사각형_391" data-name="사각형 391" width="282.34" height="35.679" transform="translate(0 142.715)" fill="none"/>
          <path id="패스_522" data-name="패스 522" d="M79.473,179.875a43.837,43.837,0,0,1-17.744-3.312,43.508,43.508,0,0,0-17.554-3.269,43.508,43.508,0,0,0-17.554,3.269,43.837,43.837,0,0,1-17.744,3.312,43.921,43.921,0,0,1-17.744-3.28,43.381,43.381,0,0,0-17.585-3.269,43.508,43.508,0,0,0-17.554,3.269,43.836,43.836,0,0,1-17.7,3.28,43.826,43.826,0,0,1-17.734-3.312,43.508,43.508,0,0,0-17.554-3.269,43.508,43.508,0,0,0-17.554,3.269,43.837,43.837,0,0,1-17.712,3.312,43.826,43.826,0,0,1-17.734-3.312,43.508,43.508,0,0,0-17.554-3.269v-.55a43.836,43.836,0,0,1,17.744,3.312,43.456,43.456,0,0,0,17.543,3.3,43.466,43.466,0,0,0,17.554-3.269,43.837,43.837,0,0,1,17.744-3.312,43.837,43.837,0,0,1,17.744,3.312,43.456,43.456,0,0,0,17.543,3.269,43.466,43.466,0,0,0,17.554-3.269,43.836,43.836,0,0,1,17.67-3.312,43.922,43.922,0,0,1,17.744,3.312,43.382,43.382,0,0,0,17.543,3.27,43.466,43.466,0,0,0,17.617-3.269A43.836,43.836,0,0,1,44.2,172.775a43.837,43.837,0,0,1,17.744,3.312,43.466,43.466,0,0,0,17.554,3.269,43.382,43.382,0,0,0,17.543-3.269,43.921,43.921,0,0,1,17.744-3.312v.55a43.381,43.381,0,0,0-17.543,3.269A43.921,43.921,0,0,1,79.473,179.875Z" transform="translate(167.58 -1.524)" fill="#fdd08f"/>
          <path id="패스_523" data-name="패스 523" d="M79.473,172.775a43.837,43.837,0,0,1-17.744-3.312,43.477,43.477,0,0,0-17.554-3.28,43.477,43.477,0,0,0-17.554,3.28,43.837,43.837,0,0,1-17.744,3.312,43.922,43.922,0,0,1-17.744-3.312,43.382,43.382,0,0,0-17.585-3.28,43.477,43.477,0,0,0-17.554,3.28,43.837,43.837,0,0,1-17.744,3.312,43.826,43.826,0,0,1-17.734-3.312,43.477,43.477,0,0,0-17.554-3.28,43.477,43.477,0,0,0-17.554,3.28,43.837,43.837,0,0,1-17.67,3.312,43.826,43.826,0,0,1-17.734-3.312,43.477,43.477,0,0,0-17.554-3.28v-.54a44.059,44.059,0,0,1,17.744,3.3,43.234,43.234,0,0,0,17.543,3.28,43.254,43.254,0,0,0,17.554-3.28,44.059,44.059,0,0,1,17.744-3.3,44.059,44.059,0,0,1,17.744,3.3,43.234,43.234,0,0,0,17.543,3.28,43.255,43.255,0,0,0,17.554-3.28,44.059,44.059,0,0,1,17.67-3.3,44.133,44.133,0,0,1,17.744,3.3,43.2,43.2,0,0,0,17.543,3.28,43.255,43.255,0,0,0,17.617-3.28,44.059,44.059,0,0,1,17.744-3.3,44.059,44.059,0,0,1,17.744,3.3,43.254,43.254,0,0,0,17.554,3.28,43.2,43.2,0,0,0,17.543-3.28,44.133,44.133,0,0,1,17.744-3.3v.54a43.382,43.382,0,0,0-17.543,3.28A43.921,43.921,0,0,1,79.473,172.775Z" transform="translate(167.58 -1.524)" fill="#fdd08f"/>
          <path id="패스_524" data-name="패스 524" d="M79.473,165.644a44.027,44.027,0,0,1-17.744-3.312,43.3,43.3,0,0,0-17.554-3.28,43.3,43.3,0,0,0-17.554,3.28,44.027,44.027,0,0,1-17.744,3.312,44.1,44.1,0,0,1-17.744-3.312,43.2,43.2,0,0,0-17.585-3.28,43.3,43.3,0,0,0-17.554,3.28,44.027,44.027,0,0,1-17.744,3.312,44.006,44.006,0,0,1-17.734-3.312,43.3,43.3,0,0,0-17.554-3.28,43.3,43.3,0,0,0-17.554,3.28,44.027,44.027,0,0,1-17.67,3.312,44.005,44.005,0,0,1-17.734-3.312,43.3,43.3,0,0,0-17.554-3.28v-.55a43.836,43.836,0,0,1,17.744,3.312,43.382,43.382,0,0,0,17.543,3.248,43.434,43.434,0,0,0,17.554-3.28,43.836,43.836,0,0,1,17.744-3.312,43.836,43.836,0,0,1,17.744,3.312,43.382,43.382,0,0,0,17.511,3.28,43.434,43.434,0,0,0,17.554-3.28,43.837,43.837,0,0,1,17.7-3.28,43.921,43.921,0,0,1,17.744,3.312,43.381,43.381,0,0,0,17.585,3.248,43.435,43.435,0,0,0,17.575-3.248A43.836,43.836,0,0,1,44.2,158.5a43.836,43.836,0,0,1,17.744,3.312,43.435,43.435,0,0,0,17.533,3.248,43.382,43.382,0,0,0,17.543-3.28,43.921,43.921,0,0,1,17.744-3.312v.55a43.2,43.2,0,0,0-17.543,3.28A44.1,44.1,0,0,1,79.473,165.644Z" transform="translate(167.58 -1.524)" fill="#fdd08f"/>
          <path id="패스_525" data-name="패스 525" d="M79.473,158.5a43.837,43.837,0,0,1-17.744-3.312,43.509,43.509,0,0,0-17.554-3.27,43.509,43.509,0,0,0-17.554,3.269A43.837,43.837,0,0,1,8.877,158.5,43.921,43.921,0,0,1-8.867,155.19a43.382,43.382,0,0,0-17.585-3.269,43.509,43.509,0,0,0-17.554,3.27A43.837,43.837,0,0,1-61.75,158.5a43.826,43.826,0,0,1-17.734-3.312,43.509,43.509,0,0,0-17.554-3.269,43.509,43.509,0,0,0-17.554,3.27,43.837,43.837,0,0,1-17.67,3.312,43.826,43.826,0,0,1-17.734-3.312,43.509,43.509,0,0,0-17.554-3.269v-.55a43.837,43.837,0,0,1,17.744,3.312,43.456,43.456,0,0,0,17.543,3.27,43.467,43.467,0,0,0,17.554-3.27,43.837,43.837,0,0,1,17.744-3.312,43.837,43.837,0,0,1,17.744,3.312,43.456,43.456,0,0,0,17.543,3.27,43.467,43.467,0,0,0,17.554-3.27,43.836,43.836,0,0,1,17.67-3.312,43.921,43.921,0,0,1,17.744,3.312,43.381,43.381,0,0,0,17.543,3.27,43.466,43.466,0,0,0,17.617-3.27A43.837,43.837,0,0,1,44.2,151.37a43.837,43.837,0,0,1,17.744,3.312,43.467,43.467,0,0,0,17.554,3.27,43.382,43.382,0,0,0,17.543-3.27,43.921,43.921,0,0,1,17.744-3.312v.55a43.382,43.382,0,0,0-17.543,3.27A43.921,43.921,0,0,1,79.473,158.5Z" transform="translate(167.58 -1.524)" fill="#fdd08f"/>
          <path id="패스_526" data-name="패스 526" d="M79.473,151.37a43.837,43.837,0,0,1-17.744-3.312,43.477,43.477,0,0,0-17.554-3.28,43.477,43.477,0,0,0-17.554,3.28A43.836,43.836,0,0,1,8.877,151.37a43.921,43.921,0,0,1-17.744-3.312,43.381,43.381,0,0,0-17.585-3.28,43.477,43.477,0,0,0-17.554,3.28A43.836,43.836,0,0,1-61.75,151.37a43.826,43.826,0,0,1-17.734-3.312,43.477,43.477,0,0,0-17.554-3.28,43.477,43.477,0,0,0-17.554,3.28,43.836,43.836,0,0,1-17.67,3.312,43.826,43.826,0,0,1-17.734-3.312,43.477,43.477,0,0,0-17.554-3.28v-.55A43.837,43.837,0,0,1-149.8,147.54a43.233,43.233,0,0,0,17.543,3.28,43.255,43.255,0,0,0,17.554-3.28,43.837,43.837,0,0,1,17.744-3.312,43.837,43.837,0,0,1,17.744,3.312,43.234,43.234,0,0,0,17.543,3.28,43.255,43.255,0,0,0,17.554-3.28,43.836,43.836,0,0,1,17.67-3.312A43.922,43.922,0,0,1-8.708,147.54a43.2,43.2,0,0,0,17.543,3.28,43.254,43.254,0,0,0,17.617-3.28A43.836,43.836,0,0,1,44.2,144.228a43.836,43.836,0,0,1,17.744,3.312,43.254,43.254,0,0,0,17.554,3.28,43.2,43.2,0,0,0,17.543-3.28,43.921,43.921,0,0,1,17.744-3.312v.55a43.382,43.382,0,0,0-17.543,3.28A43.922,43.922,0,0,1,79.473,151.37Z" transform="translate(167.58 -1.524)" fill="#fdd08f"/>
          <rect id="사각형_392" data-name="사각형 392" width="282.34" height="35.679" transform="translate(0 178.383)" fill="none"/>
          <path id="패스_527" data-name="패스 527" d="M79.473,215.586a43.836,43.836,0,0,1-17.744-3.312A43.509,43.509,0,0,0,44.175,209a43.509,43.509,0,0,0-17.554,3.269,43.836,43.836,0,0,1-17.744,3.312,43.921,43.921,0,0,1-17.744-3.312A43.382,43.382,0,0,0-26.452,209a43.509,43.509,0,0,0-17.554,3.269,43.836,43.836,0,0,1-17.744,3.312,43.826,43.826,0,0,1-17.734-3.312A43.509,43.509,0,0,0-97.037,209a43.509,43.509,0,0,0-17.554,3.269,43.836,43.836,0,0,1-17.67,3.312,43.825,43.825,0,0,1-17.734-3.312A43.508,43.508,0,0,0-167.548,209v-.561a43.836,43.836,0,0,1,17.744,3.312,43.456,43.456,0,0,0,17.543,3.28,43.466,43.466,0,0,0,17.554-3.269,43.837,43.837,0,0,1,17.712-3.322,43.836,43.836,0,0,1,17.744,3.312,43.456,43.456,0,0,0,17.543,3.27,43.465,43.465,0,0,0,17.554-3.269,43.837,43.837,0,0,1,17.7-3.312,43.921,43.921,0,0,1,17.744,3.312,43.381,43.381,0,0,0,17.543,3.27,43.466,43.466,0,0,0,17.617-3.259,43.837,43.837,0,0,1,17.723-3.322,43.836,43.836,0,0,1,17.744,3.312,43.466,43.466,0,0,0,17.554,3.27,43.381,43.381,0,0,0,17.543-3.269,43.921,43.921,0,0,1,17.744-3.312v.55a43.381,43.381,0,0,0-17.543,3.269,43.921,43.921,0,0,1-17.744,3.322Z" transform="translate(167.58 -1.524)" fill="#fdd08f"/>
          <path id="패스_528" data-name="패스 528" d="M79.473,208.443a43.837,43.837,0,0,1-17.744-3.312,43.477,43.477,0,0,0-17.554-3.28,43.477,43.477,0,0,0-17.554,3.28,43.837,43.837,0,0,1-17.744,3.312,43.922,43.922,0,0,1-17.744-3.312,43.382,43.382,0,0,0-17.585-3.27,43.477,43.477,0,0,0-17.554,3.28,43.836,43.836,0,0,1-17.7,3.3,43.826,43.826,0,0,1-17.734-3.312,43.477,43.477,0,0,0-17.554-3.28,43.477,43.477,0,0,0-17.554,3.28,43.837,43.837,0,0,1-17.712,3.312,43.826,43.826,0,0,1-17.734-3.312,43.477,43.477,0,0,0-17.554-3.28v-.55a43.837,43.837,0,0,1,17.744,3.312,43.233,43.233,0,0,0,17.543,3.28,43.254,43.254,0,0,0,17.554-3.28A43.837,43.837,0,0,1-96.963,201.3a43.837,43.837,0,0,1,17.744,3.312,43.233,43.233,0,0,0,17.543,3.28,43.254,43.254,0,0,0,17.554-3.28,43.837,43.837,0,0,1,17.67-3.3,43.921,43.921,0,0,1,17.744,3.312A43.2,43.2,0,0,0,8.835,207.9a43.255,43.255,0,0,0,17.617-3.28A43.836,43.836,0,0,1,44.2,201.312a43.837,43.837,0,0,1,17.744,3.312,43.255,43.255,0,0,0,17.554,3.28,43.2,43.2,0,0,0,17.543-3.28,43.922,43.922,0,0,1,17.744-3.312v.55a43.381,43.381,0,0,0-17.543,3.28,43.922,43.922,0,0,1-17.765,3.3Z" transform="translate(167.58 -1.524)" fill="#fdd08f"/>
          <path id="패스_529" data-name="패스 529" d="M79.473,201.312A43.837,43.837,0,0,1,61.729,198a43.509,43.509,0,0,0-17.554-3.312,43.509,43.509,0,0,0-17.554,3.269A43.837,43.837,0,0,1,8.877,201.27a43.922,43.922,0,0,1-17.744-3.312,43.381,43.381,0,0,0-17.585-3.269,43.509,43.509,0,0,0-17.554,3.269A43.837,43.837,0,0,1-61.75,201.27a43.826,43.826,0,0,1-17.734-3.312,43.509,43.509,0,0,0-17.511-3.269,43.509,43.509,0,0,0-17.554,3.269,43.837,43.837,0,0,1-17.712,3.354A43.826,43.826,0,0,1-149.995,198a43.509,43.509,0,0,0-17.585-3.312v-.55a43.837,43.837,0,0,1,17.744,3.312,43.382,43.382,0,0,0,17.543,3.28,43.435,43.435,0,0,0,17.554-3.28,43.836,43.836,0,0,1,17.744-3.312,43.836,43.836,0,0,1,17.744,3.312,43.382,43.382,0,0,0,17.543,3.28,43.435,43.435,0,0,0,17.554-3.28,43.836,43.836,0,0,1,17.7-3.269,43.921,43.921,0,0,1,17.744,3.312,43.382,43.382,0,0,0,17.543,3.28,43.434,43.434,0,0,0,17.617-3.28A43.837,43.837,0,0,1,44.2,194.18a43.837,43.837,0,0,1,17.744,3.312,43.434,43.434,0,0,0,17.554,3.28,43.382,43.382,0,0,0,17.543-3.28,43.921,43.921,0,0,1,17.744-3.312v.508a43.382,43.382,0,0,0-17.543,3.27,43.922,43.922,0,0,1-17.765,3.354Z" transform="translate(167.58 -1.524)" fill="#fdd08f"/>
          <path id="패스_530" data-name="패스 530" d="M79.473,194.18a43.837,43.837,0,0,1-17.744-3.312,43.476,43.476,0,0,0-17.554-3.28,43.477,43.477,0,0,0-17.554,3.28A43.837,43.837,0,0,1,8.877,194.18a43.921,43.921,0,0,1-17.744-3.312,43.382,43.382,0,0,0-17.585-3.28,43.476,43.476,0,0,0-17.554,3.28A43.837,43.837,0,0,1-61.75,194.18a43.826,43.826,0,0,1-17.734-3.312,43.477,43.477,0,0,0-17.554-3.28,43.477,43.477,0,0,0-17.554,3.28,43.837,43.837,0,0,1-17.67,3.312,43.826,43.826,0,0,1-17.734-3.312,43.477,43.477,0,0,0-17.554-3.28v-.54a43.837,43.837,0,0,1,17.744,3.312,43.456,43.456,0,0,0,17.543,3.269,43.466,43.466,0,0,0,17.554-3.27,43.837,43.837,0,0,1,17.744-3.312,43.837,43.837,0,0,1,17.744,3.312,43.456,43.456,0,0,0,17.511,3.269,43.466,43.466,0,0,0,17.554-3.269,43.837,43.837,0,0,1,17.7-3.312,43.921,43.921,0,0,1,17.744,3.312A43.382,43.382,0,0,0,8.877,193.63a43.466,43.466,0,0,0,17.575-3.269A43.837,43.837,0,0,1,44.2,187.049a43.837,43.837,0,0,1,17.744,3.312,43.467,43.467,0,0,0,17.533,3.269,43.381,43.381,0,0,0,17.543-3.269,43.921,43.921,0,0,1,17.744-3.312v.54a43.381,43.381,0,0,0-17.543,3.28,43.921,43.921,0,0,1-17.744,3.312Z" transform="translate(167.58 -1.524)" fill="#fdd08f"/>
          <path id="패스_531" data-name="패스 531" d="M79.473,187.049a43.837,43.837,0,0,1-17.744-3.312,43.3,43.3,0,0,0-17.554-3.28,43.3,43.3,0,0,0-17.554,3.28,43.837,43.837,0,0,1-17.744,3.312,43.921,43.921,0,0,1-17.744-3.312,43.2,43.2,0,0,0-17.585-3.28,43.3,43.3,0,0,0-17.554,3.28,43.837,43.837,0,0,1-17.744,3.312,43.826,43.826,0,0,1-17.734-3.312,43.3,43.3,0,0,0-17.554-3.28,43.3,43.3,0,0,0-17.554,3.28,43.837,43.837,0,0,1-17.67,3.312,43.826,43.826,0,0,1-17.734-3.312,43.3,43.3,0,0,0-17.554-3.28v-.582a43.837,43.837,0,0,1,17.744,3.312,43.382,43.382,0,0,0,17.543,3.28,43.435,43.435,0,0,0,17.554-3.28,43.837,43.837,0,0,1,17.712-3.312,43.837,43.837,0,0,1,17.744,3.312,43.381,43.381,0,0,0,17.543,3.28,43.435,43.435,0,0,0,17.554-3.28,43.837,43.837,0,0,1,17.7-3.312,43.921,43.921,0,0,1,17.744,3.312,43.381,43.381,0,0,0,17.543,3.28,43.435,43.435,0,0,0,17.617-3.248,43.837,43.837,0,0,1,17.723-3.344,43.837,43.837,0,0,1,17.744,3.312,43.435,43.435,0,0,0,17.554,3.28,43.382,43.382,0,0,0,17.543-3.28,43.921,43.921,0,0,1,17.744-3.312v.55a43.2,43.2,0,0,0-17.543,3.28A43.921,43.921,0,0,1,79.473,187.049Z" transform="translate(167.58 -1.524)" fill="#fdd08f"/>
        </g>
        <path id="패스_533" data-name="패스 533" d="M115.332,194.847a90.234,90.234,0,0,1-36.155-172.9.529.529,0,0,1,.667.212.54.54,0,0,1-.116.688C59.443,38.98,47.815,63.485,47.815,89.938A85.388,85.388,0,0,0,189.6,154.015a.529.529,0,0,1,.783.688,90.16,90.16,0,0,1-75.05,40.144ZM75.96,24.6A89.186,89.186,0,1,0,187.282,157.454,86.671,86.671,0,1,1,75.951,24.589Z" transform="translate(167.58 -1.524)" fill="#fdd08f"/>
        <path id="패스_534" data-name="패스 534" d="M133.2,176.415A86.541,86.541,0,0,1,46.757,89.938c0-26.865,11.766-51.645,32.293-67.993l.116-.074a90.266,90.266,0,0,1,111.29,132.875l-.085.1A86.329,86.329,0,0,1,133.2,176.415ZM79.653,22.844C59.422,38.991,47.815,63.485,47.815,89.938A85.388,85.388,0,0,0,189.6,154.068,89.218,89.218,0,0,0,79.674,22.865Z" transform="translate(167.58 -1.524)" fill="#fdd08f"/>
        <g id="그룹_361" data-name="그룹 361" clip-path="url(#clip-path-3)">
          <path id="패스_535" data-name="패스 535" d="M215.109,105.132H12.549A101.28,101.28,0,0,0,214.93,111.1a21.015,21.015,0,0,1-.413,42.027,2.994,2.994,0,1,0,0,5.989,27,27,0,0,0,.593-53.963Z" transform="translate(167.58 -1.524)" fill="#2b2f5c"/>
          <path id="패스_536" data-name="패스 536" d="M215.109,105.132H12.549A101.28,101.28,0,0,0,214.93,111.1a21.015,21.015,0,0,1-.413,42.027,2.994,2.994,0,1,0,0,5.989,27,27,0,0,0,.593-53.963Z" transform="translate(167.58 -1.524)" fill="#fdd08f"/>
          <path id="패스_537" data-name="패스 537" d="M67.464,171.156c-7.534-7.9-14.041-14.729-26.071-14.729a149.1,149.1,0,0,0-15.586.73c.116.148.222.3.328.455a146.743,146.743,0,0,1,15.258-.719c11.829,0,18.273,6.761,25.733,14.58,9.311,9.777,19.881,20.855,43.974,20.855,29.045,0,63.284-9.438,77.9-13.914l.91-.783c-13.924,4.328-49.1,14.231-78.806,14.231C87.208,191.863,76.711,180.859,67.464,171.156Z" transform="translate(167.58 -1.524)" fill="#2b2f5c"/>
          <path id="패스_538" data-name="패스 538" d="M67.464,178.256c-7.534-7.893-14.041-14.718-26.071-14.718-3.894,0-7.343.106-10.422.3.127.159.265.307.391.455,2.973-.18,6.349-.286,10.031-.286,11.829,0,18.273,6.761,25.733,14.58,9.311,9.777,19.881,20.855,43.974,20.855,20.336,0,43.212-4.624,60.11-8.941.55-.3,1.058-.593,1.64-.91-17.025,4.433-40.747,9.385-61.75,9.385C87.208,198.974,76.711,187.969,67.464,178.256Z" transform="translate(167.58 -1.524)" fill="#2b2f5c"/>
          <circle id="타원_67" data-name="타원 67" cx="1.026" cy="1.026" r="1.026" transform="translate(373.188 126.336)" fill="#2b2f5c"/>
          <circle id="타원_68" data-name="타원 68" cx="1.45" cy="1.45" r="1.45" transform="translate(262.057 161.031)" fill="#2b2f5c"/>
          <circle id="타원_69" data-name="타원 69" cx="1.026" cy="1.026" r="1.026" transform="translate(313.004 135.097)" fill="#2b2f5c"/>
          <path id="패스_539" data-name="패스 539" d="M218.231,178.055H137.414a3.926,3.926,0,0,1,0-7.851H155.93c2.264,0,4.169-1.058,4.169-2.285s-1.9-2.275-4.169-2.275H145.18a3.926,3.926,0,0,1,0-7.851h65.284c2.169,0,3.926,4.158,3.926,3.926a3.936,3.936,0,0,1-3.925,3.926h-10.75c-2.254,0-4.158,1.058-4.158,2.275s1.9,2.285,4.158,2.285h18.517a3.926,3.926,0,1,1,0,7.851Zm-80.817-6.909a2.984,2.984,0,1,0,0,5.968h80.817a2.984,2.984,0,1,0,0-5.968H199.714c-2.867,0-5.111-1.418-5.111-3.227s2.243-3.174,5.111-3.174h10.75a2.984,2.984,0,0,0,0-5.968H145.18a2.984,2.984,0,1,0,0,5.968h10.75c2.867,0,5.111,1.407,5.111,3.174s-2.243,3.227-5.111,3.227Z" transform="translate(167.58 -1.524)" fill="#2b2f5c"/>
          <path id="패스_540" data-name="패스 540" d="M73.728,132.589H-7.089a3.926,3.926,0,0,1-3.926-3.926,3.926,3.926,0,0,1,3.926-3.915H11.427c2.254,0,4.158-1.058,4.158-2.285s-1.9-2.285-4.158-2.285H.677a3.926,3.926,0,1,1,0-7.851H65.961a3.926,3.926,0,0,1,0,7.851H55.211c-2.264,0-4.169,1.058-4.169,2.285s1.9,2.285,4.169,2.285H73.728a3.926,3.926,0,1,1,0,7.84Zm-80.817-6.9a2.973,2.973,0,0,0-2.109.867,2.973,2.973,0,0,0-.875,2.106,2.984,2.984,0,0,0,2.984,2.984H73.728a2.984,2.984,0,1,0,0-5.957H55.211c-2.867,0-5.111-1.418-5.111-3.227s2.243-3.174,5.111-3.174h10.75a2.984,2.984,0,0,0,0-5.968H.677a2.984,2.984,0,1,0,0,5.968h10.75c2.867,0,5.111,1.418,5.111,3.174s-2.243,3.227-5.111,3.227Z" transform="translate(167.58 -1.524)" fill="#2b2f5c"/>
          <circle id="타원_70" data-name="타원 70" cx="1.45" cy="1.45" r="1.45" transform="translate(200.889 140.641)" fill="#2b2f5c"/>
        </g>
        <path id="패스_542" data-name="패스 542" d="M167.019,105.111V123.8c0,1.376,1.058,3.174,3.926,3.174,3.079,0,3.936-1.756,3.936-3.174V105.111Z" transform="translate(167.58 -1.524)" fill="#2b2f5c"/>
        <path id="패스_543" data-name="패스 543" d="M179.081,105.111v34.007c0,2.508,1.4,5.714,5.121,5.714,4.01,0,5.132-3.174,5.132-5.714V105.111Z" transform="translate(167.58 -1.524)" fill="#2b2f5c"/>
        <path id="패스_544" data-name="패스 544" d="M284.869,31.933l5.111-1.206-5.111-1.2,1.164-1.883-1.873,1.164L282.954,23.7l-1.206,5.111-1.873-1.164,1.164,1.883-5.111,1.2,5.111,1.206-1.164,1.873,1.873-1.164,1.206,5.111,1.206-5.111,1.873,1.164Z" fill="#fdd08f"/>
      </g>
    </g>
    <text id="SUB_LOGO-2" data-name="SUB LOGO" transform="translate(1429 1480.295)" fill="#fdd08f" font-size="20" font-family="SegoeUI-Bold, Segoe UI" font-weight="700"><tspan x="-49.146" y="0">SUB LOGO</tspan></text>
    <text id="_FDD08F" data-name="#FDD08F" transform="translate(1422 1566.321)" fill="#fdd08f" font-size="13" font-family="EliceDigitalBaeum, Elice DigitalBaeum"><tspan x="0" y="0">#FDD08F</tspan></text>
    <text id="SUB_COLOR" data-name="SUB COLOR" transform="translate(1412 1541.311)" fill="#fdd08f" font-size="13" font-family="EliceDigitalBaeum-Bd, Elice DigitalBaeum"><tspan x="0" y="0">SUB COLOR</tspan></text>
    <text id="RBG_253_208_143" data-name="RBG 253 208 143" transform="translate(1378 1586.346)" fill="#fdd08f" font-size="13" font-family="EliceDigitalBaeum, Elice DigitalBaeum"><tspan x="0" y="0">RBG 253 208 143</tspan></text>
  </g>
</svg>
