<svg xmlns="http://www.w3.org/2000/svg" xmlns:xlink="http://www.w3.org/1999/xlink" width="660" height="305" viewBox="0 0 660 305">
  <defs>
    <clipPath id="clip-path">
      <rect id="사각형_179" data-name="사각형 179" width="235.065" height="192.097" rx="20" transform="translate(677.753 1439.763)" fill="#6d718f"/>
    </clipPath>
    <clipPath id="clip-path-2">
      <path id="패스_466" data-name="패스 466" d="M206.422,94.028H2.842a101.776,101.776,0,0,0,203.382,6.024,21.123,21.123,0,1,1-.407,42.245,3.012,3.012,0,1,0,0,6.015,27.136,27.136,0,1,0,.587-54.268Z" transform="translate(20.819 -3.846)" fill="none"/>
    </clipPath>
  </defs>
  <g id="그룹_506" data-name="그룹 506" transform="translate(-300 -1372)">
    <rect id="breakslow-UMUCQcDdLws-unsplash" width="660" height="305" transform="translate(300 1372)" fill="#fdd08f"/>
    <text id="_2B2F5C" data-name="#2B2F5C" transform="translate(443 1566.321)" fill="#2b2f5c" font-size="13" font-family="EliceDigitalBaeum, Elice DigitalBaeum"><tspan x="0" y="0">#2B2F5C</tspan></text>
    <text id="MAIN_COLOR" data-name="MAIN COLOR" transform="translate(443 1541.311)" fill="#2b2f5c" font-size="13" font-family="EliceDigitalBaeum-Bd, Elice DigitalBaeum"><tspan x="0" y="0">MAIN COLOR</tspan></text>
    <text id="RBG_43_47_92" data-name="RBG 43 47 92" transform="translate(443 1586.346)" fill="#2b2f5c" font-size="13" font-family="EliceDigitalBaeum, Elice DigitalBaeum"><tspan x="0" y="0">RBG 43 47 92</tspan></text>
    <g id="마스크_그룹_4" data-name="마스크 그룹 4" transform="translate(0.247)" clip-path="url(#clip-path)" style="isolation: isolate">
      <g id="main_logo" transform="translate(656.422 1439.763)">
        <circle id="타원_61" data-name="타원 61" cx="69.95" cy="69.95" r="69.95" transform="translate(57.068 1.156)" fill="#2b2f5c"/>
        <path id="패스_456" data-name="패스 456" d="M105.451,3.846a90.173,90.173,0,1,0,90.163,90.167A90.175,90.175,0,0,0,105.451,3.846ZM87.568,22.3A78.513,78.513,0,0,0,63.784,32.2a.5.5,0,0,1-.256.076.474.474,0,0,1-.4-.227.464.464,0,0,1,.152-.654A79.309,79.309,0,0,1,87.35,21.378a.474.474,0,0,1,.568.35.464.464,0,0,1-.35.568Zm17.883,5.91c0-7.1-1.317-8.421-8.421-8.421,7.1,0,8.421-1.307,8.421-8.411,0,7.1,1.317,8.411,8.421,8.411-7.1,0-8.421,1.317-8.421,8.421ZM147.772,32a.474.474,0,0,1-.4.227.5.5,0,0,1-.256-.076,78.513,78.513,0,0,0-23.784-9.86.486.486,0,1,1,.218-.947A79.309,79.309,0,0,1,147.62,31.352a.464.464,0,0,1,.142.654Z" transform="translate(20.819 -3.846)" fill="#fdd08f"/>
        <path id="패스_457" data-name="패스 457" d="M44.168,67.355A13.573,13.573,0,0,1,40.729,67a4.092,4.092,0,0,1-2.036-1.165,4.5,4.5,0,0,1-.947-2.188,18.859,18.859,0,0,1-.256-3.419V51.148a19.143,19.143,0,0,1,.256-3.4,4.452,4.452,0,0,1,.947-2.2,4.035,4.035,0,0,1,2.036-1.222,13.573,13.573,0,0,1,3.429-.35H56.832a13.488,13.488,0,0,1,3.419.35,4.035,4.035,0,0,1,2.018,1.137,4.452,4.452,0,0,1,.947,2.2,19.142,19.142,0,0,1,.294,3.486V67.355Zm2.245,19.114a12.057,12.057,0,0,1-3.258-.369,4.471,4.471,0,0,1-2.036-1.175,4.414,4.414,0,0,1-1.051-2.1,14.094,14.094,0,0,1-.284-3.192V74.62A4.206,4.206,0,0,1,41.2,71.106a5.361,5.361,0,0,1,3.4-1.127,5.03,5.03,0,0,1,3.325,1.127,4.291,4.291,0,0,1,1.326,3.514v3.419c0,.53.076.862.227.947a1.9,1.9,0,0,0,1.032.189h24.57a3.732,3.732,0,0,1,3.05,1.1,3.988,3.988,0,0,1,0,5.058,3.694,3.694,0,0,1-3.022,1.1Zm0-27.213a1.544,1.544,0,0,0,.208.947,1.241,1.241,0,0,0,.947.237h7.123V52.01a1.411,1.411,0,0,0-.237-.947,1.288,1.288,0,0,0-.947-.256H47.492a1.193,1.193,0,0,0-.947.256,1.487,1.487,0,0,0-.208.947Zm21.88-12.143a4.357,4.357,0,0,1,1.354-3.467,5,5,0,0,1,6.45,0,4.3,4.3,0,0,1,1.373,3.438v7.076H78.93a3.789,3.789,0,0,1,1.781.379,3.277,3.277,0,0,1,1.127.947,4.073,4.073,0,0,1,.568,1.345,5.456,5.456,0,0,1,0,2.842A3.893,3.893,0,0,1,81.8,60.99a3.22,3.22,0,0,1-1.156.947,3.713,3.713,0,0,1-1.752.379H77.424V75.577H68.245Z" transform="translate(20.819 -3.846)" fill="#2b2f5c"/>
        <path id="패스_458" data-name="패스 458" d="M92.1,69.42V62.951h-6a3.239,3.239,0,0,1-2.4-.767,2.933,2.933,0,0,1-.019-3.893,3.107,3.107,0,0,1,2.415-.815h25.432a3.126,3.126,0,0,1,2.444.815,2.908,2.908,0,0,1,.7,1.894,2.841,2.841,0,0,1-.729,2,3.211,3.211,0,0,1-2.415.767H101V69.42Zm-.474-13.535q-3.789,0-5.57-1.7a6.715,6.715,0,0,1-.019-9.027q1.733-1.733,5.569-1.733h13.024q3.789,0,5.532,1.733a6.138,6.138,0,0,1,1.733,4.537,6.09,6.09,0,0,1-1.733,4.528q-1.733,1.7-5.532,1.7Zm-.606,30.547a5.219,5.219,0,0,1-4.026-1.468,5.162,5.162,0,0,1-1.364-3.6v-.275a4.471,4.471,0,0,1,1.336-3.476A5.892,5.892,0,0,1,91.016,76.4h24.873v-.8q0-.654-.8-.654H88.345a2.093,2.093,0,0,1-1.714-.729,2.4,2.4,0,0,1-.578-1.525,2.671,2.671,0,0,1,.53-1.544,2.018,2.018,0,0,1,1.762-.748h32.517c1.809,0,3.04.313,3.7.947a3.846,3.846,0,0,1,.947,2.9v6.09H96.453a.72.72,0,0,0-.616.265.833.833,0,0,0-.18.493c0,.464.265.7.8.7h28.113a1.894,1.894,0,0,1,1.7.748,2.9,2.9,0,0,1,.493,1.639,2.842,2.842,0,0,1-.493,1.525,1.894,1.894,0,0,1-1.7.767Zm3.846-37.945a2.34,2.34,0,0,0-1.3.256,1.07,1.07,0,0,0-.35.947,1.051,1.051,0,0,0,.35.852,2.235,2.235,0,0,0,1.3.275h6.555a2.216,2.216,0,0,0,1.288-.275,1.023,1.023,0,0,0,.35-.852,1.042,1.042,0,0,0-.35-.947,2.321,2.321,0,0,0-1.288-.256ZM116.221,68.9h-9.794a3.116,3.116,0,0,1-2.292-.673,2.444,2.444,0,0,1-.654-1.762,2.368,2.368,0,0,1,.654-1.7,3.116,3.116,0,0,1,2.292-.682h9.794V47.028a4.13,4.13,0,0,1,1.411-3.4,4.925,4.925,0,0,1,3.23-1.146,4.992,4.992,0,0,1,1.733.3,4.793,4.793,0,0,1,1.5.862,4.177,4.177,0,0,1,1.051,1.411,4.546,4.546,0,0,1,.4,1.97V69.562h-9.32Z" transform="translate(20.819 -3.846)" fill="#2b2f5c"/>
        <path id="패스_459" data-name="패스 459" d="M153.606,43.836a3.268,3.268,0,0,1,1.525.332,2.841,2.841,0,0,1,1.032.862,3.287,3.287,0,0,1,.559,1.193,5.1,5.1,0,0,1,.17,1.269,4.386,4.386,0,0,1-.189,1.241,3.514,3.514,0,0,1-.568,1.146,2.671,2.671,0,0,1-1,.843,3.268,3.268,0,0,1-1.525.332h-11.9c-.871,0-1.317.369-1.317,1.127v5.2a1.1,1.1,0,0,0,.332.947,1.591,1.591,0,0,0,.947.256h13.678a3.476,3.476,0,0,1,1.553.332,2.756,2.756,0,0,1,1.023.843,3.789,3.789,0,0,1,.568,1.127,4.177,4.177,0,0,1,.18,1.212,4.5,4.5,0,0,1-.18,1.288,3.865,3.865,0,0,1-.568,1.156,2.757,2.757,0,0,1-1.023.843,3.476,3.476,0,0,1-1.553.322H137.817a13.26,13.26,0,0,1-3.23-.322,4.291,4.291,0,0,1-2.036-1.108,4.243,4.243,0,0,1-1.08-2.008,13.422,13.422,0,0,1-.3-3.069V50.391a13.261,13.261,0,0,1,.3-3.069,4.234,4.234,0,0,1,1.08-2.018,4.357,4.357,0,0,1,2.036-1.1,13.261,13.261,0,0,1,3.23-.332Zm-20.942,33.6a10.419,10.419,0,0,1,.616-3.561,8,8,0,0,1,1.8-2.927,8.326,8.326,0,0,1,3.022-1.97,11.546,11.546,0,0,1,4.262-.729h19.825a11.8,11.8,0,0,1,4.215.7,8.525,8.525,0,0,1,3.04,1.951,7.938,7.938,0,0,1,1.828,2.927,11.044,11.044,0,0,1,0,7.218,8.1,8.1,0,0,1-1.828,2.927,8.525,8.525,0,0,1-3.04,1.894,11.8,11.8,0,0,1-4.215.7H142.363a11.546,11.546,0,0,1-4.262-.72,8.582,8.582,0,0,1-3.022-1.97,8.165,8.165,0,0,1-1.8-2.908,10.3,10.3,0,0,1-.616-3.533Zm9.472,0a3.173,3.173,0,0,0,.568,1.752,2.321,2.321,0,0,0,2.1.871H159.7a2.34,2.34,0,0,0,2.112-.871,3.04,3.04,0,0,0,0-3.514,2.33,2.33,0,0,0-2.112-.843H144.845a2.311,2.311,0,0,0-2.1.862,3.182,3.182,0,0,0-.568,1.743Zm19.683-30.31a4.281,4.281,0,0,1,1.383-3.467,5.049,5.049,0,0,1,6.488,0,4.253,4.253,0,0,1,1.4,3.438v3.865h1.459a3.722,3.722,0,0,1,1.781.379,3.211,3.211,0,0,1,1.118.947,3.608,3.608,0,0,1,.616,1.288,5.74,5.74,0,0,1,0,2.842,4.007,4.007,0,0,1-.616,1.317,2.974,2.974,0,0,1-1.146.947,4.1,4.1,0,0,1-1.752.35h-1.459v8.108h-9.273Z" transform="translate(20.819 -3.846)" fill="#2b2f5c"/>
        <g id="그룹_359" data-name="그룹 359" clip-path="url(#clip-path-2)">
          <path id="패스_460" data-name="패스 460" d="M206.422,94.028H2.842a101.776,101.776,0,0,0,203.382,6.024,21.123,21.123,0,1,1-.407,42.245,3.012,3.012,0,1,0,0,6.015,27.136,27.136,0,1,0,.587-54.268Z" transform="translate(20.819 -3.846)" fill="#2b2f5c"/>
          <path id="패스_461" data-name="패스 461" d="M206.422,94.028H2.842a101.776,101.776,0,0,0,203.382,6.024,21.123,21.123,0,1,1-.407,42.245,3.012,3.012,0,1,0,0,6.015,27.136,27.136,0,1,0,.587-54.268Z" transform="translate(20.819 -3.846)" fill="#2b2f5c"/>
          <path id="패스_462" data-name="패스 462" d="M58.044,160.379c-7.578-7.937-14.1-14.8-26.2-14.8a150.222,150.222,0,0,0-15.657.729l.332.455a147.915,147.915,0,0,1,15.326-.71c11.887,0,18.366,6.782,25.858,14.644,9.368,9.794,19.967,20.961,44.2,20.961,29.193,0,63.6-9.472,78.276-13.99l.947-.777c-13.99,4.338-49.33,14.293-79.195,14.293C77.888,181.189,67.346,170.135,58.044,160.379Z" transform="translate(20.819 -3.846)" fill="#fdd08f"/>
          <path id="패스_463" data-name="패스 463" d="M58.044,167.521c-7.578-7.937-14.1-14.8-26.2-14.8-3.912,0-7.379.114-10.419.3l.36.417c2.984-.18,6.327-.284,10.078-.284,11.887,0,18.366,6.782,25.858,14.644,9.368,9.832,19.976,20.961,44.2,20.961,20.431,0,43.419-4.651,60.412-8.979.549-.3,1.1-.606,1.639-.947-17.106,4.452-40.947,9.472-62.051,9.472C77.888,188.331,67.346,177.277,58.044,167.521Z" transform="translate(20.819 -3.846)" fill="#fdd08f"/>
          <circle id="타원_62" data-name="타원 62" cx="1.023" cy="1.023" r="1.023" transform="translate(217.713 113.038)" fill="#fdd08f"/>
          <circle id="타원_63" data-name="타원 63" cx="1.449" cy="1.449" r="1.449" transform="translate(106.019 147.895)" fill="#fdd08f"/>
          <circle id="타원_64" data-name="타원 64" cx="1.023" cy="1.023" r="1.023" transform="translate(157.225 121.838)" fill="#fdd08f"/>
          <path id="패스_464" data-name="패스 464" d="M209.567,167.312H128.345a3.94,3.94,0,0,1,0-7.881h18.612c2.264,0,4.177-1.051,4.177-2.3s-1.894-2.292-4.177-2.292H136.15a3.95,3.95,0,1,1,0-7.89h65.6a3.95,3.95,0,0,1,0,7.89H190.945c-2.264,0-4.177,1.051-4.177,2.292s1.894,2.3,4.177,2.3h18.622a3.94,3.94,0,0,1,0,7.881Zm-81.222-6.933a2.993,2.993,0,0,0,0,5.986h81.222a2.993,2.993,0,1,0,0-5.986H190.945c-2.842,0-5.124-1.43-5.124-3.249s2.254-3.239,5.124-3.239h10.807a3,3,0,0,0,0-6h-65.6a3,3,0,1,0,0,6h10.807c2.842,0,5.124,1.421,5.124,3.239s-2.245,3.249-5.124,3.249Z" transform="translate(20.819 -3.846)" fill="#fdd08f"/>
          <path id="패스_465" data-name="패스 465" d="M64.343,121.629H-16.879a3.95,3.95,0,0,1-2.8-1.154,3.95,3.95,0,0,1-1.16-2.8,3.94,3.94,0,0,1,3.94-3.94H1.733c2.273,0,4.187-1.051,4.187-2.292s-1.894-2.292-4.187-2.292H-9.074a3.95,3.95,0,0,1-3.94-3.95,3.95,3.95,0,0,1,3.94-3.94H56.538a3.95,3.95,0,0,1,0,7.89H45.731c-2.264,0-4.187,1.042-4.187,2.292s1.894,2.292,4.187,2.292H64.343a3.95,3.95,0,0,1,0,7.89Zm-81.222-6.943a3,3,0,0,0-3.012,2.993,3,3,0,0,0,2.993,3H64.343a3,3,0,0,0,0-6H45.731c-2.842,0-5.134-1.421-5.134-3.239s2.254-3.239,5.134-3.239H56.538a3,3,0,0,0,0-6H-9.074a3,3,0,0,0-2.993,2.993,3,3,0,0,0,2.993,3H1.733c2.842,0,5.134,1.421,5.134,3.239s-2.254,3.239-5.134,3.239Z" transform="translate(20.819 -3.846)" fill="#fdd08f"/>
          <circle id="타원_65" data-name="타원 65" cx="1.449" cy="1.449" r="1.449" transform="translate(44.556 127.407)" fill="#fdd08f"/>
        </g>
        <path id="패스_467" data-name="패스 467" d="M158.1,93.488v18.764c0,1.373,1.08,3.145,3.95,3.145,3.088,0,3.95-1.771,3.95-3.145V93.488Z" transform="translate(20.819 -3.846)" fill="#fdd08f"/>
        <path id="패스_468" data-name="패스 468" d="M170.211,93.488v34.175c0,2.52,1.411,5.74,5.153,5.74,4.035,0,5.153-3.22,5.153-5.74V93.488Z" transform="translate(20.819 -3.846)" fill="#fdd08f"/>
      </g>
    </g>
    <text id="MAIN_LOGO-2" data-name="MAIN LOGO" transform="translate(499.065 1480.295)" fill="#2b2f5c" font-size="20" font-family="SegoeUI-Bold, Segoe UI" font-weight="700"><tspan x="-57.568" y="0">MAIN LOGO</tspan></text>
  </g>
</svg>
