<svg id="Layer_1" data-name="Layer 1" xmlns="http://www.w3.org/2000/svg" xmlns:xlink="http://www.w3.org/1999/xlink" viewBox="0 0 267.94 108"><defs><style>.cls-1{fill:none;}.cls-2{clip-path:url(#clip-path);}.cls-3{fill:#2b2f5c;}.cls-4{fill:#fdd08f;}</style><clipPath id="clip-path" transform="translate(10.53 -106.69)"><path class="cls-1" d="M229.38,107.25H14.48a107.45,107.45,0,0,0,214.71,6.36,22.3,22.3,0,0,1-.43,44.59,3.18,3.18,0,1,0,0,6.36,28.65,28.65,0,0,0,.62-57.3Z"/></clipPath></defs><title>logo_cup</title><g class="cls-2"><path class="cls-3" d="M229.38,107.25H14.48a107.45,107.45,0,0,0,214.71,6.36,22.3,22.3,0,0,1-.43,44.59,3.18,3.18,0,1,0,0,6.36,28.65,28.65,0,0,0,.62-57.3Z" transform="translate(10.53 -106.69)"/><path class="cls-3" d="M229.38,107.25H14.48a107.45,107.45,0,0,0,214.71,6.36,22.3,22.3,0,0,1-.43,44.59,3.18,3.18,0,1,0,0,6.36,28.65,28.65,0,0,0,.62-57.3Z" transform="translate(10.53 -106.69)"/><path class="cls-4" d="M72.73,177.3c-8-8.38-14.89-15.62-27.66-15.62a158.6,158.6,0,0,0-16.53.77l.35.48a159,159,0,0,1,16.18-.75c12.56,0,19.39,7.17,27.3,15.47C82.26,188,93.47,199.77,119,199.77c30.82,0,67.15-10,82.64-14.77l1-.82c-14.77,4.59-52.08,15.09-83.61,15.09C93.68,199.27,82.55,187.6,72.73,177.3Z" transform="translate(10.53 -106.69)"/><path class="cls-4" d="M72.73,184.84c-8-8.38-14.89-15.62-27.66-15.62-4.13,0-7.79.12-11,.32l.41.49c3.16-.19,6.68-.31,10.64-.31,12.56,0,19.39,7.17,27.3,15.47,9.89,10.37,21.1,22.13,46.66,22.13,21.57,0,45.84-4.91,63.78-9.49l1.74-1c-18.07,4.7-43.24,9.95-65.52,9.95C93.68,206.82,82.55,195.14,72.73,184.84Z" transform="translate(10.53 -106.69)"/><circle class="cls-4" cx="230.93" cy="25.78" r="1.08"/><circle class="cls-4" cx="113.46" cy="63.03" r="1.53"/><circle class="cls-4" cx="167.07" cy="35.07" r="1.08"/><path class="cls-4" d="M232.7,184.63H147a4.17,4.17,0,0,1,0-8.33H166.6c2.39,0,4.42-1.11,4.42-2.42s-2-2.42-4.42-2.42H155.19a4.17,4.17,0,0,1,0-8.33h69.27a4.17,4.17,0,0,1,0,8.33H213.05c-2.4,0-4.42,1.1-4.42,2.42s2,2.42,4.42,2.42H232.7a4.17,4.17,0,0,1,0,8.33ZM147,177.3a3.17,3.17,0,0,0,0,6.33H232.7a3.17,3.17,0,0,0,0-6.33H213.05c-3,0-5.42-1.5-5.42-3.42s2.38-3.42,5.42-3.42h11.41a3.17,3.17,0,0,0,0-6.33H155.19a3.17,3.17,0,0,0,0,6.33H166.6c3,0,5.42,1.5,5.42,3.42s-2.38,3.42-5.42,3.42Z" transform="translate(10.53 -106.69)"/><path class="cls-4" d="M79.38,136.39H-6.37a4.17,4.17,0,0,1-4.16-4.16,4.16,4.16,0,0,1,4.16-4.16H13.29c2.39,0,4.41-1.11,4.41-2.43s-2-2.42-4.41-2.42H1.87a4.16,4.16,0,0,1,0-8.32H71.14a4.16,4.16,0,1,1,0,8.32H59.73c-2.39,0-4.41,1.11-4.41,2.42s2,2.43,4.41,2.43H79.38a4.16,4.16,0,1,1,0,8.32Zm-85.75-7.32a3.16,3.16,0,0,0-3.16,3.16,3.17,3.17,0,0,0,3.16,3.16H79.38a3.16,3.16,0,1,0,0-6.32H59.73c-3,0-5.41-1.51-5.41-3.43s2.38-3.42,5.41-3.42H71.14a3.16,3.16,0,1,0,0-6.32H1.87a3.16,3.16,0,0,0,0,6.32H13.29c3,0,5.41,1.5,5.41,3.42s-2.38,3.43-5.41,3.43Z" transform="translate(10.53 -106.69)"/><circle class="cls-4" cx="48.57" cy="41.4" r="1.53"/></g><path class="cls-4" d="M178.36,106.69v19.8c0,1.46,1.14,3.33,4.17,3.33,3.26,0,4.17-1.87,4.17-3.33v-19.8Z" transform="translate(10.53 -106.69)"/><path class="cls-4" d="M191.16,106.69v36.08c0,2.66,1.49,6,5.44,6,4.25,0,5.44-3.39,5.44-6V106.69Z" transform="translate(10.53 -106.69)"/></svg>