<?xml version="1.0" encoding="utf-8"?>
<!-- Generator: Adobe Illustrator 22.1.0, SVG Export Plug-In . SVG Version: 6.00 Build 0)  -->
<svg version="1.1" xmlns="http://www.w3.org/2000/svg" xmlns:xlink="http://www.w3.org/1999/xlink" x="0px" y="0px"
	 viewBox="0 0 248.2 226" style="enable-background:new 0 0 248.2 226;" xml:space="preserve">
<style type="text/css">
	.st0{fill:#2B2F5C;}
	.st1{fill:#FDD08F;}
	.st2{display:none;}
	.st3{display:inline;}
	.st4{clip-path:url(#SVGID_2_);fill:#2B2F5C;}
	.st5{clip-path:url(#SVGID_2_);}
	.st6{clip-path:url(#SVGID_2_);fill:#FDD08F;}
	.st7{display:inline;fill:#FDD08F;}
</style>
<g id="Layer_2">
	<circle class="st0" cx="123.6" cy="92.8" r="75.1"/>
	<path class="st1" d="M122.8,12c-52.6,0-95.2,42.6-95.2,95.2s42.6,95.2,95.2,95.2s95.2-42.6,95.2-95.2S175.4,12,122.8,12z
		 M103.9,31.5c-8.9,2.1-17.3,5.6-25.1,10.4C78.7,42,78.6,42,78.5,42c-0.2,0-0.3-0.1-0.4-0.2c-0.1-0.2-0.1-0.5,0.2-0.7
		c7.9-4.9,16.4-8.4,25.4-10.5c0.3-0.1,0.5,0.1,0.6,0.4C104.3,31.2,104.2,31.5,103.9,31.5z M122.8,37.8c0-7.5-1.4-8.9-8.9-8.9
		c7.5,0,8.9-1.4,8.9-8.9c0,7.5,1.4,8.9,8.9,8.9C124.2,28.9,122.8,30.3,122.8,37.8z M167.5,41.8c-0.1,0.2-0.3,0.2-0.4,0.2
		c-0.1,0-0.2,0-0.3-0.1c-7.8-4.8-16.2-8.3-25.1-10.4c-0.3-0.1-0.4-0.3-0.4-0.6c0.1-0.3,0.3-0.4,0.6-0.4c9,2.1,17.6,5.6,25.4,10.5
		C167.5,41.2,167.6,41.5,167.5,41.8z"/>
</g>
<g id="Layer_3" class="st2">
	<g class="st3">
		<path class="st0" d="M58.1,79.1c-1.5,0-2.7-0.1-3.6-0.4s-1.6-0.7-2.2-1.2c-0.5-0.6-0.9-1.3-1-2.3c-0.2-1-0.3-2.2-0.3-3.6v-9.6
			c0-1.4,0.1-2.6,0.3-3.6c0.2-1,0.5-1.7,1-2.3c0.5-0.6,1.2-1,2.2-1.2s2.1-0.4,3.6-0.4h13.4c1.5,0,2.7,0.1,3.6,0.4
			c0.9,0.2,1.6,0.7,2.2,1.2c0.5,0.6,0.9,1.4,1,2.3c0.2,1,0.3,2.2,0.3,3.6v17.2H58.1z M60.5,99.3c-1.4,0-2.5-0.1-3.4-0.4
			c-0.9-0.3-1.6-0.7-2.2-1.2c-0.5-0.6-0.9-1.3-1.1-2.2c-0.2-0.9-0.3-2-0.3-3.4v-5.3c0-1.7,0.5-2.9,1.5-3.7c1-0.8,2.2-1.2,3.6-1.2
			c1.4,0,2.6,0.4,3.5,1.2c1,0.8,1.4,2,1.4,3.7v3.6c0,0.6,0.1,0.9,0.2,1s0.5,0.2,1.1,0.2h25.9c1.5,0,2.6,0.4,3.2,1.2
			c0.6,0.8,0.9,1.7,0.9,2.6c0,1-0.3,1.9-1,2.7c-0.6,0.8-1.7,1.2-3.2,1.2H60.5z M60.4,70.5c0,0.5,0.1,0.9,0.2,1s0.5,0.2,1,0.2h7.5
			v-8.9c0-0.5-0.1-0.8-0.2-1c-0.2-0.2-0.5-0.3-1-0.3h-6.3c-0.5,0-0.8,0.1-1,0.3c-0.1,0.2-0.2,0.5-0.2,1V70.5z M83.5,57.7
			c0-1.6,0.5-2.8,1.4-3.7c1-0.8,2.1-1.2,3.4-1.2c1.3,0,2.4,0.4,3.4,1.3s1.5,2.1,1.5,3.6v7.5h1.5c0.8,0,1.4,0.1,1.9,0.4
			c0.5,0.3,0.9,0.6,1.2,1c0.3,0.4,0.5,0.9,0.6,1.4c0.1,0.5,0.2,1,0.2,1.5c0,0.5-0.1,1-0.2,1.5c-0.1,0.5-0.3,1-0.6,1.4
			s-0.7,0.8-1.2,1c-0.5,0.3-1.1,0.4-1.9,0.4h-1.5v14h-9.7V57.7z"/>
		<path class="st0" d="M108.7,81.3v-6.8h-6.3c-1.2,0-2-0.3-2.5-0.8S99,72.4,99,71.5c0-0.8,0.3-1.5,0.8-2.1c0.5-0.6,1.4-0.9,2.5-0.9
			h26.9c1.2,0,2.1,0.3,2.6,0.9c0.5,0.6,0.7,1.3,0.7,2.1c0,0.9-0.3,1.6-0.8,2.1c-0.5,0.5-1.4,0.8-2.5,0.8h-11.1v6.8H108.7z M108.2,67
			c-2.7,0-4.7-0.6-5.9-1.8c-1.2-1.2-1.8-2.8-1.8-4.8s0.6-3.6,1.8-4.8c1.2-1.2,3.2-1.8,5.9-1.8h13.8c2.7,0,4.6,0.6,5.8,1.8
			c1.2,1.2,1.8,2.8,1.8,4.8s-0.6,3.6-1.8,4.8c-1.2,1.2-3.2,1.8-5.8,1.8H108.2z M107.5,99.3c-1.9,0-3.3-0.5-4.3-1.6
			c-1-1-1.4-2.3-1.4-3.8v-0.3c0-1.6,0.5-2.8,1.4-3.7c0.9-0.9,2.4-1.3,4.3-1.3h26.3v-0.8c0-0.5-0.3-0.7-0.8-0.7h-28.2
			c-0.8,0-1.4-0.3-1.8-0.8c-0.4-0.5-0.6-1-0.6-1.6c0-0.6,0.2-1.1,0.6-1.6s1-0.8,1.9-0.8h34.3c1.9,0,3.2,0.3,3.9,1
			c0.7,0.7,1,1.7,1,3.1v6.4h-30.7c-0.3,0-0.5,0.1-0.6,0.3c-0.1,0.2-0.2,0.4-0.2,0.5c0,0.5,0.3,0.7,0.8,0.7H143
			c0.9,0,1.5,0.3,1.8,0.8c0.3,0.5,0.5,1.1,0.5,1.7c0,0.5-0.2,1.1-0.5,1.6c-0.3,0.5-0.9,0.8-1.8,0.8H107.5z M111.6,59.2
			c-0.7,0-1.1,0.1-1.4,0.3c-0.2,0.2-0.4,0.5-0.4,1c0,0.4,0.1,0.7,0.4,0.9c0.2,0.2,0.7,0.3,1.4,0.3h6.9c0.7,0,1.1-0.1,1.4-0.3
			c0.2-0.2,0.4-0.5,0.4-0.9c0-0.5-0.1-0.8-0.4-1c-0.2-0.2-0.7-0.3-1.4-0.3H111.6z M134.2,80.7h-10.3c-1.2,0-2-0.2-2.4-0.7
			c-0.5-0.5-0.7-1.1-0.7-1.9c0-0.7,0.2-1.3,0.7-1.8c0.5-0.5,1.3-0.7,2.4-0.7h10.3v-18c0-1.6,0.5-2.8,1.5-3.6c1-0.8,2.1-1.2,3.4-1.2
			c0.6,0,1.2,0.1,1.8,0.3c0.6,0.2,1.1,0.5,1.6,0.9c0.5,0.4,0.8,0.9,1.1,1.5s0.4,1.3,0.4,2.1v23.8h-9.8V80.7z"/>
		<path class="st0" d="M173.6,54.3c0.6,0,1.2,0.1,1.6,0.3s0.8,0.5,1.1,0.9s0.5,0.8,0.6,1.3c0.1,0.5,0.2,0.9,0.2,1.3
			s-0.1,0.9-0.2,1.3c-0.1,0.4-0.3,0.8-0.6,1.2c-0.3,0.4-0.6,0.7-1.1,0.9s-1,0.3-1.6,0.3h-12.6c-0.9,0-1.4,0.4-1.4,1.2v5.5
			c0,0.5,0.1,0.8,0.3,1c0.2,0.2,0.6,0.3,1,0.3h14.4c0.6,0,1.2,0.1,1.6,0.3c0.5,0.2,0.8,0.5,1.1,0.9c0.3,0.4,0.5,0.8,0.6,1.2
			c0.1,0.4,0.2,0.9,0.2,1.3c0,0.5-0.1,0.9-0.2,1.4s-0.3,0.8-0.6,1.2c-0.3,0.4-0.6,0.7-1.1,0.9c-0.5,0.2-1,0.3-1.6,0.3H157
			c-1.4,0-2.5-0.1-3.4-0.3c-0.9-0.2-1.6-0.6-2.2-1.2c-0.5-0.5-0.9-1.3-1.1-2.1c-0.2-0.9-0.3-2-0.3-3.2v-9.3c0-1.3,0.1-2.4,0.3-3.2
			c0.2-0.9,0.6-1.6,1.1-2.1s1.3-0.9,2.2-1.2c0.9-0.2,2-0.3,3.4-0.3H173.6z M151.5,89.7c0-1.3,0.2-2.6,0.6-3.8
			c0.4-1.2,1.1-2.2,1.9-3.1s1.9-1.6,3.2-2.1c1.3-0.5,2.8-0.8,4.5-0.8h20.9c1.7,0,3.2,0.2,4.5,0.7c1.3,0.5,2.4,1.2,3.2,2.1
			c0.9,0.9,1.5,1.9,1.9,3.1c0.4,1.2,0.6,2.5,0.6,3.8c0,1.4-0.2,2.6-0.6,3.8s-1.1,2.2-1.9,3.1c-0.9,0.9-1.9,1.6-3.2,2.1
			c-1.3,0.5-2.8,0.7-4.5,0.7h-20.9c-1.7,0-3.2-0.3-4.5-0.8c-1.3-0.5-2.3-1.2-3.2-2.1c-0.8-0.9-1.5-1.9-1.9-3.1
			C151.7,92.3,151.5,91.1,151.5,89.7z M161.6,89.7c0,0.6,0.2,1.2,0.6,1.9c0.4,0.6,1.1,0.9,2.2,0.9h15.7c1.1,0,1.8-0.3,2.2-0.9
			c0.4-0.6,0.6-1.2,0.6-1.9c0-0.6-0.2-1.2-0.6-1.9c-0.4-0.6-1.1-0.9-2.2-0.9h-15.7c-1.1,0-1.8,0.3-2.2,0.9
			C161.8,88.5,161.6,89.1,161.6,89.7z M182.3,57.7c0-1.6,0.5-2.8,1.5-3.7c1-0.8,2.1-1.2,3.4-1.2c1.3,0,2.4,0.4,3.4,1.3
			s1.5,2.1,1.5,3.6v4.1h1.5c0.8,0,1.4,0.1,1.9,0.4c0.5,0.3,0.9,0.6,1.2,1s0.5,0.8,0.6,1.4c0.1,0.5,0.2,1,0.2,1.5
			c0,0.5-0.1,1-0.2,1.5c-0.1,0.5-0.3,1-0.6,1.4c-0.3,0.4-0.7,0.7-1.2,1c-0.5,0.2-1.1,0.4-1.9,0.4h-1.5v8.6h-9.8V57.7z"/>
	</g>
</g>
<g id="Layer_1" class="st2">
	<g class="st3">
		<defs>
			<path id="SVGID_1_" d="M229.4,107.3C229.4,107.2,229.4,107.2,229.4,107.3l-0.4,0c-0.1,0-0.2,0-0.3,0c0,0,0,0-0.1,0l-214.2,0
				c0,59.3,48.1,107.5,107.5,107.5c57.2,0,104-44.7,107.3-101.1c12.1,0.2,21.9,10.1,21.9,22.3c0,12.3-10,22.3-22.3,22.3
				c-1.8,0-3.2,1.4-3.2,3.2s1.4,3.2,3.2,3.2c15.8,0,28.7-12.9,28.7-28.7C257.4,120.3,244.9,107.6,229.4,107.3z"/>
		</defs>
		<clipPath id="SVGID_2_">
			<use xlink:href="#SVGID_1_"  style="overflow:visible;"/>
		</clipPath>
		<path class="st4" d="M229.4,107.3C229.4,107.2,229.4,107.2,229.4,107.3l-0.4,0c-0.1,0-0.2,0-0.3,0c0,0,0,0-0.1,0l-214.2,0
			c0,59.3,48.1,107.5,107.5,107.5c57.2,0,104-44.7,107.3-101.1c12.1,0.2,21.9,10.1,21.9,22.3c0,12.3-10,22.3-22.3,22.3
			c-1.8,0-3.2,1.4-3.2,3.2s1.4,3.2,3.2,3.2c15.8,0,28.7-12.9,28.7-28.7C257.4,120.3,244.9,107.6,229.4,107.3z"/>
		<path class="st4" d="M229.4,107.3C229.4,107.2,229.4,107.2,229.4,107.3l-0.4,0c-0.1,0-0.2,0-0.3,0c0,0,0,0-0.1,0l-214.2,0
			c0,59.3,48.1,107.5,107.5,107.5c57.2,0,104-44.7,107.3-101.1c12.1,0.2,21.9,10.1,21.9,22.3c0,12.3-10,22.3-22.3,22.3
			c-1.8,0-3.2,1.4-3.2,3.2s1.4,3.2,3.2,3.2c15.8,0,28.7-12.9,28.7-28.7C257.4,120.3,244.9,107.6,229.4,107.3z"/>
		<g class="st5">
			<path class="st1" d="M72.7,177.3c-8-8.4-14.9-15.6-27.7-15.6c-6.6,0-12.1,0.3-16.5,0.8c0.1,0.2,0.2,0.3,0.3,0.5
				c4.4-0.5,9.7-0.8,16.2-0.8c12.6,0,19.4,7.2,27.3,15.5c9.9,10.4,21.1,22.1,46.7,22.1c30.8,0,67.2-10,82.6-14.8
				c0.3-0.3,0.6-0.5,1-0.8c-14.8,4.6-52.1,15.1-83.6,15.1C93.7,199.3,82.6,187.6,72.7,177.3z"/>
			<path class="st1" d="M72.7,184.8c-8-8.4-14.9-15.6-27.7-15.6c-4.1,0-7.8,0.1-11,0.3c0.1,0.2,0.3,0.3,0.4,0.5
				c3.2-0.2,6.7-0.3,10.6-0.3c12.6,0,19.4,7.2,27.3,15.5c9.9,10.4,21.1,22.1,46.7,22.1c21.6,0,45.8-4.9,63.8-9.5
				c0.6-0.3,1.2-0.6,1.7-1c-18.1,4.7-43.2,9.9-65.5,9.9C93.7,206.8,82.6,195.1,72.7,184.8z"/>
		</g>
		<circle class="st6" cx="220.4" cy="132.5" r="1.1"/>
		<circle class="st6" cx="102.9" cy="169.7" r="1.5"/>
		<circle class="st6" cx="156.5" cy="141.8" r="1.1"/>
		<g class="st5">
			<path class="st1" d="M232.7,184.6h-85.8c-2.3,0-4.2-1.9-4.2-4.2s1.9-4.2,4.2-4.2h19.7c2.4,0,4.4-1.1,4.4-2.4s-2-2.4-4.4-2.4
				h-11.4c-2.3,0-4.2-1.9-4.2-4.2s1.9-4.2,4.2-4.2h69.3c2.3,0,4.2,1.9,4.2,4.2s-1.9,4.2-4.2,4.2H213c-2.4,0-4.4,1.1-4.4,2.4
				s2,2.4,4.4,2.4h19.7c2.3,0,4.2,1.9,4.2,4.2S235,184.6,232.7,184.6z M146.9,177.3c-1.7,0-3.2,1.4-3.2,3.2s1.4,3.2,3.2,3.2h85.8
				c1.7,0,3.2-1.4,3.2-3.2s-1.4-3.2-3.2-3.2H213c-3,0-5.4-1.5-5.4-3.4s2.4-3.4,5.4-3.4h11.4c1.7,0,3.2-1.4,3.2-3.2s-1.4-3.2-3.2-3.2
				h-69.3c-1.7,0-3.2,1.4-3.2,3.2s1.4,3.2,3.2,3.2h11.4c3,0,5.4,1.5,5.4,3.4s-2.4,3.4-5.4,3.4H146.9z"/>
		</g>
		<g class="st5">
			<path class="st1" d="M79.4,136.4H-6.4c-2.3,0-4.2-1.9-4.2-4.2s1.9-4.2,4.2-4.2h19.7c2.4,0,4.4-1.1,4.4-2.4c0-1.3-2-2.4-4.4-2.4
				H1.9c-2.3,0-4.2-1.9-4.2-4.2s1.9-4.2,4.2-4.2h69.3c2.3,0,4.2,1.9,4.2,4.2s-1.9,4.2-4.2,4.2H59.7c-2.4,0-4.4,1.1-4.4,2.4
				c0,1.3,2,2.4,4.4,2.4h19.7c2.3,0,4.2,1.9,4.2,4.2S81.7,136.4,79.4,136.4z M-6.4,129.1c-1.7,0-3.2,1.4-3.2,3.2
				c0,1.7,1.4,3.2,3.2,3.2h85.8c1.7,0,3.2-1.4,3.2-3.2c0-1.7-1.4-3.2-3.2-3.2H59.7c-3,0-5.4-1.5-5.4-3.4c0-1.9,2.4-3.4,5.4-3.4h11.4
				c1.7,0,3.2-1.4,3.2-3.2c0-1.7-1.4-3.2-3.2-3.2H1.9c-1.7,0-3.2,1.4-3.2,3.2c0,1.7,1.4,3.2,3.2,3.2h11.4c3,0,5.4,1.5,5.4,3.4
				c0,1.9-2.4,3.4-5.4,3.4H-6.4z"/>
		</g>
		<circle class="st6" cx="38" cy="148.1" r="1.5"/>
	</g>
	<path class="st7" d="M178.4,106.7v19.8c0,1.5,1.1,3.3,4.2,3.3c3.3,0,4.2-1.9,4.2-3.3v-19.8H178.4z"/>
	<path class="st7" d="M191.2,106.7v36.1c0,2.7,1.5,6.1,5.4,6.1c4.3,0,5.4-3.4,5.4-6.1v-36.1H191.2z"/>
</g>
</svg>
