<svg id="그룹_91" data-name="그룹 91" xmlns="http://www.w3.org/2000/svg" width="46" height="46" viewBox="0 0 46 46">
  <g id="그룹_59" data-name="그룹 59" transform="translate(0 0)">
    <path id="패스_46" data-name="패스 46" d="M705.632,6.6q-.155,5.744-.221,11.489l-.07,11.491.065,11.489q.061,5.746.231,11.491a.02.02,0,0,0,.019.017.022.022,0,0,0,.017-.017q.168-5.746.231-11.491l.064-11.489-.07-11.491q-.056-5.744-.221-11.489a.023.023,0,0,0-.046,0Z" transform="translate(-682.534 -6.573)" fill="#fdd08f"/>
    <path id="패스_47" data-name="패스 47" d="M738.03,20.152q-5.744-.155-11.489-.221l-11.491-.07-11.49.065q-5.746.061-11.491.231a.02.02,0,0,0-.017.019.022.022,0,0,0,.017.017q5.746.168,11.491.231l11.49.065,11.491-.07q5.744-.056,11.489-.221a.024.024,0,0,0,.022-.024A.024.024,0,0,0,738.03,20.152Z" transform="translate(-692.052 2.704)" fill="#fdd08f"/>
  </g>
  <g id="그룹_60" data-name="그룹 60" transform="translate(13.548 13.343)">
    <path id="패스_48" data-name="패스 48" d="M718.928,14.492q-2.478,2.257-4.892,4.578l-4.784,4.687-4.689,4.78q-2.325,2.41-4.571,4.9a.015.015,0,0,0,0,.024h.022q2.489-2.247,4.9-4.571L709.7,24.2l4.687-4.784q2.325-2.41,4.576-4.892a.022.022,0,0,0,0-.032A.023.023,0,0,0,718.928,14.492Z" transform="translate(-699.987 -14.391)" fill="#fdd08f"/>
    <path id="패스_49" data-name="패스 49" d="M718.953,33.37q-2.254-2.478-4.576-4.892l-4.687-4.784-4.78-4.688q-2.412-2.323-4.9-4.571a.016.016,0,0,0-.024,0v.022q2.246,2.489,4.571,4.9l4.689,4.78,4.784,4.687q2.407,2.326,4.892,4.578a.023.023,0,0,0,.031,0A.022.022,0,0,0,718.953,33.37Z" transform="translate(-699.982 -14.43)" fill="#fdd08f"/>
  </g>
</svg>
