<svg id="그룹_90" data-name="그룹 90" xmlns="http://www.w3.org/2000/svg" width="86.678" height="85.361" viewBox="0 0 86.678 85.361">
  <path id="패스_71" data-name="패스 71" d="M839.842,31.52l15.051-19.349L869.945,31.52l-.907-24.5L893,12.171,876.563-6.013l21.669-11.464L873.95-20.835l9.231-22.71L862.419-30.51l-7.526-23.331L847.37-30.51,826.606-43.545l9.231,22.71-24.282,3.359,21.67,11.464-16.44,18.183,23.968-5.15ZM868.518,6.4,869.39,30l-14.5-18.637L840.4,30,841.271,6.4l-23.084,4.957L834.022-6.152l-.283-.151L813.15-17.194l23.389-3.238L827.648-42.3l20,12.556.1-.3,7.15-22.167,7.251,22.471L882.138-42.3l-8.891,21.873.316.046,23.072,3.192L875.765-6.152l.215.237L891.6,11.359Z" transform="translate(-811.554 53.841)" fill="#ffc47a"/>
</svg>
