<svg id="그룹_92" data-name="그룹 92" xmlns="http://www.w3.org/2000/svg" width="68.991" height="68.991" viewBox="0 0 68.991 68.991">
  <path id="패스_50" data-name="패스 50" d="M738.056,6.606q-.233,8.615-.334,17.232l-.1,17.234.1,17.232q.091,8.618.346,17.234a.028.028,0,0,0,.028.025.027.027,0,0,0,.023-.025q.256-8.618.349-17.234l.1-17.232-.1-17.234q-.084-8.615-.333-17.232a.032.032,0,0,0-.033-.033A.034.034,0,0,0,738.056,6.606Z" transform="translate(-703.414 -6.573)" fill="#fdd08f"/>
  <path id="패스_51" data-name="패스 51" d="M793.289,20.3q-8.615-.233-17.232-.331l-17.235-.1-17.232.1q-8.618.092-17.234.346a.03.03,0,0,0-.026.028.033.033,0,0,0,.026.025q8.618.252,17.234.346l17.232.1,17.235-.1q8.615-.084,17.232-.331a.034.034,0,0,0,0-.069Z" transform="translate(-724.331 13.983)" fill="#fdd08f"/>
  <ellipse id="타원_14" data-name="타원 14" cx="3.668" cy="3.668" rx="3.668" ry="3.668" transform="translate(31.008 30.647)" fill="#fdd08f"/>
</svg>
