<svg id="그룹_89" data-name="그룹 89" xmlns="http://www.w3.org/2000/svg" width="122.999" height="123.002" viewBox="0 0 122.999 123.002">
  <path id="패스_69" data-name="패스 69" d="M829.8,115.513l10.473-44.569,16.967,10.511L846.735,64.488,891.3,54.012,846.735,43.536l10.508-16.964L840.276,37.08,829.8-7.489,819.327,37.08,802.36,26.572l10.508,16.964L768.3,54.012l44.565,10.476L802.36,81.455l16.967-10.511Zm9.9-45.96-.141.595L829.8,111.666l-9.9-42.112-14.823,9.181,9.18-14.823-.595-.141-41.521-9.758,42.115-9.9-9.18-14.823L819.9,38.471l.141-.595L829.8-3.641l9.9,42.112,14.823-9.181-9.18,14.823.6.141,41.517,9.758-42.115,9.9,9.18,14.823Z" transform="translate(-768.302 7.489)" fill="#ffc47a"/>
</svg>
