<svg id="그룹_182" data-name="그룹 182" xmlns="http://www.w3.org/2000/svg" width="25.64" height="418.773" viewBox="0 0 25.64 418.773">
  <g id="그룹_181" data-name="그룹 181">
    <path id="패스_243" data-name="패스 243" d="M823.558,9.156l9.326-2.192-9.326-2.192,2.118-3.42-3.42,2.118-2.192-9.326L817.872,3.47l-3.421-2.118,2.119,3.42-9.326,2.192,9.326,2.192-2.119,3.42,3.421-2.118,2.192,9.326,2.192-9.326,3.42,2.118Z" transform="translate(-807.243 5.856)" fill="#1a244b"/>
    <path id="패스_244" data-name="패스 244" d="M823.558,9.156l9.326-2.192-9.326-2.192,2.118-3.42-3.42,2.118-2.192-9.326L817.872,3.47l-3.421-2.118,2.119,3.42-9.326,2.192,9.326,2.192-2.119,3.42,3.421-2.118,2.192,9.326,2.192-9.326,3.42,2.118Z" transform="translate(-807.243 398.989)" fill="#1a244b"/>
  </g>
  <path id="패스_245" data-name="패스 245" d="M0,0V59.084" transform="translate(12.82 338.215)" fill="none" stroke="#1a244b" stroke-width="1"/>
  <path id="패스_247" data-name="패스 247" d="M0,0V59.084" transform="translate(12.82 17.801)" fill="none" stroke="#1a244b" stroke-width="1"/>
  <path id="패스_246" data-name="패스 246" d="M0,0V228.248" transform="translate(12.82 91.788)" fill="none" stroke="#1a244b" stroke-width="0.5" stroke-dasharray="2"/>
  <circle id="타원_39" data-name="타원 39" cx="2.272" cy="2.272" r="2.272" transform="translate(10.926 155.284)" fill="#1a244b"/>
  <circle id="타원_41" data-name="타원 41" cx="2.272" cy="2.272" r="2.272" transform="translate(10.926 253.756)" fill="#1a244b"/>
  <g id="타원_40" data-name="타원 40" transform="translate(7.897 201.49)" fill="#fff" stroke="#1a244b" stroke-width="1">
    <circle cx="5.302" cy="5.302" r="5.302" stroke="none"/>
    <circle cx="5.302" cy="5.302" r="4.802" fill="none"/>
  </g>
</svg>
